<mxfile host="65bd71144e">
    <diagram id="ISnTJHC8lU6iKZhKEjIX" name="Page-1">
        <mxGraphModel dx="1600" dy="1760" grid="1" gridSize="10" guides="1" tooltips="1" connect="1" arrows="1" fold="1" page="1" pageScale="1" pageWidth="850" pageHeight="1100" math="0" shadow="0">
            <root>
                <mxCell id="0"/>
                <mxCell id="1" parent="0"/>
                <mxCell id="2" value="" style="shape=stencil(lZtHkhw3EEVPM1sEvFnL3EMRIsUJUaSCotztldAQPV0f1a/I3ZhMFJBI89PgKX33x7uffn/zFP0fnz99/PXN388/f373lL5/ivH5w7s3n54/209P6Yen9N3bj5/e/PLp458ffn75/fefJuX86bePf80V/nnhiy7lyRT9vy9/SC7F///w4wv5++cPB/LQD+TZlY7k4UBeXAmPyYMb5UBeXWlE3o7kzfVC5OV41OESrp7SgTwEFzLRh3ikTy56oveyvgkHRB9UlqG7gMf9crpF/7rDB/T9uH+724yqkIXexD8e0ycXjudNwWWQf1JlSMV5kH/W/afuCsi/uHpcP98kcEpfXRL6jOetrh/ln5ursH5z8UhfvPNwv82VeqSPLuL67Sj/ki/ou9huXRr4iP5oXqWtG3xEL/sf64tfR1/DOtFX0ifXcP1x1J9aln85pe/OH+VT7YvgC81aj/tpdr8g/67+p/H9mrYLfXYJ9LO7djxvqy6DfLrKp3UXQT5D/WEbboA9jhV4Fn0Py+Ie0Behjxgthp63J1fhvmy3R3vseVncuf/0Lh4Vohc8gDF88U83BrMwihheXZwxdDCB14h1Y2gcY4I69d5R6YyhBWUgK7ag6GVLA80sWBSSsO1dIilVF6sydArcffnlG0NAS5hIIijDIBiU1XaG6SocehrnEWeNhME+RTeqMnSQUmprvRuDCRoYLDrWo38ZBf1XNvA2lKGCgRYTooi1Lh94ztCWAd8xDPjCjABHixu2BBy6jmVfNwZz4+BUm8WMpgwNvmBOLopqDAyzZvLeKwP6+bGJdSyTOnd8uy6NZVLnDKYIQw9NodCuKVdliOS7N3BkfyFwav9usiVzC7SlvsD6nT2QbzWGLF8w18ZfaOLILAWgQ/cVL+98a7tgOIrVlIVSkMlwPIPFRNKlyXD0Gt1jfHjV/juUQQmmMSSBSREtzm5azlAbRqCpOcJgiRrddN2Q8A1rPWIQaFgSb2kzoDxWon3OkJfm3CcjBJaSojHz52jTcSnzXTpF7t6C7J6v0cWZX5KEwYIYWZxpv7j75JmhaZyeoBQ8X6+KuWfWBIc2hBePh54lC3L3Wd295aGZsoakaGaWXCgtiYqjLZNucNMWgXJSBk9n8CuM3xgi2vQE/kf1nqUbZtB7CIiMLRWpIiW/qj3nDE21NdgmmSFmZSBwYn5O8rHQ+dBFMZ8xUHxoRaF0aBjYLSGM8gXOH1paqnbHEOkLUW06FD501AwlFMwq261odGPIS27nDH47dEb1NswneZzlLIQ1at8Y4kIf5wxtpRd3DB5MtFaFoTOzI6Bbtbg1k03+gmjrwOKN0Sv6QQA36Y/rdyyGGX0S7IPRx+ilutgwhatlLzXjlRWtNVe+gLJV59BrG7147VvK+IjeSzUSk+KaVwx4rfNT8cPopboSlw9/RK+B0CVaP7khGs3F17QM5JWeHFENitnCgljn9F7BOdOXrVoVlgI+SlUFB4flNM7pi1YMuBhW8hYLloGe0+9+11WQZ/EKywOWF3JXjBAwvOamPjRi7MtJ7fHWyHpEv+kzRW+jF/8T0b/lrbsREcAbvVd6igA5KoQKy4C+cv2L+0on+sD7T2pfBfRtl39AfJaT+quAhUuj3+RD/tbSpaD0FI+MPql8CNfkrIXUgDXIvFU5uaI49yMYHAGy0Qt8jeh/jN6rfUW+3676fGWPQ+kv7FHPe7GfoOvjedN+XpTnmT2yf/BqL6gPSSsCF/qWNP5e6LNBWqVHe0mae1/a47fRt10+ie6rr6z5Lp5Ss9fv/o387axFH+3XY0Wz3Krtr/TkPy2+1yz01Aw3/CBpj8c0yfCJ6L+/xD9V6QlPRq0nXdAn9Z8eKzF1829+KewjPBx0/cH4v6m+EV6y/MJv/hb81cxfpCCBWWrdmiWJ85e6Zg9e8T8NR1jKGZS+XqSomr8kyh+bFmAKxq9Zoz3K0zJWOm9X/N+wZlu7+kNuzhu9Nj45X+uKZwbWwSe9tKo43+lbxs+1zlm1kAQj4KyVMUinKkSe7/DaAJxlDirKhS0GJExiWtwOnRFFtz2K5VX4eFQBC3LossYyHjH0rgwXVbwqjqViJJv9kKEMODfTFjK5K/sR9m7bJEzoXMXrW9mvL3N9VK+NcnED3akxiPua8YBrzrIlY6Bpnr6NPkxEQbX/bZpwQjqqm0et4pmPJ+XrSaU0nTz1L/J2hoxNm15UNcwNEyyaAyfyhYq4orftDI37F10TmzlIRPcwFBklj2Kd0x3He0iRB3uC1p7mZCH1VZMG/9SwOjeyzmpmrtfOBuDRRC0Bw1ZvPesYctdz70nS3M3Y5/863vTeEK+JO7db99lQAYGkMRQUzvYBSWmcdZ+pIT7O+ts0zuS9jmNctdD3ubKKnxjb/MYcA+AviCcbgXVjbPNMCdHtGNvQCperRz8ZxyDXN8dsBC819Pf2bzG5+U3uuYv7nmMxxLCVoMfg9vPYsIPnLMn899hmewgL9LBN3gycsdrhycVsj8HEuo3qkN+oW6VvdIRYZZvHsLuk8QrLzeumTDSJnbfR7TkMRNWmoJjMtIXeOaQtHZsGQQxxG13L2DCJZ+NGdA8zwfPKQPcQN8Q0IuZkYZtoHlzENuisusRVIcsXdObQYxsq3LoMdwwkVsuqdCqYDWhO+SZl8OTJNnffcUdbWtYbZlmb77ZwQiIamhh3toWhjQRzUlSJ6er0DMVSZ2kbQ7f42ZB+H/uu5IXPxspxLP5kbJ2SpbOxeMpZz8bu+ZnHNtZP0wjt7NkArn/yLAHPK3jHQBuN9dezZxUUcL7x2cZOz89C6pqTu8FafnZSz5618P73ZzNwX/XsWQ7F17NnP7if/VkRZdpF7Tc3rmSfPIsi+eSTZ1ekP+nsWRc+OTwZQ6Rh/pNnadSZDFvWz8+ctux0PqsD+XiVZ+Rnh17nNAPDrS1fCfwmc1+fYYRXfQucfPhtFBxnCbciZMO+tte8o14cVuBDwa5M2KZwsWgcNKdJ2MMMWtFNnIrqoGi6eK4qepawBhL0mhKinqDlbh4fChoUI6LnoD7/inxob8WzRwhKTkBbJ1cS+tdb3/qOHOQeNZwnjA7f/Jz7gtx+eH05/vb5/fuXh+f3/9eX5vanl1fq6Yf/AA==);lineShape=1;" parent="1" vertex="1">
                    <mxGeometry x="132.24622087342118" y="194.9411666648083" width="99.8348526333998" height="177.2930546021804" as="geometry"/>
                </mxCell>
                <mxCell id="3" value="" style="shape=stencil(nVrZchs3EPwavqJwH8+O8x+ushypokguWbn+PjNhYUn07PYqeaMoNHHMgZ4eXNKnH49fvj9cov/x/vb668OfT1/fHy/pp0uMTy+PD29P7/Lpkj5f0qdvr28Pv7y9/v7y9fr39y86Uj/99vqH/sJfV1xMLgVFRf/39ZsQ3PD/fvPzFfD89LICQlkBxflEAR5m6K40AohzARMQw1zkEaDlFZBd5YDSV0B3OVNAXpeU5CciBUQAVNcZQE59LIAcXBwU0NIKKK4XCijrkop3mS8pASC70SkgxBUwXGWW9m6svlSzi8xw3vXVl2o/m6HVBdCi6yeA9VhbdY2dkgDWPXTvAjOc7GH11i4hxSLOo2v04jKLOGO4Xt3g7u3bCujcDsnF9Vj74EvK0zcnYIjzMTts4bIBZFfMDsNFA2DeKhHsASAxXQmgmBnEcOSUUnctIKAQO2TJGhkBLGtIyI+KAGbpPNyAJWXnifNJyINrCCCQJZU+HeEOEImlqwTkQEAhvlSbSx0BnWy6SaqEPZTpv/sAOdaEgMZmGK7BkqqLZA8S8nA/CIDNIBEM1+5o85t9gCRGA2BX1jCZTwCNGE7CJWcEsIhTZ4ZN9+ld+4BsXKPTVKlmamYGcqxy6iWaPRDX0FM3m25s0/Jv2EOd3+wD+kwq90mAzSC5GpwvTMp1BMjrDF12xTYthA0AYnu+pLJuujVuafFWAASaZgSATCCfndIAciJzMl8a03M2QJwM6ggAIZorD6CBt6hwvsxcY7i0LklYZWWnNNDScusxcqIAoNKbdx0C1mOVq36cbHq1tLCPxAFwAwkhYmRdLA2MLMhPkFQpIVrXAAqNcg2NYChpTuxQXKoIoPGQ5hV4V2UVFtNhRvAGkHggMS33AyQyAXjiGj1jDRQSzRpyKXY41kBdo2Usy4Kf3+wzAZNmBiVkNUxytGUZmgKE/EBhKbcw2UBu6Ns8JyVDGxIlAVp0rn4XqY1jwawaaU0pcQK/H2aBtj8+41UVZlbed9IZJLfhjfx8wVwUeCWG2TTMKN0d7vHWlOHEF7ai7ja8kqP39mQYp/UzQd2GJz4cf90TP/OT4s/hnprJY2HkadXiMT/7WX4enUyC4eyi91h0bas7GA5ylqdUSIYPHE4PMuNWGcv3SC4FT/xdhhcYzvx9Z/ggwW0WE1yki4GtBlqvm4OU8KAng6rjSfBFXHulZgIXC/QaMQ4c5k33sfAI9FLYCT6mr5rQ9pRZmMThKZkyacmfrD2Y8KCZAFKqp9rCfxwep4zwseHm9uCJw9xNfKsho9bpaWWqVyuOZ+Eny29oKebDSg3Q55k8INSjI5Vgx5M3RnyjKoz8KXVajZtp7qubWLdVW1SnVd0XqRxzfOGWYF8pIEmCEvIKElDgsm7f9nfHdhNTdLphFJHeJkLxY0AAo2daRMAMiRcRBbU7AVA1pE4j3RURidWXDbVs7R7xsh00I6mcIqv+him1Gu2LCACLuUHlRAFgfyrSWFMAtJsyVWmDN5eGuCtrgekUqyFSpKrrMEJwqvQKFkCHflM400/aGnG50pAeJgWXeDYDlCtlk5E+KIfUU7ECsl4LtDGi6saaBdomGB4CoFcTZ9R+UGXqjeYZ1U+gSOb8RpUyUI4zbbKpeAcCZJsM7FCxhLZF5zHaUNJR72J7kAV0BDB2bIXguyA81JqrmYL5RkY9RGOKUZJkpONxqshHBDCirJq/RwATdrWrYGaIZA/atwAAN7U2Q42Ez+Q+7b2YRgfLrtrdCQigMwQzQ6VpQztUFQGshNYemO0fEYB22eBYC+297PTxCiVAO53CQsvRnV5koWlDu51mD7QBa5oE2sdjpLggxdIYJEtKhoUKgCVXFRzhWBPt7sSKkuLgRFqoAlyjEuWJVQ7JebADF5NustoG4KWSfSMhaYFJx1qUwnOBQhPZrTjaAInGgwLgGvU0L2m5tlq6Vcod7Az6koQ/24BLrnbKvlVyWWcQdsLEKy0JV+crgz+q8Oh8WqYx5/MomBdPqe5NC9lIH49p1VqAJQZaeKv0swKEuNLnZAErXaHGTKCMAbl0PHkNE/GOiydZw0jVKuCyEDXvz0LnSSAaOpNpa0EAFSq5cPaGDpKx1rvsdVjErBG4cKYA0w5iHE67IQUBtD8SsScsANbM19zqDYDNkIy26HnWsM8r/XwEcQRAVeDEl8zbrcBrGgUYS9PHXntvSlmz5P88Qj0DyIfbm9dvT8/P1yez9//HN7Ly1fV9bfr8Dw==);lineShape=1;" parent="1" vertex="1">
                    <mxGeometry x="233.35021709356442" y="193.1017746177987" width="180.31761395067974" height="58.694708491398956" as="geometry"/>
                </mxCell>
                <mxCell id="4" value="" style="shape=stencil(lZvZkhw3DkW/pl8zuC/Ptuc/FGF51DGy5JDlWf5+wOjIquZF1inrTW6DWSQIXFwsfMk//fnpwx8fX1L48/u3r//6+J/XX79/esk/v6T0+uXTx2+v3+1fL/mXl/zTb1+/ffznt69/ffn17b//+LAk179+//rv9YX/vq0bR5hrUQr/e/tDOObbH/7xJv759csunjbxdIT2WLyfH7uL94HiZRPPR4XN9GPsXy9HjSieN/F6VNx7r5t4O//wQLzt4qaqjuJhE59PNlP7Jh7jEVk+7vLpmKibsu8+lqMXks8i346G+0m77uM4FfBAPu77N7sk+eYMLR0tkbzYgtkO7f92upu8/QVMsx1l7PLj6Jnk0/79HI4O5tNOt7vJm2fB/usxdvvJ5Rign3pq7ybfzi88kM+7PvM4Ju4n7Psphjvw/aL2Xwp6YznCbj9lHgnsOR9l12fNuH/zpt19K99vUn9pt1+8lI/H2O2nMZzEo+z67+nU2KV8UH/p5kGAzOEY+3n7RKwNpzZuaMh4ZfL790c6CtyXye/3OyxUsLzspxwF9SPnHfVIqH/Bq9GOjPJT9tOPAPpPbv+G8OC/Zr27/46Bgdr8Pao843nf/XHMIwMexnBe5y3ehSPBAeLtPm8L4pEgAkQLGbIgocuvO9t9cma848UXdqXOcsL29SXYEXetznpE0FKupxHcFrQTyK5hLih9swWNcLQ6Ld1C87VhhHPH7xZQZK1XvzDh4upU1jfHESnWFyU3toBsybBTrNUWZFhg4NmmW0BM1OJ31QXIRedR3Bka3IPhYXRnoIi/AK7pArqHhVhyhnkE2pLj37YggvEZRqhpTHSgO0a8XwD3ML1PT0QNw4jgDw2oYQumU+ugBQ6Kl2mAlgxUJDYs8yYtVSUjTzzOMKI7ny4QfWZ3yNfRNJYHy4KG+c1SopzBQhKpdTjUKGcMe7hAHCgjBZ7D3XTimx7upuOzLQ1ZEJAFLIzYL87CNNEqW1AkTtdzkw8vblerEasERNsMoQvTCAgCK94IlWwnmXtkrc1x20n3YDFz/wULAIPUWh07LxjjlqnJgoDUYYGA1B7qCZ6PFqSdCdTIDpSUwZWOGcNCPlmQkPKZMQuFsxwvEwgEdSBLOiPdQ1DOl5+oNZzfe5eWV/gFi0ASsowpR7AlWyDGFycmhsMFdiOmxDVsgcS4WPHibIHk/saVMewONb4Ysa42HBgbfacItJIFYTMYdU0+7/dmOEXyxjT271tAYiozmsgHuoOmvsC1PuNWYkYNs1XDUEnP28nbr+XjGfvupUrMxszopshjdbBppCroNt2VUwzPqBYa9L4y+kDrag8J9d+yBp3EScw8t3szaKyu1abpvGEf7L+mE6bu8pGqU8YAd3sICCqlaDkoIBMp8chN5DvlnUPvl6uPhuPCOAPmIjmdbPGdPOjH4KPoeVG+q/6fyFe1tyfy+VT335RPJ77+Tfmo+BmwTxJdCAhIZaMjy7f61iN5f16wt3hLRe/yRN6XvJ6XqlnR8d7A1aah+MDxa8mrPRArWPpRe6Pq2tK/fp/KOna/Uf0r0H05DhEwiTX5rPKR95NV/4nua2q8s/vi/Th5ykev9kPdoavzUspxpc8n/uju65k/Ojyn/VzYG+HtlT032v+Fv1CyceWPBeLvlb9nxh+HJ5Q4XOEV5dFXeEj88Apvn/jjD8lf4T/571V8oZThKn6h/EV8RPmL+IvyF/Gd5K/4A8pf8BOyhyv+Q/x88Ss9L+FnudgP8fPFD9V+Euzf+GfW/VN3a/Fbxw+pOx107COiPo2fawJ5Et5H/F/b5WdZ9lF+IfkLd/stf4nSnsZ8oXetCmfk291VCQryE8vvuk6uDMo385me3fM72v9w7fWK3Yjhxg8q579unKMh/zH5qbM0FC/GUHto3LoYOs7R0f5XCUXqqNiXWzUaqR2j/V8UgTiA2YLqSzRg0asuJRlnRghalS9x4YoxaXqf70+bNXuQiZNrnOEs4rwrxmHJMqjbrHIflY5dOygHvOgZFXhXyfKH+kcWS8g1Z9LJmpK4sJuVi5aGxYLV1pBiUDynux5Vs6XsWivSy1kVLixAUL1jdah2a109XO5QiZYadztn1y31xN2drpSoNyyK3jvAN8wIGKSmA6XBteZ7q/K2oPIZpuvuDO4fTR1jM1igsR9bMKQ9GnHOxhZoly1xahOCdmuWARMKTNeX41mwdQhpFdZnh5Bwa/ZIoySr7111AZ5huPHPjvNCq6MbdQE2I7ubDBncOm/uDDzStmZZpE89GSuLVlXnLU4+QjI9w8Q81mzNt/9RS9FNt0ycQ1xBTlsjnNsNVxuYE9uXq9nxQ4dYgxtOr1TeWKMh7uZoJGENn7jBDWp4dFegsQWZ5mGaMsplTNSSSKclvFtA5KG5msJa8GTMSC5u4Az16jIkXUBlozUq5YaAqA9Tg7uHgYWU4hKBO5BcL3CsbwETlfaLTpKu6RLY0mJgbtKDsHIVI+QXCnafVnLqIgo5dWwXQYt+wbi29FfmbaDzQZRTejJ53tnN+09OIJyOVkZBt6D8ajWJSacKMWNghuUaUPcU8FLez/N2zKCDjkcYCBI/DFqQG5yxOlJiVIzwy8sXnO++1ffecUPK94L68ZqPRnmZv1rz1yivQzkTc4agBcLVUkb9SPa55tOpgqoJd+v4Lim6xzoZ+VQ6YfOW8oxzpOeBvMTkyiQ1awGgTMyQsiJQKbifoszfgJv2U3R+3NJUqjhV1/BvHMrc+xXm5FXfG+WE72mqDlxZGGF5aZgknmdv6o+p4Thu08nu9X4I3ydJwTjx+wz/fog7Mk3ziTieyMt7i9ievJeShtJ6H4byWm1KWAtq6l9P3rc1l9JhRufEB/Z7mlrPs8dekptVxDbHNgpzae19ZPy6fzmHe3fTmBFxtmvcDThO2hVmuc/pXhVym7YryAb02a5DUuxSXYsAPKPQtSAbnlxTd+L8dlUbNhUfo05VJKHTRfuL0uzhu5sUGy6eGNM07o+/SGZx+8f98fNvr58/v72dfv//9bG0/entoXX+5f8=);lineShape=1;" parent="1" vertex="1">
                    <mxGeometry x="265.40573856287597" y="262.5951785870295" width="163.8013302977172" height="147.3855486050852" as="geometry"/>
                </mxCell>
                <mxCell id="5" value="" style="shape=stencil(lVjZctswDPwavWII3nxO0//ITJzaU9fOOO7194XqUhUge2W/6cCKwGIJgBrC08f25X0zePdxPh2/bn7uXs/bIXwavN8dtpvT7ixXQ3gewtPb8bT5cjp+P7xe7t9fRsvx6tvxx/iFXxecT9T8iPLu978nVMLfB58v9vvdQdvXoOwL+QTsM+Wo7NlTKgBQyDUNqN3FWwDWK0gI2eEVkgaIk2iFbDkKjgqKIVPRMYRIrWGWigY08tilWBUgBsoZA7IGFKoMAUmzlLin8mbQWhkpESNpFGo66MwUgUsj65rWLDEAlsIi6OKpgsTFTIE1oFABWkrNiq96mIdWKGmWWqQKaG2NknapJRi0AJqWRstUgfha7a8ngGQGuSQsaWmMn0BB+76/JoBEBVaolZgtoIGyVAP5ugDU24BSKQcLyAgQe15nAAeCLkylWpY80FJx5Bd5YKBWAdg8ZGK0Ave8zrTkcNCm8olaPciD0NqMSwFWDUmclUagAGgVacTFChG4JOKzMQS843JvULOgEyhkoxC8pTUCWtk5cs5mLqEgGkWzRIFNTl4Hk+oK+66QYqqxrBlA1LXZniUAxGuNts7MeLiOcMSLTYqaVpHSuCgDAe2IaVSY04RWeBQQmZKuG6LgjBtv1gKXPRJA5lg4MQAH+6jIVUtjrG2o7/YqNLXdSgE0FO6lerJPfaa7au+s/zIHFFACpujuHDQcJa27lUnG9UZw56jkbMJWZjHx/6Fhb1HmV6ZJ179257jq7MS9Mg8vitfKwO2s3lYmeuHH1Al8ZOC+xe87krClB594ZP9WY+7Q7G/nCu796np5oKDNHTUgtcVQPmnpxk7nZswZCFN4dtXYo/rMqU9Ad9oXOx1gf8ada/1B4Qr5lR9gU9hPWjk4WXL4NbV8RQuPH65X7OXi/0n+bbffX34EzN/bk788uvw1CM9/AA==);lineShape=1;" parent="1" vertex="1">
                    <mxGeometry x="286.67795992868355" y="275.16703783817775" width="6.7955621831822555" height="30.532682921146602" as="geometry"/>
                </mxCell>
                <mxCell id="6" value="" style="shape=stencil(lVjbUhsxDP2avGpsyxf5mdL/YIZQMqUJE+jt7ys3zRJL2VN42+zqxJKscyx5wzcvj3fP200KL6/Hw9ftz9396+OGP21S2u0ft8fdqz5t+HbDNw+H4/bL8fB9f3/6/Xw3LMfTt8OP8Q+/TrhIIQxQCr+XF/Xvi88n86fd/sKcKcpkHqjwunmlGI35v+Wumjfq1pmS181jsH+fofMxkcz/3ykWYF9dcgplEG7sdgFNWEjrAP3c+wTgCDOUhGqaAZ0CcIn57PGSowKTykJpBpRILOuAnKjNMZRK0gGgUq8ToAZqYN9KoDq7VDVvIK2FqRlAoQRcUo+5WEBEKwjlOeiaIUBDTG0GaDWCtNZoa0nf1AYAmcrMzdKpgKCrsjPPACFBbFZ+sgVkUK21UxcHiEAA0vnzRQwora1QMPugiQbl3YRCtmkVEINEimYFPq95HZBdLWUoAtIoJwtowKWuIYoFCBCyvpTaBSADl3p3WUrUQfEpwAbNJHgFI2RajgnwQQEyu9QC3AcF9JlxTbOEjocQrN6LvsE+GUKI6gyobwW02SfRNxhQ5qg7nw+9NUCaN6IrRVBtCPVsAQxUQAHVudQxgOfq0wLuKK1iKScVcnQAzMZFXH0O0CoVVN/OpaZqjF0yQdeGKefSOjiKXTIbN4QJczQ5jjIqDVd8eioyCtqVdxWsZI5AjSkBwBWOqqLDcnUyIEwFR22ERnQFTDkjZaq36NDyYtmXs/udctxxI/pxgDshBqmRS+4MUkAB6upPOQWg2vDnqGYJNaL+pB5KhroN1wv0Ckntu42hCyBo388MEqKuz3VMo35RE+d6sguKvLPtGzwHQfjGUqNGcuxb15FX1LpqMc0Twdg5ABhtpC9X0PaNBn9Ok1Z8BhuhI0Q1Wx3h0a5DSjEx4H3QMUiMMDXY0OigVeegBVNOR7lo1FWg9OmwyEZcGVJOx9FsRrkGR7m0dIUX7TfKko7U1UwEGR7tOqKLGXj7eRpcuxUwK4ydAbXU7fiaM+wSmx1Gc6SOKslKAGPNcHcyXHCG7AnK+FRfhvPFPkP6L1dCi70WEchnsNTkACUvUJx583ZvtGIfZv9TPjdCa/bmEgePlM4+VtiiO3+0ArG9iVdJB9036dTdBYz0uwWHVVcMESrKB68X/2uuD283mQ+7p6fTRejld3vzqa9Ot6Z8+wc=);lineShape=1;" parent="1" vertex="1">
                    <mxGeometry x="310.1315872692469" y="284.8851216814452" width="66.5280060901614" height="3.9329383958695416" as="geometry"/>
                </mxCell>
                <mxCell id="7" value="" style="shape=stencil(rVjbbhpBDP0aXq25j+c5Tf8jUkhBpRAR0svf11s0C/Yyh0TqG8z6rO/Hnl3Fh7fN0+t6Fdzb6Xj4vv61fT5tVvHLKoTtfrM+bk/yaxUfV/Hh5XBcfzse3vfP5/+vT5Pk9OvH4ef0ht9nnKPGEyi4P/3A5X8HX8/iu+3+SjxS1uKJXBuLZ0pRiReKYSxeKXslzsTg7Y1aVuI+EMexvDyu2nrPlBGgkNMA8TcDB3wj1h6IkRVouMSvA6LEjAGAu4tzBjwlBzK20JAqxQoAElbtQ04UgNOpkA86y45yAVUR+uMZkGHicqOgfaiOShoD5H2takCmAEyqgZI2qTI1YJI8zknXqqcITOJoO01OAtDA3F2cAZJKAGjyvgUAZbq1GwAHMi2AxBaQgNMCqE4DMhWQBwGwThzXHugRwGSaGyQN74ThtE1tTv5QheaZlqghXhILdEO0SgH0qACKburGPQ7DRBgfZp0jgM8W0ADRiwEtWEDAgOqt04yclg7SmWsZcqUAkmaBqeIBV94AuF6PHzRJmvCe0zpKLGSISmMRVumgijRI4ooFOFytpjQEEPxnik961OPi44XTjH0wDSQ96oCGWz3qqeAOMjQgPXrPCQMoffv4IJVJLiOqvgVZyknGtGHo+CoO/wsxz5zrtr4zhbx1uwEN05xbcJkHga3LLi3drdGsjiawkRhvA2wADvKx7BtemzSNLbSgyAQxFe66zts7U7bbgCwoBRSHbGVVaygNTq0oedC1UQLkY9ksi2aaXGGXymWg6Y7IvqdytB0XTRyyOqLi89kyTcI0IBu+qaUoXY36gYpmgRjIo9rrW+S83zNc12cmneXlBMjHvkPO8r5beFNe5pkhgNq394F8XsijrdVR1P7KlSiAFM99NcsnuJc4eznxEfKX6/vphfDgGrOYIzKwofnO3ldR27tObJfbcIHOGu4NcGxK7E1sOsmMUqtLzcHKlMqx4jjwn/pOcFdcflw+Sbxsd7vzF43r5/YThhydP3/Ex78=);lineShape=1;" parent="1" vertex="1">
                    <mxGeometry x="322.19194200394486" y="297.79486156385565" width="70.71213681942004" height="6.740780061087662" as="geometry"/>
                </mxCell>
                <mxCell id="8" value="" style="shape=stencil(rVfZctswDPwavWJAgIf4nKb/kZk4taeunXGcHn9fqKpUk4g3zkzfFAZr4lgswEHvXrYPz5tB+OV8On7d/Ng9nreDfhpEdoft5rQ729eg94PePR1Pmy+n4+vhcf77+WGynL6+Hb9Pv/BzxgnlMoGEf80HTMx/Dj7P5vvd4cK8UsmNuVAC5iFSGhv7QDECe/t97dwZx+v2kkilsVfiet1eA3Fo7DPFDOxz709gEuBQFJI2n5YCVgAopN0NdgJcSoFKm1LLkYIbUnI1UwoghiykqQVYlkCV80ihuyHBGIpSld6lGgCgLjRYAbJU5m2ernW9AKCga6FUW0AkEQAYKXNLPaYAYqiVtL1BKwnIUnVBJ6YMYgi8Nu9KbyVB7Wz91pa6JIqggQzQlXrMsCEsTdJGXSNFVLmypH0FVNjTVmouPaAUAIhUOwDmtwG4dWm0WgIZq9rLkhFYETeEapvWbCqA0uoAKVJBWXIumVSNiH0uaDUACtql1VQA1sEK55o6oiw5arwj9558UhbC30hvTVCYfANFGxloIvoeTSNV3HKdDJRA6UNCMxpbUMs5KTN6MaqcE0s7qbjUnRxf5OE/IfyMsEQgpSnrzFkBNshAJaY51+Upk4KwbZJyG8TUhiAGm9XS0mlMC4WvbQN/hWgF8LKBvL1v5F44TPEV3BAD1faGwsvJtZ0pthuNaRmDprO52S1ZNrUScMl0JXQAhlPLr5XWcwFkye+tqVBGPdfvWClTAjG7tTtVmCNZlsjLAFDEFFulNGZlELCt2W1DG7Ey2H64707jFSI2O12tUPScSKouw+I2e+NIBdPN+RNw/l28QeAgcfksS0FuK5fC6e/YwHCUf/CN9665ffx7Tj7t9vv5NXr5//75aUfz01XvfwM=);lineShape=1;" vertex="1" parent="1">
                    <mxGeometry x="841.2571672981471" y="32.85174461634301" width="27.802185180354172" height="2.5344244213133607" as="geometry"/>
                </mxCell>
                <mxCell id="9" value="" style="shape=stencil(lVbbUuswDPyavO7Ykq/PHPgPZig0Q0/LlHL7exwyhlptlfotTbTVWtqVNfDN6/r+ZTWQeT3sd8+rj/HhsB7430A0bter/XgoTwPfDnzzuNuvnva7t+3D/Pvlfoqcnv7v3qd/+JxxOSHYCUXma34TYePPi7s5fjNuj+MZ0TXx5JE0gIdvARxBWQEUAtwAXIJLKiCnBhAMAl0GWGNgTIPIBK+n4DZFdsj+MiBlJJEhwigZYoIJLSAh8mVAYHBsAbm25izA/Za9Ao7qcBbBFi7LFFonbERgeQhSOJVWi0MHOKskqNo8aoNVCBl55GwRlXhXdVPjSx9dUPgUN7RtThFOcQMF+JZRCjCKVp1FFpQ8SFGeT7CmBxAZjnsolc9sew5dRoBwz0JZJyW3GRb6VmSWhPB0YRS/p3YqLSgvEfjEn5q0Q4IXE0A3jyeETn8GObsXRkDxTz7xpzZkrIEVBtLHGJ0w0udk7yDujaeq5CuvBqp32ZV3j6s6vvJyC6A2fuH2tOC2/vrtXOi35fdwmkaRBfuKvzTtxHikauzzbEiytyBFbUyIbfUNnDYbi8ediNf84kutQ0d8iNXh1/GJUapfP+80SHNHPcvuZcQqpfareJVat+hy6N4FF+PLw9/i+ThuNvPeevxdLqrl1bzk8u03);lineShape=1;" vertex="1" parent="1">
                    <mxGeometry x="345.1908319357208" y="317.61907213884797" width="1.6184581988709397" height="10.892774694721766" as="geometry"/>
                </mxCell>
                <mxCell id="10" value="" style="shape=stencil(lVfLctswDPwaXTEkQRDkOU3/IzNxak1dO+O4r78vVFWqQVubyU2WsSKAxS7JgR/e9k+vuyGFt8v59HX3c3y+7Af+NKQ0Hve783ixp4EfB354OZ13X86n78fn+ffr0xQ5PX07/Zi+8GvGMeU8gVL4Pb+QRiX9ffN5jj+Mx6v4GCiLB0RKEQAKSXSAXCgCQMpUO0CgUrYBzH1KLJR0G5ATxeAAqVGr2wAJpOoBTMrbgBIpVAeIQgEBCqnnIUaStg3QtJS4ACpVwFvLxMnFBwoBxJe+gkAN5NOUio+3BQEHrVLzpDVSQEGzv328DVbJaFDXAlfSMiWBSxTfUo7LKG7V0E0qVxJEglJuvkm8tO0+QKiWXjwKtGA0d7RlWxMMXkvEvq9ZqKCiA1U/qTkuCr8LqMacnzyTpwDmDNDLsxJjQPApJewYBpBumJgYqSGQ+LbqsuRWV/+pfc0IDwb3PQqUULz0phqIsTqjz5+x+m2Otav3HXVKZ1+mNdSg1XDXBkUqqIJG1VNmhsFYzbHbFQpWglLzNU/7BLIw+54nzaQDPTLfeKSJE7X1o4BS+11BKixarGivNduJApCOJaDewjRDAJs4O0CFbWUbZe95NeEDQ1w2ghUg0FVN7J1fmL4zkIO1xHfVhgvJM1Pz6r/ajO7XvKjragEBFaRFK2u8wsmLvb2YgTAoIPQFtAjPO7eU6aKNjfiOAKO4ADHfbOWq0C3MPX3+dlyqMH/18SYkZC6Rsq+3ZOjvtsl6fu2AKOD7Hz2Vvx9vD/+vAC/j4TDfIK7/768M9mq+bvDjHw==);lineShape=1;" vertex="1" parent="1">
                    <mxGeometry x="334.72346283357433" y="323.00730686549434" width="18.436298295404413" height="4.271852577662003" as="geometry"/>
                </mxCell>
                <mxCell id="11" value="" style="shape=stencil(lVfLctswDPwaXTEEQYLkOU3/IzNxak9dO+O4bfL3herKFSFlE9/0wJIEsAuAg9y9bB+eN0MML+fT8fvm9+7xvB3kyxDj7rDdnHZnexrkfpC7p+Np8+10/Hl4vLw/P4yW49OP469xhdcLToRiHlExvP37QkH/fvh6sd/vDnP7SMydPScKDAD2WzpAZOICAEocekDDOzTS1LtQKKT3AUlIWwdImXIEgDqtNwFyIm7vA+x3rB1A4/RlFaBMyQEatQwAjaR0gKKUwZFKodwnutqRQJRaI+6dbpkU5IFDoNBnrukU6fUtKjXtAYUKYJ+t589UqYAzNaYae0CjBOJadfo9A1TgQw1TUGaAhhKRqAUPKCARIxMWOyAFqUWp+iiJAIBptPk8CAirClWXOKUIFKRXgc3IxEgQlarzIUEFFVnkQaa6sA5oFIMHIKdrplAWAOB0M2osdoB6yFMQZ04L0kOltNBoBNQYuel2UOxDWySuUEKKKxQdNeyQaAcLoiOfZQawtdbpxHMBAWpYoct94malap0bSmVZBUBci9Vv9QABqda1MCnWaF5oVAE3bgak5HtQxXS1Nus0ak2mgOIqPCX2CgiwuMbkq7FVngDywNape4C1YtRROHofklJAZPLjjEUho2FjZZoRQL3oS7GNS4hI7DviB/PYokfjeS94TkRYLtj3NoakTr5RMQWwevHmAY5tHKiIs0c9xyKn0dmjKsFXxX7O3mKX/froPFF9w8H+jnNyuSGcJkfJw+ezZbN/6dfHZLj5bvGhvT38v8g87fb7yz1o/t9ffOzT5dIk938A);lineShape=1;" vertex="1" parent="1">
                    <mxGeometry x="342.93303359141714" y="315.3378566857406" width="4.012212827542271" height="21.619771740448982" as="geometry"/>
                </mxCell>
                <mxCell id="12" value="" style="shape=stencil(rVrbbh03DPwavwqSqOtzmv5HgDiN0TQOnKSXvy9VQ/LRcHfWBvrmnJC7K16GQ1J38u775w/f7u+i//7j6fH3+78ePv74fCe/3MX48PXz/dPDD/3rTt7fybtPj0/3vz09/vz68fnf3z4MyfHXH49/jif8/awnLuehFP0/zz9E5/t/P/z6LP7l4esmHmUTLy5lJu7jJt5dbufi0bWwiYfoemLy8PGhuEy+PrpY98N6l8u5fHC97fLJ1cDkS9/l2zzRiXzav18i/f7gYtnli4ueyYfd/NJdos/3u/1TdKWey/vpnSWfXSHfo/L796Q2PfI6+ay/vOX5WcNbqPxuz1xc4PaB51/5N0C2BCf0+eJ3eXGV+hfypVRXaX7l/fl1WeAkfWXPlyoukPMml/Z8qfoLyd/s4h4/VX8hzy/zf5d8mXh0KF9d2u1fK43/jv6tzXXmXzXfnvBNAYUpiEv7G1p0iSFQwZBoaYLMsUJ3ZT9zK66xmFBIhzN0mgRq1QigrrhE3iAa1jvMdZmJcayQXd7jrieKKwprDRQyTYSUJm4uhUIrgQIVpE6vM1iOQ1trmVEQ8oZcESxUgcWSYglk21AgaFrUJh0VmFkVHbz5pEI+SdM9hDcpVETgoUDM2sK0yWsVVsV+rUI98HQisaTp0s0bAiFF3dAKDb5KYLKvKnCjEBmOZeOH7Bo59HheRIXIFDT6IaeTE66AZxD+hoZg35WaMis19LR6phGYUQVAjVavPgkc14TW86Gwh3dVbCUpOj4JKlZyjR+6QEn0swCcKcjuaeUMwj5JU3S3kuII9UNF9FYWE1k+FEwghTYGZKogu1mL529Q5LPEjYCxBjMyyUqZtgYzMIGcJ1k/VoizKi8F3ut001woGaaO8zM2F9uutLtoDc+gZbISszbDr5IyUvaGjCAgKwePFRT59lhSbtDZJ4VZ0ZaCUEo5EnL3tHja8wzKuQdfXNzgWEGwiiqPZRWo9EkJl4LiOQkNTUgoWUrqGNxrfgVoVDUciVnzYkc3CpT+hGnEpaB0hVgpFXRcXOT6WCEYK6njGA0tSENVIZEzDN7aUIGht/q1mU9iqBENSVQFIZ5Wdg/ofXHooOki6AfPOpQwn3fjadajq0I2scTAOBgKpwqBdblhNpE3Z2DRGgIinypk4umhYKKVUbhwFBqV9XEBG78RfNwPyQYfKezDrHvwabAwqByezqjA0FsVanrjG4DNjDOw8F7l45UpqgoY3n5WjFMFE0sXngYmMGKJ+6GZWGJcYygACFzmQzUJdJFxJRqFi5wW80kX4V3w0BehkTwqFB4aNkUvzoAK/iq88ZP8FWrYChS5Qk6o4LmnwXEj4/5XhYzhHRrtH0YFCqggb6pxodKho62iqsCmrGLgPvAxqGUCegZPDj24Rn3LoVMxfmh0EJINu1dDszqdC5bdl8nfGeeLtgKRFB2sEvhSoGCsvNUW9srGs4JjiphoAlXT+GmwMKhUdm/JOkMN7R+w4fA0+LRDgZmArJXaWQ8EFUj4Dk27LAiNscUhh259jmNXW6boTfJBO8ViGj8GlWMSA41fpWd4mfUshU7H2GOatPtBM4StDrXFh9DIwqdwBUfAOV1NHYBr5Mw7djNJzJfzJSC6ufMxhZkvlUjH2L2byUnmfujYx5ULx5lR/BgK80/qO8xollM/dBxTVA6Vwa8qu+Z2nMONV+xmGmnOXN0RNlqjYwfrCM0ptlpTVwMl0xRhTdCY24HCqvVnCjAU6IVHX8HN0Yh4nqMBhsbtaqpWBRUKn6rBBlsNzcw6hveCCiw0DtYDPEftAuImHs9qUH6bhl2jXGqYTc2lhl0GdTqgOVg39VkrzxgKsKyXPDzmQHZlxtlujgefxNr21Oa++EYhMaaY5oToJmI7QTPp2CNf5MRYjpqlHJvHKz3GNM38Fk6dTfpSEGqlsUKGnAj8nkzHRqj1qzU4YJPmobD+UszefF02OCkS2HUo5FNaZpZHij1sbox3j5qnHXLBuwgqHwh8Z3N34SJS0We10SWkoMsG6NC7VrDfUHlmn4hRWtfS5thhMyRveAbr4QJOTiv3l8fCoMSH3aPwuIgrnBJ7w8Q45/aTwt9QPdb6KFwDH+5X8rt9cqH3FQynUr7N7tbY5/PGyuOCWbGY+wsKWsp0WO9xvZyu7An+GqsrGg95P68CN7tG4HG4KoGCrrl6pAhDJ26mExY+lsQyEzrdiwUsrSHTeURE/wa+3o/Y1LY5vj4RB/Pzm4mGGAR+BwqLtqf7tohjbU83hhHZHN9uC1pSU4dNv7C6c95nbvx62mwJwiyvWoIzV09vkQgyRE832oJBsED9TBxCcs46z8SBdNPLmm++aX0hrn+8XOr+9PDly/Od8Nv/x0vg+tPzBXJ5/y8=);lineShape=1;" vertex="1" parent="1">
                    <mxGeometry x="946.7921236703728" y="247.31116630200393" width="176.86552639432466" height="41.98902409511436" as="geometry"/>
                </mxCell>
                <mxCell id="13" value="" style="shape=stencil(lVrLchw3DPyavaL4Bnl2nP9wleVIFUVyyXIS/73BbDi7bM70lG8rLTAkQaDR6NlL/PDt8dPXh0tw397fXv98+Ofp8/vjJf52CeHp5fHh7endPl3ix0v88OX17eGPt9fvL5+vf3/91C37p79e/+5P+PfqF1Ri617B/fj/PxLjf//4/Wr//PRyb5+l+ck+SSjEPkpLk32R2oi9LR8m+yY+EHsn0U323o8d7jp4lRZnhzwese9gX+fZoYlT4hBE5xBZEEIiDm4ccXPQ8YhdB8UFYpBAgpol19neLoE8P0qdT5y8+EwuQZLO9lkSC6mkMts3ySSiTur8/Bwlk4A6KfMV5y3Lj+zn+BQvrrL9u/m+SpJMisBLAfsqjhWZ5Dmn1Usm9lF0vi/N4mk+pHk/WqWQ/SvGswYeH4cHqFZErGSSuDkjapXEVrCvZ1hpnqacxajMW2qGTAyILCXnImuFlr3VlJuRtCmF0hSx7M2hkmvIbhzxziGRLVnal/UMJKyWxyVhlJSsYIkZYEtWrASvVcXPK1SlqWGpFuczVLtKcnG1SJnRojpxBC1sx2HekhZabhYTB/UWJRF8bFnCXEDqaJNqGz7fIQZLDUuENhdQUdpzWsUeUjJfwfowgKS1Cb4ChNVQVUlq2Bn8vKXceJTy6Hp3OJ/YGcJI5s0hDejfz6WtL20OfmDhvkNGKE513P2+g8czpDSgbb+Ayki1zcEoEANvL3Hp/p44lCJhPnS0iyMVZ/cKJXrCX7LVF5DOSFlhDlhA1rMTyaUe9XlLxvsiKVGLOvRo60kMZowSxTlKxvtY8kVrWfOhrU0WsqWYkfa0cTH79hsp2oCPsoC4kYoNlSgS2/J1ti/SWMutSDMKZXmdpgItEc9HkeTRnrHUBS50sI4je99g/wzwuv1yXr5/B4hK63K1z7Q39/0AnnKKlBHhMyULPZ6zfRpzw5E9jJpJlMcz46ip/PlQwomPmhlbYB7c5NBeMZ48/tWB/Ul8FPMtnNjjaF0I6vb4AEfg9ZvHUHNXLzye0Jn0LJ8j4o/n+wlYX43Xl1/iw+Pplvjz8zrMh5N4esyHTHpYty9g73m+AeFKlD6FRdiw+jq5r1+yr8uYT5lN7y8LPrCG6nG6yZTyWn8s2L/oQGfXOd8v7y/W4GE/laoUxiBgSvacyaUtHneUIzOOUhfpKlNIMZ4FXNEG7Uhy1JgcYFAwrsgmTI9aUa8CRi4LTvqWJ6yMu1YyO8QkjtSlFrw3u0lWaHXVr8IYg4+mAtAcUx6y6NHcAa0mce7XR1KohUDnjpaRgmeOFjep4W7YYofuEyas0IZudjRhwj10GY5Juc6Ni72bST3Jvp0lClW+zMEBZlS6p7YMHqXxQVwXMcFRmmA3BwWhgfZBy42wyINMXGs2W0FjrkNBPpJc6tyZaxjc80jUgTP0wZmsoIpnsBJh5KsLUzOS2fDPSq4kZIONt/Murs1b6nfPsNLhvHJLx0OBEBuEo1DWNciCS1CO2hYddUvgIx11lUXZVfcGAg7bI/Yd4gj7naTI5kbrmjDXVaXigGJXrGnU4IFcDnNXdfQEEU+sJ4MjolgvaHbgBZMaJSYOlYrCiZJbXm942g8XFDZW0Ph+wJ7TGIfaZqp0/wHjY4XENOmI7Ty2AYAH+RAWgsFeJSyvWCMXrxad5TYZ7udDQLwOG/rtOyyTjlf+QkdRU7cqpbPRJrnftKvKcCggcCktyf46B7WHEy0EwJq/wepUf64Bd2YPbd9RmtDtG9qz2VGRmDuuXSnmtKNkzewznpe9Me32CvaFpHRY3kQ5rs3oIsdSYrc+3/O+p/hK3HNtSVEr9fzt4cKWA9Vif/lnGKf29uH2m48vT8/P15+M3H+PvxGxf11/XxI//gQ=);lineShape=1;" vertex="1" parent="1">
                    <mxGeometry x="1201.8130733838457" y="245.83697955718128" width="156.24417299668676" height="46.77922659220053" as="geometry"/>
                </mxCell>
                <mxCell id="14" value="" style="shape=stencil(lVrZchs3EPwavqIwOAfPjvMfrrIcsaJILlnO8fcZhMFq0eD2lt4oqmcJzNHTM+Qlfvrx+OX7wyX4H2+vL78//HX9+vZ4ib9cQrg+Pz68Xt/s1SV+vsRP315eH357ffn5/PX29/cvHdlf/fHyZ3/C3zc78U5itwr+n9s7wUn7741fb/in6/MOr67VCR5dzQzu0wQvLodjeHVJJ7g69cfw4jRPcBFXyOOLC2XG53G+u/jscpvxzYXK8F5mXyYn5DzJxfn5obksx3jz9Xz+mF0gz48uzOdJ4qQc48Pw9oavzpNkCC7N0c3R+cjwMj8/W3yJP2X8d8se8xi5r0V/Tp/SXCL5IxjfGkd6H+Fn/1el8bXzzHi1d0h87b6zPzW5QvLT/Al4ixc5/xadgW+e+jMNKtjwgdaL1dcc3xbHCQ/KvWbEVxKv5hqcP7lE2EcsocNskF1kBsWVOeNacUIi1lNC0UCZQcUcapUeKSYsMjOoLGgWo+UTlFRx9oPU9gaEJqxqc0QDRuulLJcurpFLv9fhzoAxr3rsHBbpTFJPM3Kd5dL/7HE/9zySlyWrMoPo4mLgWXbnkcybgbhGcqmnGqS3d5UZbJmzIwyWrd0AGCzTSLelpDW4yD9h5dRIeogZyPwJliyZ5JJ5qYAGUSpxLA5tpr0SXGCRzoMjtr5WxiHvG6SlMbezXEKDOGJ/3yCMxr1JBR20cJTebc7WGGjv0TaoehMvlSaf6kiEzcBuRSKtq7xrQ8Ad1XSaecn0HesnajQzp4Z1DHqHgNlq+tkzA8FLV8oyXVDMPBbGG0d4PxOlUMVcFZuDDA16eB7EMw7rxTvHzJ/dtwjgE1MMNn8EwDMFUy1j8DyRPb9hgLfGcoRXPH8lOW34puhP3teWeKUTPJQAVdj9PFDFLnD/FMxP1mbrJsDf8ZXjPT6f8ZzlAzSoMN44wifEZ56fIaF/eL0A78rQrId44Dg+ICu2Ghnz++H5Z36w/OT3zVhfbCI1vCKeqVmLL4wsp/Wblnrk+BoBz7pYXUYKz4XpB/HWMHCE5fWbcIWgo0CPWl6c/S9CCVcXzShpTJ1HbRuXJkqHri4M5iv3GmOKTnBstCbJxkYTN9DnTauwKjD5VMCgjtH/SKDVuYxNbyUmYzO61RQdFcoFiStnWpldWc9eKkKXFU3HiTeDyseJhrlnypoNXW1plif7kLZUj9UH+wTxfsiN3QBCx7SGc50lMA11Q8buUphdouKWxvKxMGldcAnaJ0d2pIgTi+UjNfBjZNpNv0wGGguAW/uUxHSsH4vV3cifWCNMi1uVqv1ScFlmBo0tZxW3dz0fCTHd2XM0GukUMHC7fDxa1kRdPoIY9I13QgO68hPcGZtBIJeQshgonXFsBIoVDYTRwJ31USb4cme3wzRqRkl4spOz6oE1Sh7T89FWF2ohUIrxyHrW8djM4rGBaqUbDo8Sz0QB08weJWTfMhN/LpTaWZvk6DJS9O3cR85fGl0B+aGod1t+ltGbIt06p574B1pzDpRNBUfeVChNyJiANryn/llYxViDEZ1lI8gjXvFx9ODdnoUt+eKo1p3AU8KjaRlJE50BE26LxdPnZxwR6gk9wASe+USBA6lw+YtfCPjBjgdwRThb3zTcKXu+pBu7ix2cfl0CDdLgTNg4xdGG0WzffOFpuJbDHaanCkL8elv2VbNsk+FutXKCx1VJJM7v58HRnsk+WXhN6Kj40W/iz/H24v1r/2/Xp6fbrwb2/8efCdhbt58YxM//Ag==);lineShape=1;" vertex="1" parent="1">
                    <mxGeometry x="1434.3113972331084" y="248.13283460671198" width="64.75801246658648" height="52.06606415267561" as="geometry"/>
                </mxCell>
                <mxCell id="15" value="" style="shape=stencil(pVrZchw3DPwavbJ4guSz4/yHqyxHqiiWS5Zz/H3ASJwdNnZ6vJW3tcwekjgbAO/Sh+8Pn77d30X//fXl+ff7vx4/vz7cpV/uYnz8+nD/8viqv+7Sx7v04cvzy/1vL88/vn5++/e3T2Pl+PXH85/jC3+/4UJ1NQxU9P+8/yW7lP/7y69vgKfHrxwgLngO8CugucYB0hdADM4nDpAVkFwTDljvEKuLgQJKXQBJj8TvUOIKKC5wsWbYobvcKSCtUsrJdb5DXHfIzeVGAe8nnoCSXOBSelfTBlDdVwIQ19Y7SHSZiVVcXcUqumekgLLeoQaX2R3EpbICiitMD2r96x1qd4Xv4FdAS84zxcm84gbQPZk/FNdhh+Yq8wdBxXXvOgeE1ZZ6dMJsSaZeN0DmDiQYNRTQuT+Ax/XtkNcBbbr8DiAM0F0EKamHlGNA9K4WBDBbitG1tgKa88SWYpmRdAfIxB9id5IRwEwjZaO45jqRkoatDnroVNNZrdVcmkXvEl2qCCjkSKXNKLQDBCIlyehAQ3FE09VjUlRb6mSHahUnMzxfBTRvPK7MPa8DkrGl4iIRa6sYZobHEcW1Pt1lBxASyHowppFn1rsO0DskAyBH0itmQUBiO8i0/j2A7aAZrSEgELEO24Q7JCrWi7vsAFRK3fhDoGFmANY7DFUSW1JAXI+kGUiIeQ8PXiNfi1MMR4C0OlDljKwbCqc+2NiRBIOxJEp/hn+tgFJoYldDgCCQ9Q7sSMnJukNq3DQiRu/E87QaAhxJmXFlevDoohfqewSI6x1CpNY6TA3IiSs8ykDWLTQUK9Vp65UT/74mzPX7kYfJhlwpTC1eXy/oCsFF4pzNZIbgAjHTlpGwBprb1BGhbtBKhnxf2Ww164l8qkyv2q1nqVPNJeN6kkRko1C79cSitaLwt9xXnbxDfUsDUe5IIwOt23LEekGzIjm/1o1w/kijkLoTfD/RhKbb11X+eXr0Ya2w2meZofv6+k39W9ylDFWwSq2UU6gwIJXRCOqn722p0jUSrPyM37vlxHY8Fsx98peD5R7y9sw4R8uBSNAc7A2NoHH5yvLEv46HYcWWnz53Wc6CghFko2nOqKlR8u2nQ+yWUzUBvWq0EPWYT/p04KPlaASMM/gZXHZqohaZUe6MhnmMxZ1WxB5TSZ/k+Gi58SZqBNF4E3c+uenr/raz+9sk48NNcrfOx7+OguQ241Ey3CKD8Sa+HPkc96ablsdJ3i7poBOtChYqMtnm9eTksdAvNEiOztqazDb2dZhc1/MkSv5G8oZONm3GD3KwRo9AyfEgH+t6T5s52RR+fnbZfpI8bU58SM4arGezBEv+PCWLllyerDfk1VNyacmxp+1oS7497e8Nci+4nhUzZdbAP7lerL7YfZvpfvhZnR0WV/h9FmVH8YbkuBJ9jeJwlU+iHVlbfBbadesmqTRqz7oe5hNaDTMBaYEO7dUx12GAOKvBXUXP6o2eMJyn7ZBHbYywEpjUaK7rBUN6ltnSPWrFQGYvJ2qo2GSQRIuUS3931x0S1llp2GmslXrm6KFBHuOhWgHQhG7C+08d++LDetnIxFsaEc5ajVD7qbXQNl03nCzznljDNt1oKrMdKrZvhnkxcxXT3Od97is94sJdLrmWDYB33boBZBYmuxl2Farq0asvCGAzk5Yw0A8nZJnKY+Y/mY6NiYaZjrHQN2YmGQGM4EsxpLpxNtIwO6v9MnoxJksNAZRPmUmrAhojbGY6tvPa64hsiqxOo2vsxuU2lnIdUMwMpNPINMaU6Ra5atbHSVGjbeiwfW8HOHmV0mGHOi3+CBDMbJZR8/GSAHYQ/kDDzsjLfIxwVFzgxC7TwKQAFGukM5Cwtc53CYJO4QuWX+MlAb8DTLua0GIzbIFul0eZeSsAYqWScBZch1iho1joRGB0OFd/qIHrwfAZEVqljtcQq4tqIcTqSPuMZbysYZoWHC2VRDtu473Fany5cbHKpBYbIHGPE3TRxDuSwQykE6cCAwDVAC9vRxAw78DYsMU+iYqJxvsBWC99/pYNKo7z13IQyM7f4yHg9MUfHimfvZaDGkUBbOYSKjZwQzpTHEwJFNBOXsslA+B6wDFZoll0POCTGwHl1iPh5Ov00jAuPhcrJJRzxeHbzlPT+N/PTRGgPy6vW788Pj29PY7d/z++htU/vb2kTR//BQ==);lineShape=1;" vertex="1" parent="1">
                    <mxGeometry x="938.9897251136576" y="348.239333801434" width="205.4755893749466" height="104.3592918505326" as="geometry"/>
                </mxCell>
                <mxCell id="16" value="" style="shape=stencil(lVlLblsxDDyNt4Qk6rtO03sEiNMYTePAcX+3L1VDzyGf3hjZue5QocjhkJR3fPf+/PC23wX3fj4dv+9/Hx7Pzzv+sgvh8Pq8Px3O8mnH9zu+ezqe9t9Ox5+vj5d/vz10ZP/04/irn/DnYucbce1Wwf29fNMo8v8vvl7wL4fXj/hI2Sm895Q8MAjkgzZgKnXboFHVDvlMKW7jCzVzfqPmtvGZOCp8YIhP5FnjK+W8jY/kvcKzfAPuy5SaxksEAsJnfd+YKEJ/gsYnDzOciLU/SSJcUPy9xucICdGoaH+KowryK3RxmnElQ4d8oaAzXANF4FEINkS1DNLODSQiOsfNUwA56BTQd2i4COISk8VAeJiAwaoMxCCASyc5r2gDYQqqGwlisZduIHFZlMSEVSoHME/y6jSVahzFOjWoK20pbbB3blCIszaIMKxyxaQNcoUuSRCrlguJG6NyyKPal3pLsP5boWQEoA0ntwy8vkMUzQEFJMwpRsLKUP25Aa80D9dDbRS0yHeZBfUgRAj6Dn7RkTmX6ij5xSANHZkbCJlN3/GDv3N6i+watsI0JLmzrh/pa4B6KVDW+AR1OwaqWmMi5JHgIxt8BqwQvKlOyQmoteithPGg1RY+m0YIE9bxSXNoyPgWvmh/PO6bQgh9vmgy8l/+vMUzjr+ZpBw5oCyCNwQVPDqfia0/AXUQHmPNFV9Q/Hk1qBEjfkbbx4VQqAXKWNYMvmL/q/Z/maw272t0FPa/Hk9bXxnnt9n6usGflAy+oPuG4e4VHxF/vB1aeDi4WS/B4CF/JvUYUX79oNeVPzf0oRaDdzieXte7w/W+uHvFe3x+tfUC9eqT+DTBIz5If8ls4lOBnkv/MnqyFPS8Qa70Kg9BnePbaA+LP5IAcOGaJi07oFlrNSR3SqDRaZmhF4MCOdeq1XROY92ZGzRLUpENpOreOSuLycG8iU92YKxwUJEJ0wy9OeFbBzvDSu49cEnmejtW1yGWW4N702GqPLr/1mpQjEGlAgxk+WhmgWI4YcqYbsIqcUP9Q8Z01lGSzEBBXW2NH5K/tQVms2e2UbTzPVOiGK1PGdCvb+/O3toBlZQKM8tEW/rKnODJFmlfrpGBtw8u1Y83qo0HCNbUkJ0O7aXR5i0vu/P8ylY0shuT/xTvbF/rSg78XwlATDfOd2aurlBXxR99X1nO0IOat7XZdzMQn9UcJasZfHlYzeERDo7VzjnSR+CLo7ONs8BC9rwSVAroCbTaBTzAwULwzQ5GjPDNEvrG+bIJZ4MvqITdaluHg13fY+xihh5MBZ/soogeTAVvFr9ECZ9f7CDCoDv1880DIuRnWMaUKx69N/Z4aj5UuBj0fJmHNFhfn36iv4mXD9ffA54OLy+XnxM+/r/9/UC+uvz2wPf/AA==);lineShape=1;" vertex="1" parent="1">
                    <mxGeometry x="1005.5967478704824" y="423.50965642736423" width="44.34246826633034" height="21.702762348849774" as="geometry"/>
                </mxCell>
                <mxCell id="17" value="" style="shape=stencil(lVnbUhsxDP2avGps+f5M2/9gBiiZUsIAvf19tU1t4rPZk8lbWI68snQkHXt34ebt8fblfqfu7f318O3+1/7u/XEXPu1U98+P96/7d/u1C5934ebh8Hr/9fXw4/nu+PfL7YJcfn0//FxW+H20i15qWKzU/fn/RGL69+DLEf+0fz7BhyyaAF+U4J24MuGzxLKN19SX6/gqmgneSZ398U4KeYG3F9TZIIoLxMCLd7NBpQZF/LxjVSkEH0UBb+s3smXJsz8h9Bxu4N284Wg5iQyfAJ+lEHyQNmcgmT8kZbkndDDCIkz22zohB75KZhkOEmdKF8s5ccjyCRmuSjNsWw5tNigSHDFoonNMm5fkSUxXLG1RMjGI2nM0DLJ4xromza8MSCUn43VGlwLLc0QiNZ7o4qXMma5ZWiUGVeLsUvWSiUGNmAejRiQu1dZL5YR8iYS1qdS5fxm7I6melrCck4WVdOBWJM6Ji6XHbcugzXuwps/CagaQOOv6mWTamKNzPQReQMYcnTdtXTOxHuBF57BaDSppAlaQOm/aNzrYrOShzfhM31DyavIESSRKxfW2NQx8j9tWAQWoOJoGq9A877nS9ZMXN2fBiMR6TJTqAc9CavjYAB9IKRhecX3GIsOD/5kmINpcmhOQaB0s+Ah4VpmGbzNJIx2ci/8N8EqmiOHDPNjMQY7PiE9svxEnOSd0TDjJA99vkoTx8cz/1On4gc9kQhke+Jl619jEQ+vtJb2Fz3O+Mud/Qv7n3ok34znHp9D6XfJ1ZT1mrPd4gW+I93x9B8qOC1+rF6xff2U9Xqp3ULI8/uY/8jOQCbD0q9mf0QC28AnrMfP+Vlf1yP2/Cr/0fxjbXXVuzReIP1cqeZTrR74K4ZvpPxBbNi9IPMsYJx/zMTFNELrAHQNYux48b1A7H4eBMY5JLe0BP1EdTLa3MYGGrom0JltF9WebZqRrDQWpiTnPTkPO4ViNQ9RuvcIDLxotzDb6yCBGprcIphfhTJ1H7Z03cCgwjVyZGNS00h61d6fz5Gv9LDPEVuJ6USXAgcv1eXK+fBLmwcLA9IrVJxxLjS3KBN3qDHiS/K1jJoxwS34jm7CDbFD0KbDbjdoLZhiknvzzBuaSw7gW8gafseaWzJG4WpeA+wHjBm1kONeMfIytq7mQA218inMqpa4Mz+Id6pDIG+uqAYTWubuBh7kQfH+y4T/QbhFqbJBgf7GuGljCHJaa513V2rpf3SIyj2zLIMVz1xpb15q6kvrsWrP1G6sRInp0ChknlaO3DtHj+hfr3gXEMymouF/Hpfiqrzh6P7ZcdznAs269TDCgEJd2K4p6mt8FP/uvEvl+K+a38XgWlJqRSUftSujkqMj4oF3JnRzNmLRetcQLUvnKzwyX8fbj45vGw/7p6fhJ5PT/+A3EHh2/n4TPfwE=);lineShape=1;" vertex="1" parent="1">
                    <mxGeometry x="1067.0262518337786" y="422.6245389655487" width="51.13816396090033" height="25.8774589481402" as="geometry"/>
                </mxCell>
                <mxCell id="18" value="" style="shape=stencil(lVjZctswDPwavWJIgudzmv5HZuLUnrp2xnGvvy9YVYoB2uvmTZZ3SRBYHNTED2/bp9fNFNzb+XT8uvm5ez5vJ/40hbA7bDen3VmeJn6c+OHleNp8OR2/H57n369PHdmfvh1/9BV+zTxP7DopuN/zixwo8t83n2f8fne4wDO1oPApUay38ZmKxkfBp9v4RlwUnhM5fxvvA3FThBCJwQF8pqQtkjfeAUIjz5qwOuEqIQTyZge/GHmdkCjpM1SqBeAb5ajwBRrE4hGNz9TAiblRyTrIlIE9EtKm148UgD0pUK46ZosDrmvIkfcK76iC9XOhEg3eg/VLWiT/jkeaq2xFLXjgzxbIDetHgK/UmrUfrS9JY/2TQU4KPjvjf84QX7X9kRrQg+Cb1k+lAM7r3eq/i4ypIAJ9B5OTCWZ9GyTtK0W8Q9I+FacWFLRGwRAk7MhLkuTVEgImJH2GXr3RGcTtWkdSywJIBCE4Q8gUQaa1YpUqtdF9iNDwBoNFGabmeGQmj9rN4FO/VPv/DJqkJk6dYFPzTqoZ2XnKKGKDriP2/5A4BTe/K6kpxeVOahqPRlh9x+riCx4RxvIlRmKnmvooXi1YFUalvUJiWXyQMLQEIaBDjz1HCBns0JtatIQGvNS7pikvTAmNdiJ9PauJ+FDVlr7/z+srocAiHPMi5jWbcSeXyaXqHZjhKCKjUTTzZl6Gq1uzl9khOkyQ4cgQEiYEO6AmDw8tRT3qmiQzeUWEYsWX1rJ2ncBWS1l2AFryzk54JcI6Way6Re9oxItWST2hwPph6QIrvsFrjtQHU5McnvG8LTF9A2CQs/co6YwVqMItqbjiEwVQL5y91zU8Ua0T5hqAAkvk0BYkYGi0GPClwsY22CMCCiBgzvb94mDjF3/qvM9yUwXxlXjp+GZptChlPnivvo+Xh/dL/Mtuv5+/AVz+by/98mr+YMCPfwA=);lineShape=1;" vertex="1" parent="1">
                    <mxGeometry x="906.7311051309107" y="334.6864761321075" width="50.38729450219989" height="4.588516084219236" as="geometry"/>
                </mxCell>
                <mxCell id="19" value="" style="shape=stencil(lVfZbttADPwavRLce/mcpv8RIE5t1LUDx+nx96UqrGPS1Rh5k9cc8ZjhkprSw9v26XUzRX47n47fN792z+ftlL5MMe4O281pd9anKT1O6eHleNp8Ox3fD8/L79en2XJ++nH8Ob/h94ILVPoMivxnOWCK4d/B18V8vztcmVcqyZh3in3dPCRqYuxDpVTXATFSsQA9EQQQCsUCGjUQUmoUggEkDbKsA3KhWi1AYI1KHn8PQM6UGyiqJs0WIFTTOqApSTakojkAD61Rsh5KpwzK2hOVaAA1UwJl7ULZ8lAFehAlznpQnwx4kMv7LoBMASStgGZD6vWeB3Hq1ioJkDczsa2rBIqAudmFjUkSCajrnESzgArFpAAnJtEkcEjB1lVPagaAPhrs0tQfdVhD5OBdZMREJ+4+CUZqatQtdVJwXRvV7onIoKtngGOOYZMqoGWrpjb0tQZw2uhl3IZrVYoOkKgjbXSqlocecUidRDwAehBKNyE1VFbxt6smnXCT9u7LCnkQn4MSl5BaZSjnShqMe7RbplV8FRGnSbseVf3ipKMLSQt9h7ibjoP90P1kn28e7OFzAJ0QwRFXKYIqqXKimxB6uQLidMqxZboVOLR0jnoAj6Zdm9RujtYKxae7ALs5qhsX8KDbhptyBW9Mqfp+KAFexvFGGuoTlVU3MNfTmcc9srb1ZSuNlOFUrH6K6gniTRO07w+XnP5rz0OYV/YB1JTHhL3aWgVUiP09HArM90Z24SL1NXvLWMAU32wlHV5Ham7T1Q0DSJSHWi5yoARGAvvZH8flt2Lu5gFeqNjPTIbTI/jFGS8un/w6umuuDx8fYi+7/X75jrv+33+46dHy0Zce/wI=);lineShape=1;" vertex="1" parent="1">
                    <mxGeometry x="921.4363333772103" y="522.6342402564876" width="43.288633290574126" height="5.919875765116785" as="geometry"/>
                </mxCell>
                <mxCell id="20" value="" style="shape=stencil(lVfLbttADPwaXQnue3lO0/8IEKc26tqB4/Tx96UgSDEZa4TcZJkjLskZkjukh7f90+tuiPx2vZx/7v4cnq/7IX0bYjyc9rvL4apPQ3oc0sPL+bL7cTm/n56n369Po+X49Ov8e/zC3wnH1PMIivxvelEb5enN98n+eDjd2BeKxdpHin3dvlNjY1+EYlu3D5F6sIA8v7kPaNS6AWShCjzERGJDzpliWgekQNECUqcKcpQ0xGgBmSrwkDuxA6hPAVVoxGIAmmgUQy0kDlCgh5YpNQuIlACgB5JqAEGoMAB0n6VQqcZ1gEQSW+mQqBUAEOLg05rBkUTZaisdhQQdqVOxHmIlQUfqlLJPK6K3AqJLayMBlR4BtnCjpHAMyXpY2Lgas9PPlr0TaJh7yGrVbIthYlQ0oZScPSyy0tJJYcvedyTq2F7s+QPPDeR+B+MlwAVRtlLktKYxJ1QD8W1eiyaIdjJ3uJsGUxDtZO4Oi9YY004ofBIn9NCpJ++hgI40ErX7GBgDXAyapYT7RXTU1rxtqNlxI88dZPVItkkqe3F/yVb9Bc4Fta9eDBtidszD3NYqu9mpXAfrwpftE7FrRhFWoH/qp7nACvToxanTOgOATs7sVp4wd6j7s7n66a8rD9qRdPoHB2hwCRv3Cxt0ZRjDuME4QKJeAUBDtGquHXbtj6ExA5oOcyBOHXvdaq0JLJyOPbEeepnJsraqWimIcg+VwW9IgiNgEjeYGU82nrebxYHAXYH9YB7VDWihM8N9v27YR/YBo+1oke5NQgv8vqNEr/PYWrO351GtoqHGvlcogxgIk73MWqEM7Z1oWoTjg+evLZqRjXirPY9qLEDCfe1ut22vDx8XyZfD8TjdQ2//9xdPfTVdWtPjfw==);lineShape=1;" vertex="1" parent="1">
                    <mxGeometry x="1432.6347340190805" y="248.29675399544055" width="62.63454480160681" height="3.4678848673625" as="geometry"/>
                </mxCell>
                <mxCell id="21" value="" style="shape=stencil(lVrZbhw3EPyafSV4NMnms+P8hwHLkRBFMmTl+vs0seHssLhTYwF6kFbdXLLP6iIv6dOPxy/fHy7R/3h/e/394e+nr++Pl/TLJcanl8eHt6d3++2SPl/Sp2+vbw+/vb3++fL1+vf3L12y//bH6199hX+uetnV1JWi//f6QXP9L/v59Sr+/PQyiZdZPISxwIF8zrN8ckmYvNRZPjufmXzSWb44petHkFengcmHMsnH4KJn8n4+bxQXiLy4ButXV8h+TD5M8im4Qs5r8jLLFxeof/28vvixwpF95niQcuYvP8nn4EKj8QPy5UQewrnY/kl82m7jLL/t8EA+gXwbEXIgX2Z71ugylQf/VttPPZavLs7+rRY/xP4V87E2V+j6OuejWvyT+NThnU3ezkvldd6/iivEv83l2f5aaD0JftmQHYkkgCmAB9Q8TCxqBbDMJaV5GkIhos9MoREfmEKDb+BJH8T5uaq0OPLovoKlGXQBK9Ps0NXJHEdNaF6GhoHUtlJzVyHaoT0qsE5jqSNgJQsN8g0pulpRQck3WCkU2FJ1iSmoKxEVKqu+1fmKCiw0rFoJeNoykOVzcllRgXm657uggpAzqI6CtVcgJc9iEzBF3xKJVguEJB+xkv3bN1T4P1juK5gRl1iq7AzqKnxDHmXhvkIbsGCXQCyWTCGClTa7HSmkuZBZmQmkanQFqMWWD8wPtqU5+HqxZ8W7jQ3sulVmW9KlHYbRwI4UymzWIk65p+OcopaDrEH3DJ5DQ6y0sUNXhAwSaUPpVWhOoCS03JsCgObe5tmhDfXMZzBU61kC5RH9O1ieuQLi+EBxoSmAHziOsWxpcwPKPH1kVLnNC84zeet/DeSV7Sc6EdgPNVAYMHwLVJdI2BkIiRXsw3C8pW5F+UpCQhM6TAeyv99HGvpL6ZxjfQcGkUqrV6kDlt7s0xgu98PcN/s3ct4csbJsk9j9Vm7/ns+bxgf3wUXB80Y6R8WlWsfRs47gEVSVE0hYsH2EAfmOUG1A+Uriv+AcHumYHAcM2lmHQDWPU2NylRzWjxFlJ07O6vGoiZrSI0ZLFEt4nDDTyOQjcTwqq1Me5/VI09zEMSpZs/MIUuJw85H4EgR0dShpkY6WHiu4iZOINLCecO/U7tLQMjQIMq5e6eoZaBg6/HicctPZURXEhR8V04OVYj8a6y6bSOXzOC+c5SoQbIniZo9IPp24yePe2bBzJ/kCdZPH9FAa7x5jhtsdQdqI6CNDLulBGsjipkh53w+KR+REAi0cG/YZ4p6SUmtz8nQ3a/PbPHfYXAXkGbjpzRvXZ1NKBweAjgezcAg+0LesluW4sL4j5Y/AE0xNQvfTwdmchXmgkUPwN+9/o11/ElyWQTcdgldcX0hV6OA44H5IanUGEMElJSg8svpC998WRjBRcGbDScDOWYl/2wK+I2cCBHkrjuZseIPak/j6eXDCu+GKnTcP7HkbHhjp2+fbOZ6Dp7DIFOIc0IFHdFt4fUt5do/UKShQ4NxhZ6igSwutoaagEHSBExOKVUsa5xkUZ8p8coaGzb1YZDFypSEKq4GOxaZQF0aJlTpT0LkzaRzfeaTQ4AKhUE8Hv8CCfiHAgqktVHeiZLopIK+cKTYwhZUAZfRBjw0gD5VC0L4eXAg02mM7iVtQgd1RdLpTUIFd9a5E9M41P8t1N0os32HTG6cpVr6+UXh850agUWzR7xwCKrBrEPE4unfWlaGXiNW4E/yMqyjLZZHS/n/D0btwpfdXbRDVO75eGYKsOEyaArs3sX6Adz+ZHjqk5cJL6HQQFk7EFBiCNxQMd6dWNhhn2psgHDoOYHw/5RCmtpM2ijDbgJNnpCNmj1ZaZOpSu4WnJ3KCyg1U79xnMBK0IMxTT3FJQdhceVEtyEHXTO+uF1q/RkpSZry0KrwEZ+QZrJyxe4aMfFAJ9OZjeaySC51zBJt/DnS8F3z8IIU+3hCEYIaoWN0S5GT7YxtiHxne3+TDGMSO5JfHQuxxhSCqjYmS0IKAMHpKywpSbEHpnLPYP/A5bQOLm7xQXkAQR1mJZNRsRqCmtJxkZHL15OkbPMLQk+QKuDoDjXlMZDdx1r+Wd29KK3NG6KQnr7qgwZ+tDmzo2d4B0SgFNBlvjs7sXnF1+kQDH5idxcwHn1eeiNsvt5ec356en68PQff/x5ef9tH11Wj6/B8=);lineShape=1;" vertex="1" parent="1">
                    <mxGeometry x="945.6335028024605" y="234.0478528329195" width="185.6836062911907" height="65.44179102874898" as="geometry"/>
                </mxCell>
                <mxCell id="22" value="" style="shape=stencil(nVvZchw3DPwavbLAm3h2kv9wleVYFcdy2c719wGjcDRs7PTGeZN20TMkcTUA7kN+8/XD28+PD0m+fvvy/MvjH0/vvn14yD88pPT06cPjl6dv9tdD/vEhv3n//OXx5y/Pv3169/L/57dTcv716/Pv8wl/vuByDL1NVJK/Xj6JIY9/PvjpRf7j06ddPvZNvoTeibyEPjb5HhJ7voSc9vVIiHoNSBpG3AE5tEIBCXbcQ0sEMEKrG8DOSDlA8g5oITcC6KHsADsGzQTQwgBADZUc61yA7GqTkNgbahj7pospmumhhqI7wA6anVINaV9SNcUJAZSg+xtqD4MdawmjbIAWw2B7KOgMrYbGTskAu7W2EZTpwQC7tfYUhPjPBOx76MciLze9m0bvQTgAjrWPdW6XittPachS5RWg7TFgxFC4taZ9SSOFzvTQQ4Ql5aDsWEfI+ymNGuROmNmtddgiySlZoKy74kYPmbwh51B3jxtjfXIbUNeZHAANneghj7XFBVChmrYYUfdj1biM5TYgh7hvWjMNAqVietASCtlDsTPZHUgt8BDzrhE1rY1muFrWig9AX7u6Degrkp4AnQCarBR4AAbNcS2HEhHA9tAaGp8BEvGHdljOaQ9KjM/CFuQHA1Tior0GLQhgkc+ikO5MwxTH8oMFFRUERGJ8w0Vv5eHePLg4AAsC5pAKp1RoftC0nncCDHJK9jUE4wkgm7YVqwP8m5NuA7pzoEKj96ttngCRKE51GcI5ahB/MAC+QRYtvQIkiK1HxrjaA9iSZSCqONs05OlO8/R0F0i7kdLQaf37pluhSXEa877pyomuqakBI5O1yNuAjPnBEsAd8677HmZOYqYRkS9lYwIkLpkh6P4GS/XUWgUVN/kN8YeZZPdNp0RpqAHSvgerH+gbxlLTAeDmbcYMnC9qqAzQXNVnLkWO1dgROJABCttDdnWc0jBjHBLyQ+Ks0vJDFASwUNmPSvWkh078wRxSQA+J5gdLuxBbU6bG15w/pEL5knkwvqGs+vc2ICMzNvOORNNGsID+GEAYhbM3uD0URnTHWsDplFhcMmYMxmd6qKzgGMv6zx7HyzLsCSgv8WWRzgMwKDmJHfsm9gmjcPFIsgeg0WONCZNirJTdR9eaMUBmWXQZ/0leyBYG+tuUZyEAiweTZ8S7Y7qa62cUFNsyJl8ZT0e2Z/Is9xzfnjTGPOc4jZN8Zp6GdYbJ03oPu0pmckLWn1bf7D+aqLjnmw8Q+7FMG508fT40iEy+kkQrmBDiQcou5KWgvBD7kUVVzo1Duh7Ub6dFmCztnPSrxF9kVTcn+Ublk5NntbYg8Z/2SZ9f3Pr5+VcnzyKcOPts1B8Fa9pp//T5UA6aPGstCHJTkx90PcDHIy/7BbOYyRdqP8XJs064LMp3lqfrSc5fWN42+3TxoXD/cjmVxf9b/tVpPPH+y+0f80Wn8VywvXYnPgsSp2n/1N6Sez7LF98rn5w/Vlq3Z6ycjLMwfywuXhWaX8qiYId8pj2purLPSZ7F57bYzkme2WfD0tLkOd+A6tjkEysUnb9k3l3ClnS80zZZp3HeL1mPEUQsKzNVsFFQZAS8nLGvqwMMxopdr3VyMtboF+wXx3ZvQuNZSubFRgOAUrOb5QwUTEI3PQsmACTaNZklmSKAlcY3ir5MhxWzrHQ1XCWanoVrQUC8Uxq7Ngsbcc7iG6aukdY/3beKhJpGLzhweaVsVy0KzGhKexqzCeKMj1W6I7sY3+nga1SXxDvvebc19j0B6JI69u3nG4gtjfG9m1bsmsxqnbWwxVlr5E1ywVJuhgXWa404oZnVKe+EwpJypIrTjM2o3Gls1YJ0x8ICaztqxfqjKOWzc7yyb7o2Ol9XN6ZthTqQjtVgOJrkwk9p4Mi/8+Gdaigwpk2UZBsA3mAeQlOWON5p5kVb0m7WrHc05660zDETa6sPTNSm/HtDIBhkNVpLzTGTm95RDyqrNj4BCtNcwq6g8vJxDuO+b6DY0TYMQDv9BcOGnVtibfWIFPfO6Lirs6VBo0D34z5e5PWDKRwApQ3jOTpOCGDDhxvDaaVhY46/gei++tRthDiHUN4m79hrmjNGsolakGLpoES0RszUykdfxsmgxay8fTHvUoAiGu1nWT7AuWuh9l0E73gpv2s3p3uwpERpYnYzS8usd27N4CkJv2AYXcBXOlybZdN+SkZY6JUtR9ctQ7BbM7Ow3E/JWBqdPlQHKLTzOmc+sKS8cvdVFeSvbLHeXyo4fbBQxZp/s5u9a9oyNat2JwCuzpWVJy8Bu0/Pu3as/+0a7PM2H9ODy1mtrnLz8pSAAEXaIjJAhZF8v3dJEoJAzTQF+SlEGfxYK2q6FD5cq+6yqi4vv/IHaMzksqrHSwcCgNBO+2zNwICw0po9DVdRR367dbiyiTfzk7puWuKXVR0RVX5z2906O+ZbV/Jt30Gm67HACs4glEjniI0Wod2rKd9AnvGSGegTyDPvn/KK8qz7GbFdKnS6mSPe6hCaRqb8wP3yxAbdCaGE29/8F56aI1q00OtHt+RZ93bKQ1VP8/L/+OXCHXn74/VnEu+fPn58+ZXF+Xv8WYV99PKTjPzj3w==);lineShape=1;" vertex="1" parent="1">
                    <mxGeometry x="1160.995190122981" y="234.62980444267237" width="203.75487982434788" height="61.685514087355045" as="geometry"/>
                </mxCell>
                <mxCell id="23" value="" style="shape=stencil(rVjLbhsxDPwaXwm9JZ7T9D8CxKmNpnHguK+/L1VDm5AbzTZAb2uvZilyhtzR7uLNy+Hueb8L7uVyPn3d/zzeXw67+GkXwvHpsD8fL3K1i7e7ePNwOu+/nE/fn+6vv5/v+sp+9e30oz/h1xXnKMcOCu73+MO5v398vi5/PD69WR4pVrU8E/v58kxFL/eOQpmvb1SCXl+ohfl6Hyh6BQgJBpDnVb2jGMilOSB4Yl2gyMQZACqVrACpwhrFSM3pmvqR1buAJDU0gEC1AUChkjQgUgJlledxtltKEQCYXNFJN4oAUBI1TVxKVAEPdRHOAnCQh5opai3FSq4C7Yny9ZZihlVqIjXWgELMANDIr7UEkmapulZrEuKAvFmKaMpaKaAITFnnUBwVMAAEUHUOJZDHEZrWUsmUAQ+81GQAhPsMmO4AnUMtlNEQcMuQG4gWoJiYbUO0RfHTrDVzjAdTr6uOwA1OYgEUTXWPCaaA3DZi6jHBnJHbUVPNlTIGBLOluAXwmurXFpkCDHEyn0GPdoDeksyFDTF5XaXC4yU2TdoAEjEmLpqW84P7aY/qKkmPZtxypdkICW/JTGPJYWNssB6upVHF8ma9pZooAbW+16MOeoEeQhPR6lDLFKAjcNiiumrmuOD5LUTol1ZvQtyjWRPxpg7/C5GsOlrB+hPxmOEXNt9zWh11mT3TN6lRRxm+dPquNhHSYH/qBqKNUECE7jeMmqTpgPy6o9FbkqwiEEf3TCu9Muih7sqMmvyYbv/o+2Qee8C0WCpvBB6GP5h5V9sRngIoa3fH4SNJd/+9GgMBJN0dvrEPkgOaNGE1wDN5AGjjcYs5bkO+s0OQlp4QmfEZS69PDPfjKGkOupUGz3f2DCemsgHOpN7mQOOhb3BDY4vLbdC0Si/resYE67nq/SDTBe7HvEjkjOhBJ6/OAb4NzztbrwXnI7QYbuVhqIEeW/VkhuPd2UNJgI7KjdK9nv/RQe+Dnws2l8vF65eJh+Pj4/XDxtv79kuG/HX9ChJv/wA=);lineShape=1;" vertex="1" parent="1">
                    <mxGeometry x="986.2357858607861" y="272.2344743820396" width="110.9994046339516" height="2.530162626809556" as="geometry"/>
                </mxCell>
                <mxCell id="24" value="" style="shape=stencil(rVfZbttADPwavRLk3nxO0/8IEKc26tqB415/XwrGul4qGjdA32SZ1PIYcman+PC2fXrdTIHfzqfj183P3fN5O8VPUwi7w3Zz2p3taYqPU3x4OZ42X07H74fny+/Xp9lyfvp2/DF/4dfFj6mU2Snw7/6CLy8+X8z3u8ONeaSYBvNKKaybZ0ptMJdALa3bNwo82ivVum4vQnV0sICCAodCPEYUM3FedwhCKQ8OKcGULYAqg0MOpCDnmHpJukMREll3SIHyeEKpVBh0gX0bqlADZc3Nn1BjL/S7DqVQqP6EBE6w7yX1OWSQdFXS0SErNdCHlimH0YEpx3UHNeTHERpKDLCkyaPV8F5BDqoU/bBFFJH2gP9tOM2+jDUyIGH75jKmDLps9uqQSg3Mji56JkwNB+QdMsmHIrKFIbikbthCwKjQxYZJpDjp7E4oJACoMyrG2TEYKQ4piA8p4Sq5pWfAKAjZbdGH1j+x6jBuSYm4SuYwJm11xjnzWNV8D0kyBhSo4q7Fsc18L55UnT3jFpTk7AsghRl26uLPqGM2CI517n1fm6t/Ag0WvuZ302GIIfUdlgq5fx7NBUoTPqG6HqdOQ6uj6Yqa+5n/ySF5fZQFUwKTuJVqGw+cMNPaGFItkJob+8lppRPdGjU78lcjfzBrM/k7LJkGAp2e5YXDEuPxmRXMyJy2QALWSE7yWBIK6moqzA1cq32Rr+m8MqKvKpQ8hua4UGGMxK31yek8gegzNVzcEjA8gq3Xur65atsKBUP2TJXwlowUnL7InVjetWevd2wrZVAhk09uPBtVUCD2KtWaiIaNezVuFgxiHe79vNlgiAXNfpSoRrMF1HO5gzNUqOwBZAhBmL7Ky+sMkMDyi+dkgdGEBSXj5jr+gBc19luLoRD84L33rrk9/L1iv+z2+8sN/fZ/fyW3V5frfHz8Aw==);lineShape=1;" vertex="1" parent="1">
                    <mxGeometry x="1241.4341850812912" y="273.03455959607095" width="95.21482040901765" height="3.8163744553646666" as="geometry"/>
                </mxCell>
                <mxCell id="25" value="" style="shape=stencil(lZbdUttADIWfxrdnpNX+XlN4D2YIjYc0YUKg5e3R1mOIlkSd3vnv88pHR8c7yc3L9v55MwV6OR0PT5vf88NpO8mPKYR5v90c55MeTXI7yc3j4bj5eTy87h+W8+f7/mQ/+nV462/4s3CNUEKnAr0vV2JCan+v3C3Abt6fAxmlGCAJWnWAhsoGyIKaXSCJAUoEeyUltGyAqis4QG2IFmiMFh1AVbIltYLE14FCyFYlJgLRdSITJNolGtiRKRGq7ZzqQE4jooBtI2oFO4BUkAVK84EMsrrmBhIHKGMjUkV1VIphXCGqW5zO6W1pFggITklaQK4G0CKzs0KuaMkCGSE53lARrZlU6OB8dG+TXUFbGfyBoGFG6V8zykPjCLFcB87c/OkNWoPh8hI6MBbQofJa3UdysGtbX3FZJh36YUg1GJySeqzYkr6i53KrBeXbjFYnBjQa6wBofHozmhCHoVZZHTN1QP4HkDima09Dx0whrm7+BBKyE0yc1rQ+i43ofHRBtW4tDHHaEMYwzrym7cXn1ar2AxKvKXLteWuLSODg1ZNsYgRfUc0TWz831xQcR4GYkZweBxmBBHEmRz0x/Bm0AY6garpBofHfpgdfO47HebdbNizn98cdil5adjdy+wE=);lineShape=1;" vertex="1" parent="1">
                    <mxGeometry x="1447.2631793744258" y="258.05550329307107" width="2.5146227402378827" height="2.522336761604606" as="geometry"/>
                </mxCell>
                <mxCell id="26" value="" style="shape=stencil(lVnbUhsxDP2avGosy7bsZ9r+BzNAyZQCA/T299U242UtZ0/KW8jqsLJ0dCQ5B7l6vb9+vj3E8Pr28vTt9tfx5u3+IJ8OMR4f729fjm/26SCfD3J19/Ry+/Xl6cfjzenv5+vFcvn0/enn8h9+n3CtUpAFFcOf0zecqJR/33w5AR6Oj1sAU9ERwMS6D6hKHAdAIwYvqJFCHeyVYtu310I62mdKFdiv7nb71B08a18y6RghoZyBfaASnX0B/ufiM5CoCbCPxMHHB9in6v3nQAk4lMwh9pTIDABC0VGiUQ4AEPrjDrCcMYipKNU2xpQpgDNIJkkjwGiIAEI8AuxUiBbmQMwjoFIFAKN9HcOaEwUQpWj/r4yACsM6A0rs3No7QxvzUPRSWOMYpdKogWITO/RIPo3UQKaTJW4Mq2aq4A2ZKblyMMIDfclKaXxD5e7k+YIWX6A1kSIF0P54BSgV8IZFksbEVQtrAgChNOahWVhBiRogOhEulNEbgpd56xQocaX4M7TW6Xg+Dytz3nUpwIIw5ZPoX5GRkpnypukQoFfJ2vs2gAjYZ7rVXJiUMjg116kbFqogEXbCkXzNXgnOzFOMVik8ax+oqrdH7dx6h7NPXdd27Ll6e9TOjQLOf0siyEDwzcrsA5DhMNHUWAX98ZXGkNahN4GNPRpHuPNrYy+gCNhrS1szfp6hve1t7BFBY3+6sUclE31Xs3hmoHWmU1N+Ed/ixE+Bah07WzZ8S9BeirdHSspdBTf1gsavNfv/WY888T/3QWOHb7lN/kP7OJ0X8dPqq0zxx/UbvH2E+hOc/xFqeiARb4/rvcz8h/rp9Zkv5MvHn6G+fdS+kU71JUhP6iQoFwqsTCcWqOjWJHWiXML7gc41BjiaV0neFg0CND/5GiCBQ9tS52lhLgFZtDnX67rNYAhga6krBIbTTZn2ulp7re4tjm40qBm6lKe1q0bYC1IiGcmnDYqv1D5UrgBbKNDAJT7Tats4kuvm55tlUgX1Gac8WGZgA8y+QsuFDpj7rL7uabaRg3qwhd3NIEZ4tJEvi92Yh6R9nj8f1jABuM8xe3lwMr9s0ChxVkBuhW9QZowacUxcxIOaeeyvIbRXyJ7MtPEMbMMSeoP62Ujh6GWrpqtQLJQ594ui1aG+eu7dHLnZK8CbMhOxxs4eKYytmcXbZ3RTpn61ZngzZWriZlN882VbsS8cyiBf1vncTqrwJs62w+DupQKcXQwgbiVleAlkALdgMk7xshNPgIoBntQR7wdhmsAMofjU/hXrhd7uIcQDUKEtYZoumS/EVdQDkH4tqS4eUNAZavd4A1BQDAaYXboA+ODN+mWAfXi/yL87PjycfgfYPvcX//bV6UcD+fwX);lineShape=1;" vertex="1" parent="1">
                    <mxGeometry x="1420.8172623134833" y="265.110429068724" width="40.16544840896131" height="28.875913645800097" as="geometry"/>
                </mxCell>
                <mxCell id="27" value="" style="shape=stencil(lVlJcttADHyNrqjB7HN2nH+4ynKsimO5ZGf7fcAoQ3EAsiPdKKp7FuwAd+Hu/fnhbb/z7v3jdPy6/3l4/HjehU877w+vz/vT4UOeduF+F+6ejqf9l9Px++vj+ffbw4Scnr4df0wr/DrzWqXmJpZ3v89vAoX098XnM/7l8LrER4pR4X0DeEet6fXDNr5mKkGvXwGeKevzR97Gl0RJr1/A+rlSHvGRMlg/M/k04BMVIJ80b9/xBcozZkp+wDfyZRsfml6fGV4gBGrjBTjCHeQAThEKuQwISYuIG1WgA+8pjjYkb9AdvKOsCPOeqwQ5QM4joVCNmKDMzpP34Egi9TISKjFwBLHLOiouenKIIFJXhNwPua5p7p41mypTAnoImcJ4hzR767qxegqjlLKHl461O8tMKND4UqI82lKRHYCm5QCakCkCKeVGYXS46igCTUuEUVKqokqwg6ynQswUBIED1UhV7SBBAO1QtYs2JgcIErX96A8tEAOPE8K/v2eCGB9woFqojcYnmciDHUSImTUBSamUbswzoXUP2dK0SlVCYBCLp1jvNAHpQfwrhFsIkYm9ORJyUe5CXBJQMPYrhADMm0N3lwUholBJbiwY2DlofI6KuXMDLi3uaIRaIN5qDTm0M85Tu6Fs4Z3GpxvXd0Cg9vyFMlxfyweXGFb+klkA3ih4woMgz73AXOAZGlA25wnwPNXcF9kDU4ta/sgpBZ81PgOfZJ3IJ5eE9y3GPhPEq4pc8BXKnw2+gfM7qtYfIV5XqPg8rmf4K+/rujVeKU/Bm8SB9CV4r/HIHpyRJ7Y3t2L/yJ7div3j+zZj/8gfb8VLBghKAVJCgQtLjmFDCKgHsVks90R4bZ4Uwm2ZOPcwvJXr9R0S9IKpmsiagFoKqVdi0YQE7EIqomAIqPGSmksV/FLVNVRzRWK1gwQ/UI6XpmOpVKYJiLXE7oqL2hc1LdKPp1EPIgYPTEMUpwYcckgP9JCi6chjV+W68RUdIIuDhWY0tpRj98F1f0i9a5obLxErquok4qopRIQ1jvTHyqcjLoqmrDZqOkY46OC5cJ0Jrhv8OkHqd9ViZ1i3sHRNqsX2FFFizlTHMOMrNG85kupBpukO0IO9tMTCgiYXrPXADRabPhpCgeYtVwxjXOLYu/StgVAwEyRU8AdpIFQQwFOCrKNMhiPIFHSBEfuGWxFAFage9uMSYlQgxmMRafhVAeagjit3373g4YjTjEQlvAArtSPXuaK5cqTrYBqxI2Pcz1060AUejZhbn+Be8KgNF3zW8kGhaypH9foF41VSYxjeF/3thQAj3RoBDUTtiTycktkbe9gxWol6mJ+sxgIcOliLCDAE3fyR4r94ebh8EXk6vLycP6gs/9dfUOTV+etLuP8D);lineShape=1;" vertex="1" parent="1">
                    <mxGeometry x="1429.3811718939664" y="264.2281065002834" width="51.586597630418964" height="34.17572811603702" as="geometry"/>
                </mxCell>
                <mxCell id="28" value="" style="shape=stencil(lVjZctswDPwav2IIghee0/Q/MhOn8TSNM0l6/X2hOpRNSFpP3mR5lwKBxUHu5Obt8e5lv4vh7f31+H3/+3D//riTL7sYD8+P+9fDuz3t5HYnNw/H1/231+PP5/vT75e7CTk9/Tj+mlb4c+IJiUykGP6eXmSmWP+/+XrCPx2eL/CVMo/4SC1t4zlQDSMhUS2AIFSdRZWiAEKhVgdCCZQAIQYKo0klUWqAIBTySFDiDAiF4uilmvo31wlKSUdCIwVektnrndDMbyBukklHt7ZG089NQqM67kEZmpQC6RgHtUgDLyWhEvwXMohDSt2AeQ8mDUQo3SczwfaATFIf6Zqp8TbBskWdlho1YFLOJE6ttmkFBCVZJJCAwBVz6xi4VCkAk8ziDyd2gigpMKlKX28mCJS3iZlHgmVIAlpq0avVklaAvFvxBE4w0hq8NLS7bR1fSEZlBGrAR4Z3dS/AGqOVWB2eMb42hw9AFdooeXuu4HVhDwiAat/exX4xvon3J9gvh0XVZhIgIfuAK0dMDQlCqY4VNZIgQVheenxBgmi9kJzxChqn4eO437kLbQkiN48HOWn4j/if7alY0Lk6fEL2FF9VIhZc6fo6xyuDLj6t7/EB+dPsH5tH6O1n0z/s8BHpbeH/gOPVlgkP42X68QnMV/TpE+xKvlSPr8ifK/nFQD+rCQwTRv2IE4nxBj6HF1+BmHvI13uM+pJooydsStnPK1MNQm3PZm+3hdq9vN5YF0kmNhyAMlrZZ0Hi3tjWh4Pas2omNEyIvS/O80qGiWwDjhsObIkKMsHWU0dQPHNJb0XzVFfgZGpTXXHDcuxiWScEPx1M0zUInA2aPMZBcfm1Gc61DytoCdTTFH1DvsjA9YnfQi3+E2gmsjOFy2jLqQLcZKcWN/xaTlV08tI+6s6EDFMu5n64nAm4zFuRiOMXbOJH2uDm5wTLqYDOp9k3hlKgvjn6c5GN9LC1eWkU3Bqyd2ouUKzcG9/FCSSDMhZ8p5pOLMCe0IU84wWeP0I/fF/gUYyD7+SGR7PsolHl2Hvjlj3R4wXa47LgfIrcwPsbEe6z2Ea8XEE1PPI/L65obAWgN0uZ7PHogBkXerD1UZn45J3Udbw9nC/AHg5PT6f7s8v//YWZvTpdtsntPw==);lineShape=1;" vertex="1" parent="1">
                    <mxGeometry x="1016.5408446975616" y="408.90636111664844" width="28.721250241773305" height="36.08263876411161" as="geometry"/>
                </mxCell>
                <mxCell id="29" value="" style="shape=stencil(lVfLctswDPwaXzEgwec5Tf8jM3FqT90447ivvy9UD10BkjbTmyxjRRBYLJc7eXg/PL3td5Hfr5fz1/3P4/P1sJNPuxiPr4f95XjVp5087uTh5XzZf7mcv78+336/PU2R09O384/pC79uOKHaJ1Dk37cXTD39ffH5Fn46vs7CG+ViwhtNv7bCQ6AeTHyIVAQAMpVmAZUYADRfzgYQAzUGgESdLaCOT6wChCkkA5BItQBApmpTEi1b2wakQLUaQEpUQVlTpW5XyNo2sEJOlG2bc6UctgElULSAkiiBKpVFSlU/AapUE4ldoWpKYNONSWyVmpCAlJpyyXa6tdGZdUCnHg2gCwXAJf1bLDV6HoRfB+SR8WyFBhqngMwewCilTM1WqUc4or1QEgsIVBCgUogegDqtAJ9SoNABoPnGKSChsnaKiz00tEKnyr5KBZVVqVF8HxIQyglghawnyNYpJbdCpog3LdEDkHZrWasV46n3uHG9ewDSJQX4PpRR6C3y5QVAUOPuW5xtuqGUdIAWAEab1hF1fUiYrZnSQjUiBlQHiLgPZUzwjN4VrVCGqMwAkHx1jPx8RJEutUWVdAU8QJwWe8D0zgshkw8mbiGVAWw6MA8pnbUaWYENBEqKvReYfWP9EKqLI6KMw3sdoGxLvlAMKlubF/BWqKCjOlKwU6pncUNmIHs66WmfASA3f/Kqn0AeK8dx5NwB6oCAT0wLHVBPlABA+uDz3ZSp10U+UYZM3AERCrj6zmT1WFSPQadj9OwTbPsm7+y8bobmWN15skOn/rrB+0Bx/r4QAzlWrbQJ6Q0hgh2wz0e1GNCCKboCUQHZs9ckgeO/GP4ILYCGWz6oJwGEY++4sati75F4XCLWO+tzVzeNmOPrzkMzNsK7D0caFwfNZ+Hojuet1L3N64PoDS3Dq85/3oA/DNeHf5ftl+PpdLurz//3l3N9dbvYy+Mf);lineShape=1;" vertex="1" parent="1">
                    <mxGeometry x="1082.1930297022527" y="429.7940908476496" width="28.453471044983417" height="23.74577528571558" as="geometry"/>
                </mxCell>
                <mxCell id="30" value="" style="shape=stencil(lVfbbtswDP0avxKiKInSc9f9R4Gmi7EsKdJ0l78fDcOZRc+nKJAH2zlHl8NDUhrk4e349HoYYni7XS/fD7/G59txkC9DjOP5eLiON3sa5HGQh5fL9fDtenk/P8/vr08Tcnr6cfk5jfB75rVGQSZWDH/mL0rTm/2+zvjTeF7jI3Hr8JxJAaEqZe0IkakwIESS2hOUWtgnaCHuCZIo6T6h2J65IyQmEUBg4tITKhWwpCxe1VwotH1CSqSpIxShBFSSQrWXVQM1QIht2eKdYLJWQIgUc0eoaYn9/zdN3G/BvCVgAhstejyK80bTCQ/GZ2rq8ch4TKEPcqtUgSsCSZ8JTUkhPjh9CgzxFp8pgEzbrkdIgZ623z6+ltsZxNf0dHimiuPFHp+APuaH4PEZJdnGP3GZcQffisejjCmU3fj3Fe7g1Y2fKWWEL05Py+mE8K7ymj/Remz2TT4y8M+9aK7wCsqoeL9xMMuCBVlh580EMIFluwGYYLluBIIJ4w1kASgwIZ1BTWKw/kDRFaz0wXrUBdgMCvDWR8XjUYH4NL4u4Vm1DFRBzXLqmhJDS4v4HlMSVdQz2Pf6rBSASVPzBPsCW7cujXp1OFDgCltx6Ql2/GCwB9PEn4iUBMxgquc+cBZK1IntCFV7We2QFtGZy+LqUgE6z4wsPZ4Xr+/hXe8IMAiWWKU6PJJ06qTq8KgSWaeOGzyIgBUS14ut2QLXGV7F4SsI2HRSCk5PlGhT4exLaaSEx3f62+kS7HdVye9ZAEudTVD75odLo+GdpS2CyHCfvaZ8iLeHf3eil/F0mq9U6//9Hco+zfcvefwL);lineShape=1;" vertex="1" parent="1">
                    <mxGeometry x="1087.2267733602598" y="428.1539893704587" width="19.419313003765183" height="15.289515940962474" as="geometry"/>
                </mxCell>
                <mxCell id="31" value="" style="shape=stencil(7VrJbhxHDP2auRK1klVnx/kPA5YjIYpkyEpi/33YGbA1RU4/SUAOOfg200N2cX1cak71w7fbT19vTiV9e356/P3m77vPz7en+suplLuH25unu2f9dKofT/XDl8enm9+eHv98+Hz+/vXTRrl9+uPxr+0N3898vdPMG1dJP85PhDj9++DXM/393cMlfaOx0neSAugLiSz0zR5cpW+T5nDv7+D9TWjOhZ6pTEDfaSSnb6uAvlJb5R80gX1aoskLfU7EQOE6TL+doUCLVqbcVgb1CWJolJ1ITBMxFOruhEkJKF0z1bowlEK1wRPq6rUtLIAbaqWxhoX6mYGf1UplNWuZduZ1hkll1aFiHTQy0npC7dQGDNWyhpL6foDQ6Nl+3nOnUEYMHJJNs5OPGTieMIlBaLBQculZDUCuMkihtuZb14BHDGJ+3RNaUxAwjEK8IhIPasBxQ7ynpVIGoTE1vB1mCA1g1qnBvCbQwI6bQnVN0aE4hUSalPvKMKBIOSVLYeNQtRCS6RFtNZOq1ZFM4s00GTpiVo/dL3a47rnpM0gZJrCrmn2uOToHTGrplJpngAmhfuqeYQAU0ILLTiT1JapAzVcUZajgBMX7Lp4BAZNi7wwMKEe1fkgPDMBKWgNdym0MQGkt+uM99IoBQSDUxqQQedP6mgP6qDAC1mTSXsoDDJR8Ad1cBuXPwWMZyp9cDI1X5PdgMWDMRXqxPu6N8uC2M+qrIN7fY0+2LHqjvxj2IzEeGGJjjDe2Hus6rNjpF/QIGbUsh/c3YB/xVfkVfSXkl1hTeUA/Qjygdk3pA+wWED/iG50NdaG+EU+wPX0pm1bSD/wVERTFG/ueZaMH9tFuNtSAAfEz1oyOxjrfsCh9gu/n6u3fUGca6AVXySCPegTgZ9SXYTxEezIsYNFfmo9A3xgPDPH8WuuE6kWMZ4ETWswXgfFwLR8TzEef7wNOvRFPtLWD8ni8mhZRb8TDCZvdgLcX/fJ/w/Cz4/jZcfyfO47YQTP0V+zQGW6hrowArzBwqAFsKPPWMYbhrnEblEIVEBDT2ygWdOio7HXz0QUD6mu2cdIVmg7DSFrwc7dadTQSe2jvEHp16HYrn9kgtutY75WucM/10qvuDAUuKGcsN8m0OjrBLQ6G4BOqx/fRqAKzqgDVrXwSrJiDPYN0aiChR7a18M6QYIYK20ZoX4x1WHIkGyLuDAliKrNvWzre+HC2VcfOUKwTO9poppWhDWilHk5o3fa013NaJV7N2jLEpVZ8b1Hxikh/zmtOV01RoHQNdyy1GPAcrdO9SIq2aP+efE5vHRZaEQ0fS4q2BSitDOI2/AlOOGX64MvDLjqu65AprVbKeNmtVhquZ6tWAI78MFdcypkq6AHqPqTsuEQZRcb0y0NcsFpYpjc4VWu9cu/HuNr2FmdXGCZbm7aZN/qEy2H2a27cM/ewR0+WrEdoEfRFidbFhoILewL/9uHzrEOMV/riL0uhfYa3P9uBh/TF0SMk6gGJBMbnZh93UwITpoe7G4GXQz2MdQPfb4WxblgBOooHYU+P5AmNyIAXQ0rvblbFEOOoHXzfZfur9Prh5Wb/y939/fmPAZe/+38C6KPzvwjqx38A);lineShape=1;" vertex="1" parent="1">
                    <mxGeometry x="992.8978883336908" y="40.11201148956036" width="60.97999946709615" height="37.368903257276315" as="geometry"/>
                </mxCell>
                <mxCell id="32" value="" style="shape=stencil(lVjLbhsxDPwaXwnqLZ3T9j8CxGmMpnHgpK+/L1VDa5PaHTe3tZezEskZktIu3L093b/ud57f3k/Hb/tfh4f3p134tPP+8PK0Px3e5WkXPu/C3ePxtP96Ov54eTj/fr3vlv3p+/Fn/8LvMy6QCx3k+c/5D6bq/v3x5Wz+fHi5Mo9UkjKP1Oq2eabSlHmlHLbNG5WizF2gErft++uqALL9/nMTUKl4DSjUyjagO+wUIGRqYEvBUWAdoUwpAUAl1oCUKQAfYqSknc4J5iyxDWuRTzAAZIpZp81RBYDsKOoVaqEKnO47jgrQPCUQ1tzIa6dbGlRcBRRHTVOvFQog0yVRnFZoGQCECJoaLQy6rwMqVa21xhSBHCTqrAFVtgScrmHKA1MCXJLvmS0JNTLgUq3kdAHIlTxInLhoEidkySBKQgSnfUiJGOThEvVFcUug1wHJ1rwYsA/ZAkKB5BNA01GS0pYRoAwXrwCoCHQyOwtgDMg6SlKLkabblOlevIGABJDjBEBON3LeAlC5F0AKFoCKsQAMvSVKqD8IoFULQHVpFVARveW1djrgltWdngARr+CcBUDFTYkTQAFdvVNjBiCJTuTrW0ISnejdnQZ1aRaQABwCrEm0IHrLCpPiUPUWgJ8AcEtlDArXEsVhbZOmC9a06XG3JFrHdPS/K0hM+EM+tCH56yjdkOiUOJQHx2wnrBup/jiix8kQvA66bAHMCtKDEtJcpqxTF6WUoUxI19Rbkj4acR/1OhPZjxawDnC2U8ssgKJUl2q9TBsJ+lDzINvVIAoBkaJeoX8CzTOeomaTeIXGRBmosi7Hl0BvTX1JR0lkixqvxMS0lN4C0Kjrqekud0XgrWm6TksguuZiJ9FL/VwHTJOo0AtV/NSmWbeOM8I6INgwSS7RUCZToTezbqIAMhf9mKgWfi8iXD/KpVGIFskVcgDgp+NoLBRB8fOiSC2IgMnkMvFU8SHA2RW8nEJAHiZmuDimtPUgTecy2NidPeEnSqCIsR0DHIznVOcdrHhsfeWhow1zl405kgCPwnMxjyBTPDr3xdyDQLKVCw9mbMQ92K+jAuFsF8cFyNsRleERz9v7CB6dZ8O8WPMAsuotIxlS7IM3ZjfN5eFyOfd4eH4+3+1dv7eXefLX+SIwfP4L);lineShape=1;" vertex="1" parent="1">
                    <mxGeometry x="1104.6343374752819" y="51.43619771138208" width="35.43456604010407" height="50.589895263372114" as="geometry"/>
                </mxCell>
                <mxCell id="33" value="" style="shape=stencil(7VlNc9xICP01c6X6k6bP3uz/SFXs9dR67ZTjbJJ/HzoTZDVtvdnc9pDbjAQS0A8eoFO++XT//uPtKYVPL89Pf99+OX94uT/lP04pnR/vb5/PL/rrlN+d8s3d0/PtX89Pnx8/XP5/fD8kx69/nv4dT/h60UuRch5aKXz7eYVq+3Hhz4v8w/lxJx8btTTJN8oVyBdKfZLXKxEpROoyK3SqfKzQqbTZAaYUjuXZPz9nanIsX0jiJF8iNWBPpjg7XNT+fiyfzFqTr0wNBcisNXnOFBKS77P9LBSBfKLiDjjZEf43f1ulAuJfKcz2N6EWj+WbWbvJdwrAnkbd2aPxLMfyQuzsycTg+d282+LZId46tdkePa+UkXx3eKjUoHyd8V8aBehvLzP+GwmwX9Eyx2c8AZ5X5lk+UgHy7AtKrNAepjjbHxWfoGIxhTk+WmESwL/K11k+kID4s6FxJ19A/Nnnu8oHUH/Yx1MBBd11cFB8QG9ddev2uoPDDf7pCdjePLno08HRNiuUr+IIOYrb5MQZAjl4VwXYLkZTu3NKwBqhVLx8Bc/X2/4FlSKi3kRxdiAFy50j7pXZpHEg6A1i8d5qQyEGcFCy4NmHoskIyEsN4IUdO1BQcnb0XtUHREfbqW71tkD+LewVWqQKErgWqx87BkOMxNEIzhQkk4CwKkP3OayiHIkSp3oS69rGgbBKJHaJXCE0hJdk01qAaC94Hzo+uC5WxjcFJWIAb1WoyStkrOCLXYa9aO8U86KAuLhb6d8pJNS8djvXnULFb5DuFRAdq4Lrh3qBHfubCoLCumScYgkxsiq4IqAKDDJuhDV5hY7A132p7AybZIVGW0zqGK01eAVB5yBWGHcKFfkgvrFQBVRmhoJDq1ZvhCVZ2LxABho+LGhFvbUqlCWBEKV38aWyb/PF0Ul7pzMcb1QhrymKscRLmSlXUnR5A2rZRsYt54BMiiFY7d0f9ZVXuDDVa5WssVe4Uph+USH4MO3cOuIgX107XFYoy/n63WDPpzzq0VShScrUyeFV34kU1Ov5rAWvK2r2CxQJkKlLtd5iN9DChYUsGwWGE2dOvpTVDkeeMcPMB1ejheFtheiHzlIoAB/iMsdkxq1u9tU1CWxER/c/l4GxuQGFRpY5lY1jfs+pv+dUBJz/1Zwq1hLscMlQ3h2sjrWwK7cGeTfVdoDLMTe7qVYg0aiC3/g2GyqPVtBuJTVmRPSGdYdbYV80FJYlLjQp+S0od9ifqg91hoVyGyImjRLPOTD2rKilsBTZeClCnC71SodgOMgbanbPRzmczL2d/RFRhqeYxlYF3pQPBrLdXhyxZFhOTGBeLi0dJ0jbwTdDleFeOVKZ86wIHOuy751KgAW9eo7XNgGN7823KeNLC0J0MLhshUVsyjvKGdeR6pWCNnLsV/sVR7T7wqImIoQGD7ntwpG8sydYDh3Jc/HyIOX1tnh70JeDkTLR24+2g5Gyl0ekPSDq7UEIUnnHw5g5VN5tK69UlGjLz1d5tKYYt13LBGv08Nf1oLDt+NVvtdfl9cfrh+G788PD5bvy/r7/kKyXLh+h87vv);lineShape=1;" vertex="1" parent="1">
                    <mxGeometry x="1149.5766122473128" y="69.03403314592776" width="56.27415872166239" height="38.25144265646645" as="geometry"/>
                </mxCell>
                <mxCell id="34" value="" style="shape=stencil(lVfbclsxCPwavzIIXZCe0/Q/MhOn8dSNM07Sy98X1yNb4hxv2zdHYY8AsbBs4t3b88PrdiP89n48fN3+2D2+P2/ip43I7uV5e9y9269NvN/Eu6fDcfvlePh4eTz//fpwsjz9+nb4fvrCzzNOSeMJJPzrfMCk/Ofg89l8v3sZzCtJm8wjCTAPTGm2V0oC7IXK7E4IxBkAMtUyAy4n64BGbQZIgBFLoiozoFIGgGgx85wjcwnEEItPaoqU0m1Aku5xB2TLEgg6mcc6AypF8A45eUDJJHobUJhkTquG/ol1gOVkjkGVBLhk35PZpSoUQJa0UEwzoFACWaqhO9ABjYlBDDVTmx+uST9ZBbRGcc5Sq7BaDVDnoO2EKyKcucweEQO8QoMHZJDXkwfZAxTUt8XIzQMaYFAr1GQBAFG3TGWRJvgQidISEAHgwsgxaHSDdbJF0AUFLf2ZxodDQUun8ABAhDCAuhgqNVQasTe6AaCAo5bWnD0goyxl0gUhMnoHJQ4LAC6+oB5QcHmHxQ0VPdyl+keOwqG4xlFBUbc+QAZAAp3pyvmx+lAx1ZX6hp1JKUYPaAhQfBcY8nCrmpZRwyvioposCMyItniIgvIqnTD/CFB7pzoDImS1JiruBqYIKFQuDzuMOQVBl9T70DBIE2gD+TJyhlGdAOey9Y25M9nwRs0yqddYJg8SyFK6fG8QNBl0JpNgbqSYZBJQS9L8hDBRhvqGKeE8M8h0HQNAUF9LJiwRR4N4uWHStQJA9RIrmEegzWTfA0x8CyiM2MfNVdwjycd+IkYoKRdN0jYTbK7OHE0e9kqM4WLCvhUx9D14AjAFQJjFJGco56PXqdyH4jpZ+t2DOWi7ud89mMOicVXMfX6udx+/4DFW/X29vJpHkBn1awvDrvCfy+9fze3Hdc9+2u335zV9/L/fy+3ovNPH+98=);lineShape=1;" vertex="1" parent="1">
                    <mxGeometry x="1193.4330434073995" y="33.03383256256211" width="14.677236061977965" height="77.24282203309212" as="geometry"/>
                </mxCell>
                <mxCell id="35" value="" style="shape=stencil(7VrLchw3DPyavbJIAnydHec/XGUp2ooiuWQ5tv/eYLY4KzZnekuH3HyTdoEZAAQaDXBP8uHrw6cvd6fov76+PP999/38+fXhJH+cYjw/Pdy9nF/tr5N8PMmH++eXu79enr89fb78/+VTl+x//fP8b3/Cj4tecLV0peh/Xj4Q1+S/D/68iD+enybxFifx4ooei0cX6iQeosuRyWed5bPL9VheXJzlzcCcjuXV+dl8sz9S+QbRsTfmY/nsvJ/lm5NwLF9cmO1XHQHela9OQL7R42ou5Uk+qQueHK8f4d4UivMsHyzec4RSpR4EC2DDN1RyxEGdgEJyiSkkV8KsEF1kJpVxpltU68iTfYXqapoVxClJo+idzm+Q7RH7CtF5UFCnjSiYAXNmiHelEAV1dQ6rJWNjpZydzqlhn0RyDj1ZPSqwXLJsbRVNCiRKEpxCOTdazhIxNWTL330FQZPsHCLxQRKmt2RXCQLY13n2wSDDM8iriGHqKebZ86Cm1VCcgJh9XWYfLL2ZSQZaUlCBZasWzCXluJrC4nSkJ204VytGyROTUnMBUiPTEs3mIihYdhHUyIZzgumdScWVMLB9UzBYYAqGfDMuWfuk7cdSbT44awCNOF2NLswwk0eR78vrqPjNhcE39uWT0xkzPK2emsehXuWFPX+DrKt84PIJ7WEnYPJFUZ7FJyPBMHkWfwNE9DeQyjR5WeJDqsDkE9rP8NHkcwL5xp9f5ngGJ9zfRZ7VWC1IIOPI8EN/MT9vxAeQLt6KDwAdb4E9f+a+bwWpLIGSq6Bgn7AIJcS5TtJZianLoNB4TI2pAGk26sCcVuSQ1lA8M8ma7JwVibdxU2jAgxvlwb0u5zfkPBr7vkIdz9sGo0iZeW3YPopRQmJS80g6qwwKt68QkR2ZkayNNx1fD4UWBqvcV2iI1o2PU6YAcNG2AjlSqIsCawimAIDaKiVswXuc2Uwjs7g2bMv2SWBDWBtM/I1CIjXav06ocMPruLyhkYIwF4HXdgXmdEUg7iYRxmYKuviQWX5XbM3dKxbWir2wG8l9iMtJC3+DLPnduA8A921rqIdhjajAcMZi4gMqMAZgCqsPkedSKqjAemJP74YKtwpI8RwYN9+v0cRLDgC/Zzy3CYjtFdwOoWxBgcJNkrVGuQLA8Zs4HGZTW17BgObdChH5iX1CgSbgIqPyjdjaF6vS/ZBRrAaNtA3Gcsjp54MoQpHJ2IPMR21kgAGNWSwL3UjsDYImGaFhyxhTABgwyhQY7YvYg4yU0UkpIrGMlizsHMTJDGV9F8tMUixqo66BOa1LHx01eDhMwiKQ89A0CNiV3NNh5vfweXP4RH9/D5+zv//r8JnX5zd2XlZ+sAfn9bWAUOHP94PPbfGM9HanZFzihUpRzoAc73eErjpzXXZyjV5oZUWUE6VJZ8gP7alfCREf+u3GbJJGSv7TsgXXNMaBo+0r1I1uLfFovwvXeFooUmtY2lOmWwmpY1/8xodEDq6vFCBX+TRsxwSr/77m5qt/QGs7OEbNZVnX9t0+iVK/oQEFpfcdvd9B8nGaYC0b7hf7jSDJpb7OTajACshaql+24Gy8sIJEH9KowX2FiJsV5W2ndw1QULrJD9v4vik0Wg+h4NSWlHbO6xp+Uyj8llSRimR+nRcEN/k5jjXcvkLA5mwKjJgHj2ynm8SWPXhuqQ5avN8ecNwxJGTVkBG6E78rMEBZIIaNqYrLLeE7FcG7eeGIFFHe2mclxRwQIntlkOd7TCFL20Di73Fose7M7F9mcv5TkI1bbuGh06/HfJZxfAfiAZ/OWqBHbOfMyOPl+jYGH4gvPJDNl8tiN9LtYMDI3BJfXGXGhOWWn7oaVldZIMMyhdJjChgZngTv/i3TDXH74/qzqfvz4+PlV1dvv8efWdlHl59oycdf);lineShape=1;" vertex="1" parent="1">
                    <mxGeometry x="1233.3876601719803" y="79.9881792237079" width="63.82095063512088" height="41.04646469410568" as="geometry"/>
                </mxCell>
                <mxCell id="36" value="" style="shape=stencil(lVjZUlsxDP2avGq8yLL8TOl/MEMomVLChHT7+8rN3EssJyfD2yXo2NZ+pE2+e39+eNtuUng/Hvbft793j8fnTf6ySWn3+rw97I72tcn3m3z3tD9svx32P18fT3+/PXTJ/vVj/6uf8OeEk0Y1d1QKf0+/JAr6/4evJ/mX3eu5PFMpTj7F6/JFiYOTbxnIZyptkM9U+bo8Vyp1kGd4PgeSUV6Igb45Uxz1XRW6KJ8KySgfA1VwQdQJkIkrACQqo0WjQEClnEb5RpKAylSdhxNpAQ+iNnrMTBrB+RYwLuIaMZC3iOMxIiyE5Lp8ozien4UUhFCcXMaRAoghs1DTEVCIwQ0WRCoDoAQKwKRsOo86FF68cjltCqXRCaVRbiCPi88zMa1AYFf2SotSBmGnFjVjptVEAkqFNkqjo6ssrr/saKYQx9wMFFFkWCqMN6jlGjBra96sKtDTMZhjx+zsaoFg6leM0dciDm9Z/LQCGN9gJWzUuhVSAFBzrHuS3QnMZK52GWSWrsDVtVAbY6Mp1MFiraoHCHCExKXGrYBGAVQZazw6ARLK0UDF1dUP519DRPFXNNR82uKnM4CCnDOA684GEAzI1QNQf8tTRhggYkB2OigpBnDzgIL6VVsYwhkgYz8E8YCIXc1pAoD4NkCd4htVpt5xJqWhDtGXsm4lRHziBbMq0iH6HtQ9jQHMHsAYkKZ8EJAPZlbXg27kQ2d705NQxhkgjTfcSmqLvjaZqQGtDSATAFHc3KboW1PkasoFD0g3cnRspBYbiAxceJLC3t6VnnMUJEQ3a/GACJQ2z3mlb+bo5wDWIdyo1PkEalpx4eVngADCVVYjnjVeAYXJ+qh/knFvEN86kW/jAgI8rXV6EsN5prMXZ9YMdbDz1BWmBEcyM2JxtK/dAjhiqetMdBlgNnG0jyHbsBeXsZJphD3LHuAIUFVIT+y8OipthBx1lJp9XbJRv6Hg4yUQVkCBHcVGElc1BM9NnKepRigj/pM8JytG64DSfVIdPc2yTKeX+Tr7NsoJ1tY6rSd0YddXhl1X9/osCOSD5wE2zhbgtWncSDaKotnVrzNShMsAWebUtR8qHO5jXFr+CmDYomP17M2OQAUm2XmOBFBA7TN5ni6wVXWWPpqUYcxx9Wwyww1amcaxuGwHrm3QwlgqAqQwlscsTh41f5n4CCY8MhGeACtXDcuC8EMeDQwmP78fRLTJi5dH6ySTV/8ewee7/hRgQJu8a4ARZkw/38cD2quYfE1OHnVwk3dV1/ILVbjgJzzr6CC/6ur+sw0ymsw/u3G+KW8fH+vtp93Ly2k7fv5/vw63n06r9Hz/Dw==);lineShape=1;" vertex="1" parent="1">
                    <mxGeometry x="1367.4100292395196" y="61.03440490485934" width="46.19607694893011" height="54.46826450536685" as="geometry"/>
                </mxCell>
                <mxCell id="37" value="" style="shape=stencil(rVnZbhsxDPwavxK6JT73+I8ATRujaVKk6fX3peDKXY12J0XRN8fxrERyyCG5p/jqy93N59tTcF+enx4/3n4/v3u+O8XXpxDOD3e3T+dn+3SKb07x1fvHp9sPT49fH95d/v5803/ZP316/Naf8OOCi1F866jgfv7+Jki6fPP2Arg/P8yAAoAkxRNAEk0zoIhjJ1SJFQEaCEClAKCKr8eAZEYXBARypVSlBgQwG3IUV9CGpATQRAGQJaVjQMniA8bBuWNA9Ytbw3jEPqBKchMgqLR8DGhBSp4B5lYGMCcCIEkiV1I3fHIFeMnEaLU4xAngmxR2QpI209tnaYUACsbBRwnshCJFZ4CTRtjaAXMcmlTCPfu9m29kbiYJ2k2efZQlk6hpEJ2JlCQyDzlxQDzOiizq5yBLjOT3TiKwiCdClJrw+cSfpSwlUhrxZ66isz8LJXWy1F8IUYhDk5MwO6hzlFgc/aifm7QppBr1NJyvZJzzxEeWVQ58lCnpfBiicSWRH2Hfj/LgwPX3TRJhUcYLZWMpMdkkYbY466iX+y6SMJO6WPkl9TpInZ9fmmRib0KZrWHo6D6rMWkq10ALAIS4eZqWFuI8W2yJ6hmJrA7BCVemH3UKbT7BSg2rLMlCOmeyZqrjJsvQi2gdj9jP/Shppp02SiOLUl0A7EommkHxSsxLVk6hF+kCQWzoF4ATomSmUG08bwNIpAKrjlzfAtgJOuK6vRLTcR0VcQMoTKQUddwAVMcVq7DpomeyaYCGAKYj/UoFAbQXMaMjAhqPQwwIUNZaLF2nJRCrYgbIugA4l0JersTcWrG7MEBlV6pYWQ3AKqsuzbwBWOXrALhS5Cm6dAAGqIx8DdWn5wMPXA4IYHJogLackDi9MXAG4AmUFy9l5iXLh8WGygErNRzJB+/c6AS3oX7hCI+AzNinUhdAZZHTRVHSYMt/Avglco1OJCZBMOj1ykO40UWuIoAltckodGOb0BwpdWhohBKAzfQwGposskDEOKaov6RfSIvVbtTbffpVHD5boc2D9f0VJr1rm3nQ5EJSW9OnpAosPV/lRcCNQrppWpnqLulmgWeC5TCh+xqE3h/qqtGEDT5FwsyJvsghNcwCAPJmU4knB3ibDWG5lUbXu29BwF2Vde6euCg6zOY/UdkHtGW/kOjqyXyC7R4tF7lgjUx0Hi4ZWRTG2udoPgeWOnp/m/9zht+z0mJJCC26o0lm9RR6TyuwrFfNEmFvNmJ+1C0U3Kcwe9duu7yks2n2T6NJ05UfCORHHh31FgkcxNNSK1pgeZRZ65wXgPIRZhnPLQisobLRFPMyjwl8H5CW3WWjYa5L6xw9HZLqIsuRL55KwfIb82ix9jNZUW9ipXpg5Ra2NpELQmrLHlzp64W0dApR+dJgXZy/AMiY/gbIrAJ7aQm9VNi6zWHv0t+BEKP7Xn1ZzTPdDMsoaQC2szUAvoSxDCFKaDbg64VAF3oGiGC0p+2UAaBzNgAbh+3fSA3PldAPqm0zjhntcWnQAcyGqxO3V+IA2OV3L5Ha2omwXIm1SHFNoEDl6l/eAL4EsA9/Xji+P9/fX95Xbv+PLyjtq8vLzfjmFw==);lineShape=1;" vertex="1" parent="1">
                    <mxGeometry x="1421.0094106172537" y="70.32242181062725" width="43.7424786104275" height="61.48205478662965" as="geometry"/>
                </mxCell>
                <mxCell id="38" value="" style="shape=stencil(7VrbchQ5DP2aeVXZluXLMwv/QRVhM0VIqBDY5e+Rd/AwlrpPVx63irfJRGcsWdLRpfvEb77ev/9yd0rh68vz06e7f84fXu5P/NcppfPj/d3z+UU/nfjtid98fHq++/v56dvjh8vfX94PyfHp89P38Qv/XnAilGSgUvhx+SZSiv998e4i/3B+vJVP1OMinygwkA9UeJHPFNq+fG5U2iJfKCH5QqEv8p1yAfJMsaz2MpWwD+BOPawAVRHcEBcSc0OZMrgiVpVWF3CgBlRSE3tdAZW4A0ClZJygXqgAkKmvgOFHYHRSG1aVpFAFftAw66vfSqKcIIDTCqhUMwSk1XE1QU8rQFaVaqUIHKehz2sstQiDT2+J1xOaUEYq5anxFdCm77cBYqO1J5jPGhom+Lr6HiRcatboXmFGj4Q0JzToaY3+lFdAp4BSNNjQUMAvq3YBYgGMVfInZGD0pg0FkUCg6E6oyNNKAs6Ghv1QHaCjaO0kqw0xBOgIRXB8LcLS94FSjZoDNMR9jaq/WBzgJueG60A0KSCvJUszomM6tkmqRQ75WjPM2MCToPdooK103CNFRJbZJqkSTUS3lKitrlYqgycES/gtQXaNLjRqpwRCI9ZZ066AMhl9G6BMt15r1bKITkhUV6NrnNG1DQiW8EuHKumlr5GhRQ7VLPXzWqeLTL9s08xsLK7ymRKquk6fBAMvUDX2xhmJO/Jh/X3p06IdfUx3KJqtIOrE6q/yAuxttmcY8kB/jYiUnELAARqkOVtAxZ1VdwB0RRwtf+mdBmBz1lrVLYBB0GVXSRRQwAniWgC5Vq9NQGl2yigBjgHaqRWxAKRSK/PfNwBE2toWpbXv0dBOIPR63wAwMFoBEhwAGD0KWbSADKL1d4dwA0DROoqxA6Cu5Kbe3yCQq8cRa3wXXBeGEY6TUGyM8h0tAI1LoxlsFoD6+tFu8qsArosZAOQIZRUHQDmqABF3rcgPbYbOrePQtbq2Z3D9gUruBNQTd9e6jfhGjmt2bB0ZhD0dnUoHOZqdSoxDwxJThNuA3l1J17kUn9DdCaiibOco6qG7WzhoMKH9wTCiWEDCVtu1Tzq61+xOyAd07FjggCxfCci2eTiwQWuQONqIoGhplfMZVHEdbdkC0OwtnvribKH2egHruGsPuNttuMIraLqPjskCnANGx+Sah3jQkznAwRxg9mkDAPzQ7DagBOho2ZBPaAR1kRcpwDGAfc1FXna8yrOj2447R0kC76fP8fcqX+AuI7oetzTIYJFtI6OTG9paxWJdUBmW9Nhsj6vTJ9qM6+wjayLUBpM5JUt5LeLFRLZubnm2EdsA1dgAKt7iVpubPWAbmh0QO8+f2FsQtfWWusAJlMMsrzfbGDgv/Vk3/gL8WTf+L9aN1TZjI17RBqFME28yQhBAqBqVhBhRWbZLjZ7gmmU8LlpvqXU4TKdo/dAEP5AK1MxCE4+6YxVltod1VtW9/aTpfKoajUqKH1wrXF6pSnbCSrgNiG49dm0x9/xgFzMBe1pmPZiAzEeEb6ocV7iN0nbPBB8HOMOxzEI+AaMBRAA3uGrtRt1YjvNB4xXAcPzJ2U7rbc5D2/J1LjCuboDsnR3x8VzhbbeTydJegNwt2T7Cxv2wylcnj14icIt3TNsili4CfulAbP0M8wL25E1EBPjwQ8RulAJcxogj1ABn1SEvRh49NRjy2cijR+NDf2svKmoqb+bOCHN43CcbebTSe/VLKIfy+uH3Gy8fzw8Plxdmbv9v35DRry5v1/Dbnw==);lineShape=1;" vertex="1" parent="1">
                    <mxGeometry x="1458.7124199633308" y="48.22816364229868" width="65.76022119817844" height="89.97856595888481" as="geometry"/>
                </mxCell>
                <mxCell id="39" value="" style="shape=stencil(lVhJbhtBDHyNrgTZ7PWc5R8GosRCHNuwne334UDokcnRlJDbWGZ1s7kUl4N+eL2/ez4eEr++vTx9P/4+fXm7P+jHQ0qnx/vjy+nNvg766aAfvj69HL+9PP18/HL++/lukVy+fjz9Wk74c8Zl4rSAEv89/8DUzz98Pos/nB6d+ChOPFMe++KNxJ/eqcm++CARJy6JhPflRagGQKUC1JdMzSuUhJoCQKfCHtCo5n1ASlS6A2gmaQBQaXhAFmJwgwoV9YBOWgCgkmQHKIUaAGSm1hygKkkHgELZ+6ExJWDWwsQ+jlqlDlQqmdLwkZSog9AoZhNvpd6ogzfUNdQmYCRKIJZqIfWxNMwMwNPVVKoe0CCgKXGNN1Rg1laIveOGTkNfB7T4hj4oI8CgFvywUsJVgLkp3GBHDOA4O6/7NzTzPbqhUfKOM0MLSKDLE1eAkQAADKMZD7AEEsRjGvPBUrSCRw/jpUACZjd0Q4kAy/KMADVayXiEQfAZQL2njakyyIflBh+txoWKbigzg1f27jQqBLBXyeieQfkxsyYfS6JU0Q1KKRQUgVRpsaQhNKiCN5t8cMPKIrvne/kb6TZiqGbIGIOjPhn7jGmEyJ4H7KbOCPIC9DfOzTWej4JO53HvGhKkj/m/R/ug9yoNr7/FIE7kQNkF21Mj25XZoewyS+AuYuRfq5I5yCeUAJsquNLAnn9Vgjy0P1OpUR9wvsXzSPG9oIpvub3MgrWbjynIZ1w7UuilIIuafIn5gvpNsw/HfET6mHzd5AvKL6EcmkcSHA8p6i8oHhKNHOQVvVc3zSyVG/mYgnxH+vyvvHX3Xt4KACLosWnqrMTAMtlnG7oCytTxOmDEQmxlEvXKBgicshRiEETCm6hb0vjGFd5t1k0I8vOIHZH1KwUFdt8EqpUGkPnmOQ7MbmbCLVQs3Te5OjaaaU7Pe8nG/g3WmSKz9h67a+t9K3hD3zRpnXE/kePg1QsM1y7UwwzCsAJe2vt3M0hHQ0ub0bwCKmzS2jpmrYA+u+HrgDRjc80gxo9YJojwiAHHTRsGI6DDcF1Cp8VXIyYuPXb8l9q+NzIPf4OFV0Y3cGSmrjCYcp2rkDVc22TD6wCJKjWG7Y5u5tOqcP2iKfZ3pc4Kdn390qMfFtoAKiXdVHTBO6cRpxbN8A1SNmzc5x5tbw0m/tFG+Ghf0yMv2RyFBq8yl3zv9nKoSuvsAddQhcVBIidluCXcFCuBO46NOEM64riyZMjAPCvrRRyN4Zt2jWc/uWeZKI72DmsgXsTRcGAUJFEccFyKUXDr9LAqxrprrMZ4g7iZ4xjOHRrHVob7mP/eit8Qt4/LAv7r6eHhvL9///+4sLefzst+/fQP);lineShape=1;" vertex="1" parent="1">
                    <mxGeometry x="1485.4379783145505" y="89.03399010177088" width="27.929605742066087" height="60.32534991668365" as="geometry"/>
                </mxCell>
                <mxCell id="40" value="" style="shape=stencil(rVnbbhs5DP0avxLUnXru5T8CNN0YTZMiTdvdv18ODDlDyjrTAn0bjw8liuThRXNK774/3H27P0X+/vry/OX+1/nT68MpvT/FeH56uH85v+rTKX04pXefn1/u/3l5/vH06fL7292G3J6+Pv/cVvj3IheEYtikIv93ecMklxcfL/jH89Me3yiIwUdqFeArZYvPFBPAF6rd4At1AfhMkgxeKDDAJxK7fmAqHQhEkmoFEhWkUaCWrUAjRirxWO9qUvVBXAt0SmzxmTo4ghBbE+kKuazxlVox+JQptDW+eBenTpzX+EzJhlzOQ8Ob+ETRuiwLdaB/pGwdUNTpyAHUmsULJRQSlKw9a6QK9Ane/rVSAXimbu1T+3izwtsIbXF4cKWPtWcrFBDnfby1ijlJ1Z63ybDYwl9sz9s0wkFOUUbaeBOmDPTPlK19RE8E9C+ewBIhgRtV8XhB9lF1rQMkQ8JoknMMk0IJMDJ0qtEK1JH3bpu0jAxyFRCYFpMmQWvUztBp+WrDqwC2agkUbBh1nHirmtXtUGBeUVq5RNQrReToNvLCVUDLIXCc+jWJFxDguB58ee0yTnVboI7Q3wkIIH/vVGy26zhb698tTALoDJ0ke4GAVeqTQMQ7uGjVNxlUzMA8Rd/VDsstqhdoqCj34didwIEj2rQDKmt9IvWbHVYCeVLpQMBVtjfXrATiFBsHh/akPjQrT64+cFyYPI2qw1tw/n70xUngIL7TTDm8Q5k8fcDROu+AVZLJSgH7oU+eRo38JiBeANas2xw90Gnaoh6Qeg5XHBuzmTpWqc6kBkVrdvXODn9LolKa8is8dhj94N53oLhrnXMt+laFQHRoJY1TnUM9qNbq6DzR4FCi3UB0lKijz7zdb/AUTRlmmhz86KkdDUqv2jMllzgCpMTWiVoB0fhCnXr3O0iDCVw7y+B64zqKxqp35akVDSDA1dGuE81wQC++ARK1GmBcmkwUBwUXw0NLHo/CIlC3YbQND3g4dAZlOBzyqPm74acB5lxX2w1XBZyXfcuq1GOgP3v7b8MhCAgedWY/fGK85XHtsCNm3zBUHKA8GsHdcF4AA9i3bTr8Rzg8F3veksa4u7qMsOfNAofz5PXP+PIiU7XrJ10fDrfuvJqVOhxuXXcUO+S7eP03DVHPSc1dZjEs+pqAxCoU6pi/V/dxjsEhUUQ5MfrpQveMSCW1oLvwGIdaJd1mOVZgiIbiYy7BnlkN4qpxxCHd/AUPj+q8xDeHRyGheHcBwzAFKd5diDKc40PzMYT7IcW7wn2Idzma8XWNEPvzwjtp8RxTPLKP+JrKw4FLvNcnI3uKb84Ylphb6yPK//E3h0O8Prx94Ph8fny8fB/Z/+8/iOiry8eU9OF/);lineShape=1;" vertex="1" parent="1">
                    <mxGeometry x="1085.701442566341" y="29.829768888952685" width="109.8300226159904" height="104.1254200649314" as="geometry"/>
                </mxCell>
                <mxCell id="41" value="" style="shape=stencil(lVjLchpBDPwarirNaJ5nx/kPVxnHVAi4MHn9fbQhg5F2tx3fMO7eGamllpaN3L0+P7xsN5Ffz6fj1+3P3eP5eSOfNjHuDs/b0+6snzZyv5G7p+Np++V0/H54vPz98jAhp0/fjj+mJ/y68Jhqm0iRf1++CIlC+PvN5wt+vzvc4IViN3h9gpR1fKaQLT6PExfxlYJ9vkSSuI7vlKvFdyoAH/RxYgipETMgZErREHKhCiIOjbollEQFpDRGT6iBOAFCpVwsoVDrQLToVW48olomNKpWhhaoyzohaZaCJ/xTZrku9ErJxlBJQNBFK9VlSWMAVyqqA1sdGJ6gSaw2Bi0NlNaWqFsd5Fruy8WqStu0hjrSsEzoo/gHgSlgfA4OzyACxZfu8B3UtuKbVS1SASorvlt8JgaaBebRjFeVqYHunA5wGWUqwF8mgs1oEBJMaDal6gionaecWstTkd8RLRVPaPiE2Dwh4xOCzWooJEg37R1rqzoWkGEoobkrhdF+qwRbGZ0YVZ7i7Y0KRfz8blUQKqDyNEXsCuk9laMVDc/BSeTk8GjsTFUkDo/8VPHOsSMxEkz7wJndmLz/2Wg6coDVLXSy3hAL4ATTUZ1xBM0R0nCb1RTNuqDiE7LVQPus4CR9kCB+PZLrIF0eOdmXqQ5S1GfTZuC2kQItu/SZAzcKiMCzXaGRgBjybBvpmSI4Yb5c9A6bYVpfnH0xbrdpQ7JpUgPJoJ91LjnT1iACqG/tx2bz2jq0VN0jq62NJnC70LkUnXIZjgVtMFdMpVJEpud356whgNlZvMfk6wK0LLT3+FSgqYq/f1KVQV3w7GUhwZcF9qu/yDCpFbyby29ltYIPbn/UxR/k/xrd1ePbyPAa3uZfFUEFMbNsVYRhvGzzo0Mzg3rg2YztsPE1P7M9J4J64OE7t6savH+aTRDU9DxWghs8Wmc/+nL9Pl4/vL3JP+32+8sPAbf/92/++tXlVwO5/wM=);lineShape=1;" vertex="1" parent="1">
                    <mxGeometry x="1118.2180933798136" y="35.432616829970925" width="86.23154577524792" height="5.613080230173068" as="geometry"/>
                </mxCell>
                <mxCell id="42" value="" style="shape=stencil(lVrbchs3DP0avWJAgtfnXP4jM3FqTV074zhp+/cFq+FqCayO4jfZOhAJEDw4wO5JPvx4/PL94RT5x9vry58Pf5+/vj2e5OMpxvPz48Pr+U0/neTTST58e3l9+OP15efz18vf378M5Pj018uv8Qv/XOxioNSHVeR/L/9h4vj/Pz5f8E/n5z1eKDeDTxngM4Vk8BXhK3FZ8IEi2k+n2Ay+ltt4CdRlwUdKAvCJelzwQtwAvlEUg2/A3xTm1xOfqCB8prLGJ1MKAN8pr79fKAB8Fo+vwN9c7X4qjGdRf4PBd/D7JVNf87NRBr9febo38R3mc03EFo/yuVaqbPAt3ca3QLzmf2CKFRhovog1KMhAD9TcmACPuDVisQYVGWgOrTEKkTIIatcdr4cWhAoyCJSND5kYON0jsVmhTq9uGRTjQydBKwiF9SIoU0S0gkzi2QwyVeR0olRXgw65sWfHLQnmkhr0Nfmkw9Tohcq6QkoUOjCoJCs9KuFEwL9q0Fans64ACKC3ySebQaOGVti+3hhMZg06NuhzA5vBnVzSzFkNlHUSilKfnLUZ6H1gaGBZtZCg1OiTpTeDBnlJDZrh1YDPodtcUqaK2Om++tAyzKXAKj1WblVuQ8VzLGGcaDj7vNdK99jrvBoMbkM3yGWfcltByVQt9SlVwS0pq6zJpMzD6CA0/Z1BBlFqGw1tBmmqsmODbO+oGmRATNUdnHrFqOyKlalqgOp00arI1qCBc1BWYeN0mRXgN5WVGmRwqVXq+RU6MJBI1ThdKYJLPcR2swYZXbnmfFA5BpzWOm6uqCa8IO1AJVl8BceQLI91XE/4AN+Bxzzz8qquNta5YSB+ARAhVXds8ahc8WwndngUIHZ6tcOrdoRP0F+u7gBAzvHk9B0eSQyNZ7F4hnhLj4069LfW9+G73w/wV6tkdP5CvNFsI57oSk5Ftz8vdCMpZotHUlv3736/gvgE2yxca+iNeDa3Hxz/YvujexcypfctEN0BI9b1DWSHHfA2L9kfAL7AjiASJgjnL0ogtn3LSFBIWOL2gy4Au0rcYAf/XnxyiqtB6dtm0d2VsAYIRXvXHqyB4CKZXFWFM7LsUqhMPX+z0Is1ECQleIZwp246WEHFitdPGZxyrgcKDal3FVz2HiQo3lXSSbcGcPTSHbUkWDqa65eH8AVhvTYDOy3e8VShOvEuqAHJTpYG3KcVO29VA7hCc2qf54j0ZoO9rqBhuLOCGYG1hicjzc78Rl93p4VffRhHifplv4JAWTp8MM2pFlJsYOrUaLBxWPN6H0YLj9q0Zu/DGBLgsEazJYazUTUwpWQMOvB0x/BSETiNH/3J6oO2VUgta3qbFfKdkVax+iXdmeNlm94pQW7trgWRjtM72UcWkqDE7mKjFLGmUlIxbZqWmIacDrbGxYiTT0nFzIRxW6GkYi5QqJhm2GZryPemEEYIBD04NGpvc9y6mzojp1udJXA310baWVmoszWAFUicug2Tz48N2I6PAh7L1WpTIzB8AKakYldgSPdl63e3gjIngcf4bLm4T8V+jA925tzgZVBlYhoArA+z2BH19gjnllQyghhPg1O2E4IC0zQFm3UZpoRUm3RpjoWO8WmOlq94NLwT9+xFKCF12xy3QL2t4SiGvOaBHOMd/wYoFnS7psELcBjvO+AAHzWNr6PFo/2znTEzLIF+hMVQNw88GzwaGMXt8eEVjybYR3g0jx7LB4NH9/HIX1Rej+KJBi7+vBjmv8+HO29AuFKJ5xXvfsPiLl4/XF/n+HZ+erq8DbL/3r7+of+6vDoin/4D);lineShape=1;" vertex="1" parent="1">
                    <mxGeometry x="1459.2033621017317" y="49.80991753906471" width="88.11615323581009" height="108.53015965351517" as="geometry"/>
                </mxCell>
                <mxCell id="43" value="" style="shape=stencil(lVfLctswDPwaXTEgwec5Tf8jM3FqTV074zh9/H3BOnJM0Nqpb7K8KwIgsFxO8vC2fXrdTJ7fTsfD982v+fm0neTL5P28326O80mfJnmc5OHlcNx8Ox7e98/n369PDdmefhx+ti/8PvMcMzE3muc/H68ohn8vvp4Ju3l/RaiFQu3wlbgAfKIc++8Hyg4QAoXQETQiJ4DgyOeeUMjzOqFkcq4jSKSaAcFRlY4QAolfJ+RIqS9SFGKwQiqU+iolpgLKqn/X0hMyzCF6yn1Zc6AE9kFT9H2VCpOkdYIWMfZJl0gBrOAzxT6HUimDnXaVXE+oQgU0q3Za6vG6ANg3oeosvoKA/FLyS29/jtMKgf09C2jn53sSYIpDAgHEw3YSFI/iH8RC5SBGhPcD3sH4zdzUjDuCgrf4ABrCkziL92DMxEpLw4N8A7khfgFTGagO+ATqoyM2xAOnfhGRq/qjfriFRwMW7QRr/3igEXHonwrzHTRI8QXkq/tVLf6jwmv9IAMefN/Zs6nFA+clD/FH2P9jvg7U/9Y8ZjzvAx7tl+qJwWcqoP9Vr5LFR6xv9+HjsMEeCop2hFHEUohBR4gjMYeSnjHo2FNF7gm5QE0PZbECF4KQgKLGRM6YgwSnMol1E1HbGrRF5qUrLwQPdTEnSn0OQeAgq4UyR7HaBeQm1DuUPiS1CwmEpPtajA1kbDQdcR+SOlO0D9pqqVcLLI5qTqqxvkv3rjlfM51q8kCJmlP2Bp9Q/MGquxo6FI/at2zwDlt906cqTyieZHcMm6d2Ntr6MLoYFCsWDMVU8cb+MXT5zVtZfASHRx2UguFh1s6iHu8We3FbHO+9y/0HQR8+r44v8253vnle/2+vmvrqfE2Vx78=);lineShape=1;" vertex="1" parent="1">
                    <mxGeometry x="1321.5337565910122" y="119.43432384164157" width="18.630247669027995" height="40.040228596793554" as="geometry"/>
                </mxCell>
                <mxCell id="44" value="" style="shape=stencil(lVrZchw3DPyafUURvPnsOP/hKsuRKorlkpXr7wNGRWrZnOmV3qRdYAfE2WjOJXz6ef/lx93Fu58vz0+/3/398PXl/hJ+uXj/8P3+7vnhxf66hM+X8Onb0/Pdb89Pf37/+vr/jy9dsv/1x9Nf/Rf+edVzEmtX8u7f8YHP/3/w66v448P3Rby6RVwltXNxFa+LeBBNTDyt4lEiFa9tEc/S/zsT9xLSIl4lVCZeV3F10oh8kLBao1EclW+r57VIIfJR0ipvFjoSqiQ+rPKF2pOkxTVW5gEin6X4Vb5JCOfyRVJeg5sl6rl8lVgW+RSkkN9vI5ozG1Qcyx4nYc3lXKlDVUd6DYUSJZOE0xmgmXFWbo4qQM7VRFNag6Q1yLWJRqIQRddDNy9KvGoKaU2LFvkZorS1iFvmbk3o1lbEszMkiWultTpOdaxgBigqNJYaeXx9pVBZnytSAyrkQhQsTB4VPKkG67zFoZcyU/CSM8ahkjhYA1Bwq7UEcgarUM2o4IhJQUe5XOUSC1xIkteaboGOp2g1DdnqR4UcKyTsMk3poZOKVlRIpERTkaCowCKdraYTKjhyhtykglttUhGTSsLBaQqFpHdViREVEolDzVscZrc9bt7WGDMqsENbIsD4sc5X2BMyZqspBBIHq6+6pka1rsGeUHGCmkIgudSaRDiDQQBmUpO0NgFzdGNeamPEXg0U1gRMQeHQUTw7Q5UCh/a0CfRevbbK0sSR5LM4hNWkMov2LNJQ00UHFjpWSJjeOY9PjhWmT66wBhtZ1oVgKCZrbcwkRTQT24DexxVn2b92jWgAk9V0HfU18ZtNIKaQcU53gEgObZkDTcBzhGuZA03gxr5gcCqvZ9BK66HMCp4Khj6ISWXr3obRmEll1tdsZAO3H8tH7PZlfHAsv60ZE7cfy/sByt92KoairVQCRJk2veKG/97kA7HfhhXIezqrDJPjGjMwwbH8bIhv8sz/OWO8PJ1sXd6hPPGPyUNderr15G2t8nRwHskrqeIuD0UpjjTTLg9rKt2Cu38CyvPzYkWOsXsqXz4ib0tvRHuYPwsuSBwPdvkP+bMgDPEDUJ7KY/7QfCg4Xm/k2yQF3pnPJo/5dqNeGtp/qx43e3g+1M0e1k8sn9H/bNR3efRnuCGP9jDscfT7eqM/oP0MbnX/wACjE3L3v3IWaIuvUoD5YfmK8+JGPTacj54yKDa/IsYrE3vK3Pbe5p1n89ojbRcp32LzPQPtRVlKww8V8YNj583b/krRtwGgDPGyLZ4ptOGPKx60khMbiGtAnNbBA5/BRBgxFrPCgSjWZOHUY5a8DgGDupGDaciiUKSxPcthWze4ztxqC0FZvWQLAfOSLcgA/GzlCMykOAyYSw0nvNsGda24GfZo26wvN55QsHkVzofacgnVZoifJZ/tux42ah0N9kwB6sGyi9GbpgCA1FZw9gR1ThzYVOjOYY/AHbzSpmQKMPRtfWRcuQUCD9Eo9W2hBr++g89JqBDZE7abq05isWUxj/R/J6/WWa+NiGMbsiUn5HdTWqOduQuokNn2dMQNsmTq7KNHBbYvJt0C52kuxYSclCkwIq5ztB8idUPC9LZW5RhtrNjJ2pySZ0w2zKzGa7RfrsETMh1BfULBoQvFGf2mFQJXKVDVNhioqcAnuxakK3tvI9nab0UaKrBcMgUw6aq3HWuk7dKiUbpC90BMBvNMwW03NZG144iD1yKX+BUbXk9lurJpxJWt3bhXDNu1CF9KTEGBBm5cwW/MdKKIqYNCGBCO7m3q0K2GZBk52JCN75sBcVLFPSMrBScVeYIU6OKz7dkx07TImKihjQF23IjxXYgQKLCPGy9V6OIZN16BL0rb5FGOcP349moNYMNzyzidk+g4gQZtOBOOEuqK1HKm3tdB4lyxpiS4lsyreKA9xeGbKEpvlx1SLvzybYOPjl6XHIizSyuHd+mO3g85LCtH6S6HwNRRNsRhEToKYx3uvo5yJw7HFx9e2/skt34d4Oh01Yl4RL+zq3OH2NXRsfjh18BuiNsfb2+cfXt4fHx9Ye36e3xDzT56fbstfP4P);lineShape=1;" vertex="1" parent="1">
                    <mxGeometry x="947.0336791105069" y="343.4307574417518" width="228.253753837359" height="138.23959838478402" as="geometry"/>
                </mxCell>
                <mxCell id="45" value="" style="shape=stencil(lZrZchw3DEW/Rq8s7suzk/yHqyzHqjiWS3a2vw8YpUfNy5kz5Td5DHSTWC4ugH5I7759ev/18SH6b99fnn97/Ovpw/dPD+mnhxifvnx6fHn6bn89pJ8f0ruPzy+Pv748//Hlw+u/v76fkvOv35//nE/4+1XPu5anUvT/HD+k+t8Pv7yKf376chIPzq/iwY1G4mkVz64VEi91EW8uDhLvfT2Mx8dHF+XwxQWUr22Rn8aB2yYXwipf0ZjJlbTIp+hGJvmxnj8N18E+2cX1/Lmit7Kav9gbPcl3v8hX73In+bGep1ZX0215846Eg3kQ/FVcXs/TLH4iybfV/t0CEOxTnR+rfHEJnl/Vnr0fHr8q35xf5UfA87fjtBf5dFjgqnx3Yb3vKEfE3pCva7yN6jLYf7gg8s1liP/h6uqv0Q8LX89373pWhQoXCIZOQRUaRGgwA25voJQ0BPnfImcFQkRzwnbpTiAUXN7uQFFqYR2rKgRSMD+scW1+qxB3yVA8amAMcHT225EqZrIBVZQ3mKHhDiW6Io6zQ8KRirmpq0KgZN7QxbKNgq8FV4sqREhPQyupB8PqAeBFj64NVWhgpd4OvDopVMrord6bQqGUtoqxvSGDWS0Q9jcEuPTEFEE9Q21ADYv+JJ42HKEj9aOqXnB7HAF/XWEcfj0BfQTUMIUkChVDY75hvXRPmKKm4EXBYwJNYFwd1yqSC1OIa7RadR6k0LSc1H7g+a3QGOsbaj4qxi2FIATDCBukqIFKWlO0WDjSG4wirY4rRkIpWpNia26uUwJFTaCcsUibQlzrg6Ft4Zwu6xtScwGKoqWLHMkKgKcjXXqIi0LAwm751VeFyT0gvE1BcnqSLVKwUBMunw/wvKUQV8cZ/c4Exk3ZjPUPhdhYVfo8Gxq6Q3E9qAL1Iz27PFSBwrtfysep46mQogYqZagCFXarcdLDhIEg0LLWOFOgS7e9Re0IZNaESBtgChmOVIPmgylQPhio1DW8Q0OzGqj4TSFRZ1UOnDsrEIUbrmwKdOmUNIFMgaI1Xqj52aykkDS8w6WhuE6lhwKZ/TKI3W8UzqKVStbsH9b6YDlNRxo673ibCdyQlxo65amcHBT1LE/1yvnt+Z5A7KDxp/siA9VMMPmOHaX0Y28zllvyWeUL2t9vGEygbfJd5RN3uLs82l+LyD35tMvjffN2HmTb2iVNe6J9ZMIw/YUd/S5PVXZoxxMv9OfWfSU+LZ5RPjWV53yJuzzn43YeaiKH4vo8P9hza1KnfThfNnvScOFaPlKncy3fqffqOvGb8UldiPMb3lKxH8f89iyPePtj8lYAmjggYEJaidEI8jh8sZKVtyIWICQsYna6QqXenFDWS1vlLlAmZ6mXN1Qsk5NMeFWgRi0XnUOYAk2OJyHqqkCFYFKuoQodjjRJ3Ua5yHGTNg5VoEsbMQ0bIfJMfZVydWxyWtdyH3gYafRdrTRwY2ENQt8UGjUIWYdglg8ePN23IbspEDG1vktmi7PJIc7SNxAIuOaYvaOAwB0WteVDzNgKWsPsBVcrbr5MQd/QjzHxzUHeGnzJ46VH0FI+YYFKW9ThS+Jt07iUptPgAslX0n1K5v3UyC6t+ZAbjzuLhoYBD22oRlXCWQoSYFPoq6ervzfulA67Zqa0XWeLtR9ZfkthyNqMScMY256tMssbxyj+PIzkcaeA8Rx3gkLwXh0xJ6rEVMc25O1MTbaO2ZIwkqu7coeZU+xqGRNYilDXP+edURUGZ9DYVxJ35v9VFRIRvqYpN3eSpBB1CnZvrdIUBUyBlh5zDyNbkox1d256tl0S7T3L2HYYGfdhJW6bz8KEqWojab4n4jqhVPzQsPNJ25xt3JnvbEltAU+ejhvpGwObn7n5rKpAbwj7gnsgGl/Z3g7e3iadO5+Q51YHofE9sMUN/iDnJwX6qmW4uskTamwznglU2FPKjMECg2dCwjTeat71/NxwteAMY9sKTcCgdN725wGpUtFyaIWhUm9ylOOLfMECXRRSe0BSkrXfm1+18Fc8WzknLpl1dFwrzniyJpkxGOpKkhbaku585STYaKSNZjxJO25rR6kIRt01GbGlDI5aDWZE0Qjg6JXPDcyPfPQ2Zwj4/CAtmEe65vW+DSu4PwjvxfxH93NDXOpMxF2iV3DwOIrYWJ3HD4quPJ0aCq9lm3dXXr/c8fj1oNd+iBvfy7tP4oAim925DHkFqXviRQ3Jh5Ee5d5Vhed6nHh51/Qw7KYf+qL1rrj98fbx7Menz59fv709/79+bGs/vX6om37+Fw==);lineShape=1;" vertex="1" parent="1">
                    <mxGeometry x="1211.833641497779" y="357.8372279605919" width="150.17378780413992" height="120.19469310208774" as="geometry"/>
                </mxCell>
                <mxCell id="46" value="" style="shape=stencil(nVfZctswDPwav2JIgAf4nKb/kZk4jadpnHGcHn9fqK4cEZQ2077JMlbEsQCWO7l5fbx72e84vJ5Px6/7H4f78+NOPu2YD8+P+9PhbE87ud3JzcPxtP9yOr49319+v9xNltPTt+P36Qs/LzguJGVCcfh1eRMphD8vPl/snw7PS3uloJ19olq27SVSlM6+UU7APlHq7aMQZwBQSrkHVGrghJQocgdgIZFtQA6UHaARg5hzJU4dQDLluA0oTLX2SY3UGAAq1dYDlES3AVXm782AbHUDWaoWYuwAJVADJ2jyhTYnAyicVsp90JVJgUstkDiAEjcAYGqhA6hxCcTQMkkftDmJstQqld4lOzMAl2IIc3tdEUoNBdFI+lJPbwCZzKcsHlBAS7dEJXqAAvZZIVrygAYaQgu1/oRFHtYRvHYEaFLjaxoAf5tqHVCoqgdkdEImHvLKCJCoOXLoTMgtl0L0gAy4MfE/e4CAymmkVDwgIkCeO2wBCAhg5BxcCoiu4gfN5BICFEpDWmFD6FBpnUfPVsu1wSVFc6PNU2JJDewSVw9AG8ImUxnYivauzSFmD0ANpINLH/ZoWmmIBvKqYWUyKeogG2XZAwpIk/XoOMrQbp96dAAguv4PQIYVEdFgYr8hbAmhcVyMOj03bM0J2Lzvi3mxSAW4VJIXNOYkIpNpBXXqocKgcybtB1OJcApMoqyPwQSNgllpss8NJpNMGdBb2qwVrgCGgkaESj8rTfYVELRpbxe0CcsEKs3Bu2TSNSG5kQZ1f9XvG/pknu4L+Z1AlopnhjUoyBF7zWdFA+aDWDJSAGeCdyZAQRn9/ApQJ7GX0GFWZusMJQ7OHK0Eu7RkZw4LFX1qAhxDxoSo3h4Ea5cot/gDJL/9PXw/gv1k2Sw+XqRcjCiOOddb2bp9nkv/bl+R//96D/7Q3h7eL90Ph6eny519+b+/pNurywVfbn8D);lineShape=1;" vertex="1" parent="1">
                    <mxGeometry x="1003.834634614589" y="131.43560672761532" width="4.290050737962247" height="53.868971836921446" as="geometry"/>
                </mxCell>
                <mxCell id="47" value="" style="shape=stencil(lVdJchsxDHzNXFEEd54d5x+ushypolguWdl+HzATTgSMp2Xf5HE3iaWxcAp3r/uHl93k3evlfPq6+3l4vOyn8Gny/vC8350PF/k1hfsp3D2dzrsv59P358f575eHjuy/vp1+9BN+zTxHLXaSd7/nDzVS8H+/fJ7xx8PzFT4TZ4tPZRvPTMEQAtUECImi1wRPjbcJ4sI/AxaCI66AkKlWRSiJat4mhEDFEBw54HRkYu1D9vCGWKnqNKREDqQh5RGTQYiSmQjyJufpG0Km0rYJxdsbfCEPEtej3hSBG3mQuFoo6LCKWBLwoYlygnYaaq81cvoCSZuD+JAMngPEZ2fwDdtTNd5TxOeb4ozDwLdLxy3+LbqjBAj9AlM6VG44oIuZHVWQ4h4hfQHfdDnqFHOgiE0yDYkXlbxNqNTc6gYUpEo5r3xAMqrD4qsoFVD9QrA9kgoo/o7XQcoUQSl3vK5M0RF2IOnz/ThgC1+0TpepspmCZvCM/JU+kg3eYdUlb/AZ4439PCbEZtno1hiGzDfx2t80GsE78XU07028kbQEFBtkHWZquFEk7bEUjccu+GQJaNx8nBDtQOOlLLbGjenWkoaA5pOzm0jwsL+XQKx9kEUACVWGstedIskyA5SXyhhIC0FyjxYLGYHapFzhNiUWB+10yVCsshw1fYNshKiaZY1w2ofmxpetBS/rcpDcJ2BSXyF1WFuBLV7UH7U0etMHhNUW3CsK4Fdb9tWo3iAUXl0ApOdGQK7wDM8PbB1GOXArhzNsqc7KTlKGRsJqcZFdj/H5Bs/kgehW9tQ2ls/3+Svdo0B7TDxrJg+61ypfNd2w3+ihP7s+Irgbz7rbePnx/w35dDge5yfo9f/tm1M+ze/VcP8H);lineShape=1;" vertex="1" parent="1">
                    <mxGeometry x="983.0381258432403" y="156.54541407059287" width="59.94358658087094" height="7.22064805466448" as="geometry"/>
                </mxCell>
                <mxCell id="48" value="" style="shape=stencil(lVjbclsxCPwavzISSAI99/IfmanbeJommSS9/X059ej4iGNvp2+OAzKCZVl0kHev93fPxwOn17eXp6/Hn6dPb/cHeX9gPj3eH19Ob/7pIB8O8u7z08vxy8vT98dP57+f7xbL5dO3px/LCb/Ofp0sL06cfp+/ECPrf7/5eLZ/OD1u7HMimR2KUMUOzWYHo96AQ6bcJofK1At0sPkXqo5bXXdgMp0cmlBm4FAoy+xgpOjSlUqaHLRQTcChUa+zQydV4GCxcFZIQJY4kc13MCMR4MAxrT1TBWnlMnKyOggZqDQbtTmkXklBlkSoz5fuhQw5KDWNIZV626Ew1RYvzaDSDubCu7SCLNVKPFfaC1fstkNjKnNaLUG0th4Lp/6bICRVSnOWNBGDtJpQm0NqlTJAq3UqZXbwO4A6eJn63ECetwyy1BvpDI2K79B1tMvKS3WU8rpDjR1XElXQQJ1jWqXCBrIa0SoJplVbJDLvwQZCai1ya+4koEVroTS3qHNhQ/3g7TKDzweAgkqzgy9gCY8Hp6VQN0rg/Dxgs6Zo8OBV8zRY92KuoGQpdr83Kwg+xfQzZYDRRGk+PVODp6cczFEHeDBzIv3u8HTpwVwAEPyweHoGec+DDi7mCc1LqhrN0QAfkNoEA2LniOEEGZpHV1/MDXQtU5upLZOA2HcTKZPCYEKZGIJgBeDFvCKtRSrBHGFmvdmm+cDpKZI+Qw200u8mdghgjuYMmSDVkHckKle8bqoKaClF1lvvfqv5UjBHk8Q1NwdzJAByJI40WP+GeZFoDnv1/8wlbhhOY0hFapz8BSLeJ1QPempc/9YIDKj0EYQu0JR4pj5X92gEqg02WpHJUB2ZDk26OujQfNelSIlc71IaKe1uUR1J/8eat2sA11OIG/wnQh2qjzekCV2Azaj2PQ/B2qV7uPWipVFeXSeHxVChnvLK1fkOiilL824xxJXzzTSMLmOoj6pjbc6SowWtnqWPhX+754E7FBdcc1p7geQlXumwhXlI4NKy3yQ7HNiuk8MvbPB4izVKjj8Bdaov8HNeHcBI6+1Hq+8ojHRBilJ1WVbRdLWIb9+zkPLIO/m/rByIi8ug3s3uqWg08K4h6hBTtx5veE6rr68NNXUU6A0/Mtg4bSUNG5W/3qE7khH4TKJR/Hk/MSJ7SnNGi3c4IoA4yp2IUUL39gbzs6MLt0cc2eI0dPsE4tEIOVHMkENqb+zRlq1xHXR7AfFYVIGi8N1sh5/FHlDRjuuW+NFUi6N8yQ84vw99vsl/xv2yry+SClcehBG5//sB2T9cXp8/nx4ezo/X2//H12r/6vzSLR/+AA==);lineShape=1;" vertex="1" parent="1">
                    <mxGeometry x="1048.4443092084252" y="155.02504957753638" width="38.433572294758505" height="35.240640763193596" as="geometry"/>
                </mxCell>
                <mxCell id="49" value="" style="shape=stencil(lVhJcttADHwNr6jZMTg7zj9cZTlSRbFcsrL9PmCYkTQYqh3dtKDJAdANNDnFh/ft09tmCu79dDx83fzcPZ+2U/w0hbB73W6Ou5N+muLjFB9eDsfNl+Ph++vz8v3taY6cP307/Jiv8GvBCVMuMyq438svkYr/+8PnJX6/e72Kr4WidPGpXWA1nitl7uIzRXB9dhRrF19gfPEUcxfP8Dw5kOvjhQLfjk/B1sf7VoFVQIzEsQck8vU2QAvC/Yk8k4CUvZDvWxACPJIewOSsRaogaSHpU4iJggNNI+96TnhyqAm2Z6lSBPGJas+JnElAwplCf/6ipAbXL7YDykLUASGX+nglHaiPD40BDVAjBdTiYjtWmRhkHBzVnhPiKYEWz7LqeS0JCiEqx0IPUOIiQCXpqySaFahSOv99dSTJoM3JllUiVTRcAiVvy+pAWVnbZPpQ8B2S1aYCGAEy+XjXHZT6bHPwSJyFSrSAnABAa2IAFVeJhxwqMT6SGTBVpzC6Q6E0AD6oEvedFgcVp42rwQL+3fMWNSoPAKAHJZ8UC4ioSjo12CYtaNd6ymIBCaweBQQDUNGiI60BYOPGIzHWw5g0t2n+n2WdBYQ1bbbJLNGAqTFIlFEfBvIpQFAflN7JJh0xwAqIcePWJJqwpu0QkHvHjFAB03scZKoHOGbuBahLyMbrcTNn6xuImyDPgAqNgO64ZLybc3DJBRmmgEDvo96uFJuEB3T1QyMEux81tMkIQrBHHzSt1gEslGSHhj4UIEfsSfpRrFMkgrY5ayfV7jFgnrM+Q4mC7LCj3MtZeVKRox/srWs24pYd7uuvXgvZW2lW8GznCxyRXnXQFzTgZagZcD+P9BJoVUWlUH8HJRU6klbE5KB7BJA6uzatLo+RyBoWR970rHn29Xix7jZAzeh4rP31PRVAiZqpmALBaSrnDdPilbToiYTtBsFjSOeaqY/D56ltRV7i0d7XoWaMs4oI1EfOu+ISL4A/Gi/O1DOC/l6N5QsAPb3I8AwcoGQ0np2JL4DQskI4qPlq/ak+mqCCnvV0iUePqPe+B/o4Xj9cXjq97Pb75Z3V9f/2JZX+tLzgio9/AA==);lineShape=1;" vertex="1" parent="1">
                    <mxGeometry x="1090.7713499258266" y="160.21699750244704" width="20.6145196719649" height="32.22432524676151" as="geometry"/>
                </mxCell>
                <mxCell id="50" value="" style="shape=stencil(lVhbbhsxDDzN/hKSqOd3mt4jQJzaqGsHjvu6faku5F1R3gn8Z3M5kvgakZr46WP/8r6bnPm4Xs7fd78Pr9f9xF8m5w6n/e5yuMqviZ8nfno7X3bfLuefp9f5//tL1ay/fpx/1RX+zLhAXCrImb+zwFDi/4Kvs/rxcOrUU+7UmThsq2eqn1bqiYzdVreyeX8akVgDAJ6Ye4AnGwEgU1aAQgbs4Dy53mKRRL8NYEO+t1kkOQFAIqsAiTzwkvdkYgeokgKCZpsTGyCIo4GXQqLY7yASB2yI3LKmAUTC4EixENseUMgCo5PENfSpJJEBO6RMUQEk9gCQHaUeIJICvJQj+d6tVQK8lIvOVpEgQLFUUgdYJPcBvpXjDeBbdt0HFCoKIPXwCSBrAIqDfE5GAwIoIPlsowagbC1Zx6EeEtmQKNgBgGyIFNJDgECxDABAMxKmMhoNiFgAfghcwDs41gAHuLvmknJrbrHfAsSkAdCG0DJnBQgIEDWRLbHfirRxGoAuLAHoesiQyKqJow3oSGUIXG7JsgXIg1sL8JI1pl1p61DjM+UhNzwqOWGyoSCgEXnIjQJvRQlEHmsUZV+k3BPTyg9b6afZVbZAzBTIDtyXkNWewkADAZeQG47EmAYeA9Q7SBGNhzWXk760imtL3Af44R69pdd9gKXse4DEEuwgF7mKQ2ZotLQKpvdSkoIAO0gzEoZuA3V9UYzuiUaW8CDSQW653ujaQ6GejLUNtUsDR/KxxfUGsK2Hut+I3mp+1VciG9g1plt1rqge6vjQ28CWHLBBmnNVQLIEnCBunfCqv0fZKhv0cZMVEH2H1kOuJhSPxgHdzCTYLZnm8GW+8iCxB6I3jTW31INSj6BPMq0/WNSRqUbHykBTrZ5iDJ7c2lEXdQPUXcurlTrwjNNhxVcH69ISdVSKesIzcNYRqtGrOziTG706I+bRA61pXLeh/uADwSfq8mN5i3g7HI/zU8b6u367ENH87sHP/wA=);lineShape=1;" vertex="1" parent="1">
                    <mxGeometry x="1111.833006934985" y="119.43383399140384" width="21.038494096890645" height="73.66895522650782" as="geometry"/>
                </mxCell>
                <mxCell id="51" value="" style="shape=stencil(lVnbUttADP2avGqk1V6fafsfzBBKphQYoLe/r9zMOl7ZPilvIejYq9vR0eagN28Pty/HQ+C399fnb8dfp7v3h4N+OoRweno4vp7e7dNBPx/05v759fj19fnH093575fbyXL69P355/SE32dcZMpxQgX+c/5GInH9982XM+Dx9LQAaKbQRoBSLQAQSB0gEfM+IBRKPAIqRfCGEEllAAShCHwITHV0OiRS3QdIoeze0PojtgHR+6DmdAYAoZYGwJQZ4EOjrKN9phT27Qu1MNinQFH27TO1MUSpkoLnm30d7HOkAJ5vKR0DlC2i4PnCvco6oCQKCBCpjG+ojAF2gDHJNVIFVWE+y5izWqmi3lEKeQA0a460D7AaqGPvNCsjBKhURh9a7onfBKRMOkapFaqgO7P2XlwAMmiFwj5KdiTkdMnEY2k3oyTgQ5VVWLl3xzYg9VKbE2fvbABg3eYyzZ3Vtrsz+DwUpYIAVq3jkXKmjAArH1KDYW0zxc0A6T27DdBOojPFRMqAhy1KrkW19B7cBhhxO4ClEpVGIRl9MOKOqFprJ6EZYOUIeNhYTtzwSZCHjXbb6INReQE+2CDwtUQJTTdd5a0/YJvGKI3NEEhAHbGfOwESDFMczaWT5o65BGce4WHYBZ8EUAv7XDEVkCr2I8e+AKXAncsv5gGUmvhuYRjI4FmRsSjys8nMkejymothX2mfcxdzpCXiOu4VDSXvqkBloF5JzBW9Y+6kmVUkNOcxMgEyf/D1HuDZpRfgwhxJjl7ei16F3ZR9ezRQM+y5Tzp+r/l8rwbYHjyena8dxrcHyip78TbjdwIZijNHWRUvhq81X/LdxEgXftDcJN2Yp7mktyvY9iMntWFeY+u9P8ujriq3Zyb3+bXY8BrIVRGfW1vYMgDUVSFPHIEAtf97DhHDhc20ixPOFjUBQWqrDS/O4mQb0CiNgIS7UXg13UyxJeRE9U7kAivJhLXThMWcAAPUwpTHvjEtLVji5fEN1eIKGtMknttTTRoLoMRSvTwy4dqQJhSfOYtbQvWtqyM1WN8p9U15rm/GhBGL51I7E3qFVs8ZV/Y2XQmxaUkCrGGs1JzXuIUkd7kzp9oSgUiV+4azKCZ0lZSpjBPENvoCim+lI6bVEvKwu9qariQwbzuhXWGpqk9Bwto5dcm2uLJBe23pp11cCaGp1jyrauxjcTthJm6c/KjwKs9WIXVqKEKPp4u7kbelQYm+FlBWhgoaJ6yOZMMKrUcWJS9zBF/a5N65l+6HtwtRVkcS2Jox+AsPA6BhFVeVLQIzHdXPTwNAha+UVj6guzADVKdNAxwME6B6QEJbhHp6MQCiyA0f9GqUVgC0mk95UA9Al5hTpsUDEKdOteTegK/nP3yf/x8A+3D5+eD+9Ph4/vVh+X//c4N9df6pQj//BQ==);lineShape=1;" vertex="1" parent="1">
                    <mxGeometry x="1163.3288506735303" y="157.5676962403262" width="24.078398686629953" height="44.90680340682309" as="geometry"/>
                </mxCell>
                <mxCell id="52" value="" style="shape=stencil(lVnJUhtBDP0aX1XqVm86E/IfVGGCKwRTQLa/jyauHtxqz3NxM+ZpRtvT5p3cvD3evex3kd/eX4/f978P9++PO/myi/Hw/Lh/Pbzbp53c7uTm4fi6//Z6/Pl8f/r75W5BLp9+HH8tT/hzkmtCoSxSkf+evonU4v8vvp7wT4fnM3xVqjzgE5UG8JWSDvhCCT0/U0gDvlHOAB+pyoAPgRgpxBRHg0Milm2BUqmOGoVKEZhQMpU4upQpVyAg1FwMhBS9IVIZjY6VWIFAoJZHASUFbjUBGQUkUk5QII15IaVnypYNafRSuuKlRM1lXqJagEDxbk1rKC8LKOUwCOTQs3Er+dpoQ06kwIZaKI8qZe3peFGgrT5Z6SPQrc18MtpQWg/lZYFGZRSoVhLCtoBG4jE1jOMFEEiTj0MLVICXdE3mVSCTgPTW5ouSWVUBgVT7v7uABsrAhsBMPL7CzEJVwF7BY+TUCAECYVaHkdRmFiKESqfwKqA9+JdDrSSjSmdmXZYQkuBf0YCAlW9pXoBxsdTorWZgRLY3pMmvoOBblYhOpUwJcE7EtyALNWJEDJ4RxpEE6sal7AvASUzqosAkIApMhT0+AgPsaeLxKAbsM7UppBv3FDjDC8js9e1ndFbAf9Nnon8B/jdvqMcLYD/3EeQMjxKCfbc1PKKZRb9OePB867UTHvWp4PNtsRf436aFyT8F+D/0pncWXwalzvDJ49FQGHybXfIN6l8mvmB95vyPqBv4/LzKxzrzEejDlGb9cf6r9w8a4u1ps//h813vMzyuV+wafoOtj3snPcOjfDD/zHyE9aTOfIT55vWvsP58Fq++nps+qKvaC1zB0rXkbbUw3yQDHH2tSbo1zaYLBgLWhvPUJBEHbBoPLqkzbJI2Sriqa41eQNTabHQhBTResrhMAmj0FV+oFW+zy2hSvNHIrTqty8sogYbA4reiptiG1eurwJW5VHpcVwGBbLPczGM5rbbkAKONLS41aoL1yxSIow11LYFbVws3oS1LOkgNU8C1KFtwI9rsgp9B8jrPb50V/CoofYXe2n8dHzL3FWNrw3bZavsvGiuKBW7asAXN4uqn/RTgLJ5b79vrlUCh0bn5K4FgipqAjASSBHfHRaUxDoJLpRntpq/Y8C2FJ4HcB6ytW4qOcYixR2brgFTHOARTCcTBirHr6AFv2KX51AixN70tPvgZgxrij/idpfTivHVJCe5ABWt9tQnW3znR81v0PZ37C7fw7mDG8Kpo+DLh0SYeSb0+yP9zicQV0vCpOXxCtwTpZ98PPLoDG76NNT7AWrTg3a2CBNvrjkwB30ImyuB8Xux1J1e4Qi3+jA6PGs5n7/DX8fbh4+j/cHh6Ov1mcP5//yOBfXX6gUFu/wE=);lineShape=1;" vertex="1" parent="1">
                    <mxGeometry x="1183.2653467543578" y="155.34533675567184" width="51.73018549771177" height="44.10844315370309" as="geometry"/>
                </mxCell>
                <mxCell id="53" value="" style="shape=stencil(nVrZchw3DPyafWXxJvHsOP/hKsvRVhTJJSvX3wfMhqNhc6a5ypu8BoYk0Ggc5CV8+vH45fvDxdsfb68vvz78ef369ngJP128vz4/Prxe3/SvS/h8CZ++vbw+/PL68vvz19u/v39pku2v317+aF/466ZnTYhNydu/+w+p/PvDzzfxp+vzKB4G8WBipeJpEE8mChUvg3gxJVJxGcSd/uKZfPSjfDCeHjaOu3d5sf0I+xFTqXXS+P1mTcvksx3lsxH6/Tx+P+iKdP9l/H6IxjsqD99Xf1F71hE80RlH/SVulNf90PP+Z41NvhifzuWdseP+oxgh9tfdjvtJ3gQuP8I5RROJPZ3xIz5TXuzfj+dNxWTiX4exnqoR+v047j/bxfcBb9l1D57IC8h7U8n3vfEjPnMwieDBmzTiLUfqLz/tJxkfzuUDxntWfxG+isaBfOl0eiifjIPz1s4Yh/IbWjZ5jmeN1tE+xVH+kc4em3wwlsSvc6bmUSGakolCRIYruf9yrFBMHSFdqslkBcVcGjFdlZUIRtUJQHJVD022FKacV1PH7bHCBrJNofRPHMPIGj/6oUpPnMcKCROZKHUQKyWN83FLwg+dJitJpKmyMcnoB9k+cayQsPKQTLGk2C8jW0vpfHAcDcHUEXxSjSVnKKWzz04hEStV1424UyhkhRqNDaggxNM1IwU3BbaC/necFAiHiYbLtAILIPGdU3YKmfhBwoFZAzlDg9q0JYZWhZoF8BWKVlWII5Ep+CpfAeGdjWVmTaaOuV9PFQi8mwI4LtBk0hTgDN64xQrgBy2wuIIAkYnJJD80m4zQUDgyqmwKwHyZBpAq+JEEKk/pqhBGKyndswykCgkUHG1aGm1Bk6NWYgqlJ9lNofQEcKYAdaGmXYrWgkmxeFqYqwJAQ9mWVVYakA4UtJVifqhTbRW4lSqaVYtPS6hSBLlVq2GWUFTBQ/mcacpShQj9QqL1kiqk0dNpAT5Bx2lHwjLQgYLjvCTYA7QeiVspQNNWaVHf/DB6Wru2wqxUMQPFbNwCS6PjtO9kfdWBgu3UdqpQUWGB1jStQEvv2pl0p8B6jRYPDhUcaZbe0/h+hYUfBBVY3doqi4wKbNjUoGFRofKIA6qMWw9+7wqODrQOzuA4a8xWcrSEawqwJd/7wHs97VfxgFjyxvIzIFodj+k5HrbZwP0husDSrECJrE5EZnv7e3roKeIid1ya4oHmafXDxBqOK5SPKtTp0Is8LTMv8RVkOvQii1pAq+Pg+x8KMEXW/pf2D4IlXFxU9zL5ofJSWrAy1iyaCFqdtUhMLVGzNkvQc1oKLBwBaVSLDZrkpoZayxnaogjO31KhDfVcOyThdah0JOyKvkVZCZ7LkbeKE5PlRccxV7rSe8E7a2ktvmnIFZNHK5XEM3vBnqbwObEqOGjkbC+Wz3oamJxWz/PuZsRNIXJ4Z2yotZGjFVbGy5Va+vj+TAESRK28FMg42NB2l05CMk4GxfHMnvt11q5lp/SdsfMTfj/XFGDAFHuUnyk42FLqOeZ0KAAKmdNMwhmwwpFGnKJ/GmHRRB2xt1wMySRMWxKeUTx2frLo8eepGsfSwdxO6F3OPBnc5Zh7h49CrxuVJKAWaIdg9w/T3KGlDHLqEpA2VIFFUOPeydUs8bYx8zQ1pmPmrdG7cy7dRuVTBDG+T9O1r/Cc1cb9E22we+5WpwL6LL1QCAlvshSPrBQIW9m5G9yxq+V27QKDO54g2sXOeOjq+kj1uMQqiKU2hyPwdhG7oJZGCZM5N62QeILo4N/N7egFBEKvVQ7kBBmJsvCaMvZGdVfKsOQwEcbivjLgPVYuNDg9vk/QWozNl/10H5roaNZht6TFoTAIYSGm8qwNcPheJYceqSfykGu1umXjD4edkpKTo+9nwL9JKN7s1GKU/qLjTB7K+UyvKCzaP0WaDixOrNp7DPo+BC4pI09odurP+X29RTzESGnUYn/U5pL0/Q/cc4VCKc5igdre8xD8TDfXwVKCm0hdGYm1CVOaaS8o6H4gyzih8WiR31zuSeFMfvSXC7S81nppxEN7b0bi3eL7otK7zzNxaJcXu4doXz3Fg4HC6qHfJM4aa4uDVz5nsn1W9y7O5lgW72strfomv/LuVcUTivOvy4fEocNabcbnDx01oJu4IcPH3BRw7xwEH31LysX1j/dnq9+uT0+3V6/7/8dnrvrT7Yls+PwP);lineShape=1;" vertex="1" parent="1">
                    <mxGeometry x="956.6340385827502" y="126.63811668796654" width="335.30485183974406" height="99.34789212461078" as="geometry"/>
                </mxCell>
                <mxCell id="54" value="" style="shape=stencil(lVjLctswDPwaXTF8kzin6X9kJk6tqWtnHPf194WqyjXAaBXfZBkgQWAXXGiID2/7p9fdENzb5Xz6uvs5Pl/2Q/w0hDAe97vzeJGnIT4O8eHldN59OZ++H5/n369Pk+X09O30Y1rh1+znqNXJKbjf84sWiMPfN59n+8N4vLGP1Jq2j+TLun2hlO36DazPVHK3fl6394l81A5yJOTAlPUOtVJy6w4hU9E71EAFOMRAySuHkil74MDUinLIEhJIUqrE+gypEYMdcu4cHAXgUBIFjYvoKLd1h+qp6jMIVBxykIidcvCFMkhry5T0Dt5D6LEnZ7BNLgL7TIF1GZa6vG/fLPSEHAnYS5m1vacIasB1Qc3Vvi7YXXMIwTr8S8H7DoXYpDRTRSkqtso+UkE5KlSSLRqCxeSgYdEobGygiywwYWjfdI4Epmh9yaBmjqeAMlQp6vWFaADVYl+8sd+Ix9DGLahaBakugHQnbB91PIkqir/ZZoe76WRvaC8JQqzpAvL4huppKaD2iAWVmua9dKKKeWYwOhETF9meQd5gFLlkQwqYyQbWcjGiK6TnjRCT7yImY2B3zC8U8fqmtUg3Rd1Repc5wLLAanPUsHCLNPlg9xVi4hrfZe/d9f/rAdoWNc0JRMt4FFKmqFMkMRW0w/VCvToEWAS5k7OmjrRfBjtUtu00Sj/FuoJNv66LZF1TLkZxpgyBl4vtF6KW0K0pWsvrkAq++EVrGTaLgkTYEwWZjcp2C13XNKohT6uQzYKcoh0Y34PSToy2mFoO6khWyIv8QUfoBoUbgnxsEmGGUqSbdMSewfquy9DW+kaeCl8RFZxVm9JBKkiQW+agmwIgJeIs0xjfCF07YqwUensHedbF0xpUCt15W4ETSJdPaU4OkKyrl0yaDSjHDg8bk++9k/W2vTz8H+NfxsNh/gpw+78d++XV/MkgPv4B);lineShape=1;" vertex="1" parent="1">
                    <mxGeometry x="949.4292932239791" y="121.81228285687973" width="65.48536068782414" height="6.769302176577753" as="geometry"/>
                </mxCell>
                <mxCell id="55" value="" style="shape=stencil(rVnZThwxEPyafW35Pp5J8h9IQFiFAAJy/X16svKwLs+UWSlvy1DlsdvV5xz81ev99fPtwZnXt5enb7e/jjdv9wf/6eDc8fH+9uX4pr8O/vPBX909vdx+fXn68Xhz+vv5ekEuv74//VxW+H3iObF1ITnz5/TASPH/Hnw5wR+Oj2dwK7l0cCehMniKHdxLpqtH18Gj+MLgwXTwLNEwuA8d3BqxluL75a0Xmxne5R6fJHF8bxy1PTem6/fvgsRE8b7HFynUnK63vvfi+H4AnyVdsn5wYuh9Odvjk1h+3h4f9X7DBfcVgxhH5dbbM+p5qX5S7yvJSKX7qYAP1D5OfOrxSTLZv2ueveKrmLiP9+J7fWYrluzH4/6zk0zOq+rtQ0/W85LoEFHPOYoh+kwYfDK3T5YC4SRLJvdbMZ5ktSfT/2q+RigTh/dN7yth1cg2IUrsr6B4CYxQWoBdCZGeYQnRQFAzkzPordneSqW0lLNN0CAFhCqByVR13VupcrNqmIr9G+rq2ttCHTynupZ6tgkFXb96msk08tQ+FtXQss+2tjW4wJbU0OQMSW+6IqESwuJcvVqr3jRxZ9WmhTNkcSRel8FBlVDIG9Tq4EC1tBi4TahN/WeEyly6DlsqNGYrofRJR58YTqgOCayqWAgVCZ6lEWOGm6sS+alrRALL5MupBwIrG/XfeTDTxK7oo6sd9giQDecEO9h1siVz2aHLpWZVwmUXt6r5XBuTLRUkTNRnBitN9A1V6tyDghsIEx8dogCLZIv4Bmmwwmq51+HQllQOi3IyEhzLu5s+yrLc5isSP/V4iMwdYjTThRdRaXkyXvWZHf4Xw11oWM1CGGm4nDTPmYQET96gZS3eRKZtsOZql5DAOhOtBgK8IbVma6/ewLQVW32wV9FEMGuQQAKH1kwJ3NrT7lyrMg8EJ5FYSes+KEXrWpzuVZYBXMjQN2iHAmWclqKsotHqGFJE0Zsm0rAZ5ykqR1bG2dC0uRK0jWJvcFj3aUvAuj5rMICr4BO5uIKJt6wr7LRlUApk7m8RQ8DSljHlofCWto/IYmxbYwuEe20x4EOLIHttN7SJnl6xw7GEtt2ejpFyrzlt6x0fOw1jg0Lwpg2NzsYSbAxg0C01OrG23qDfL2MVIlCDbUbkYwODTcNkLDTgJ2OnEc/HWgYrqsnYbMTzsZxpDfwHx34jno8VDaa/ydjSYEycjEVNu83zsSvfD5YIE30anBoHvjxMFdvY9mPq9G2mvQOHmaKbaLPgtJ6bHhoQwzvHVtm/wx2db8JRp+N0C3DWSFhM1rzuG+YhMzjk3dlmKq7O+gG3YUga8S2uzqYaG59sWJPocCxuqPtd+EFoCtcf79+e7o4PD6dPV+f/x29V+uj0nct//gs=);lineShape=1;" vertex="1" parent="1">
                    <mxGeometry x="956.6046539002991" y="121.79762492878433" width="90.68029271856858" height="91.3906850548517" as="geometry"/>
                </mxCell>
                <mxCell id="56" value="" style="shape=stencil(lVnZbtwwDPyafRUoUedzj/8I0LRZNE2KNL3+vnQX8lojexZ524NjWSJneOik73483H2/PwX58fry/PX+9/nT68NJ359COD893L+cX+3TST+c9N3n55f7Ly/PP58+Xb5/v1ssl0/fnn8tT/hzwXkXygIK8vfygziR/z98vJg/np825tlJBnNfj82bSxXMNR6be3URH58ysS+u4vMreZ2gzsfB3jstxL66VsG+tWN7TU5lsA+ukP3G4CQN9uqSEvvWndPto4vh2D4l10b71N29793g6mifqXtzcxoG+9I3tGtfUn/c1b4Q+yp9e92+OiXnU5MTBftC9lurq22wtwNm4Wz+8mCvhC0tulTAPpN4aNnl8fne+EUOqNUevyvAO2ErtE6oFRBc8oRiIhhz3oKOHKotUcZD9bkf8xEAvLaIENt1cW2kjfGmkrhYzhVWqNxxFqjjptWkiQHs7zGytfVH7ANMSUYpiqlr6z5A0HPJtJsAqsXm+Eqp9HA8YgOcUlZXSGwYQMdwNUG4AQA+myIEEq4GaEBocYEpQMM9VOMgCz7pfl0BlWqqOU5AM7xLjHLe5XHTJgvCotVjeFs4Nr4CyLYxRBmBVpFYAdUlEq21YWIz0jI+1OzKBGAiUNVlSLXCS5ElEvy0BFHvkpEQjctx8Zj+DRDIJnJxIeC5VrKCJVwMpkorkmRKBhnFaiBCORMJzQhgDIoZa6S2+nIf4KfYyLTKUHsenFKijtPQ3bQBJFbntSlPJ0pqq4tKRYCSY10qSX0LwCdMowuA+MGybJpUIJBNGwAdZ1mMVc9r0twIUyOOMwD6IdL61gCpISCyPdgKEyAQxxmgTXtgqmGnFMDTvHYwACqZ8k2vp74FsD0kl+cViMwYAHVJaYKwAiwkPCVWVxoAsqIBlL3SHiDzFeZXasxxqcfmNrw54zD4Ul/z0HET45Q5bg6NGyIQsdteXokBzK+TVLL6fpdAlRNopijtufdEgG56T2aEyUyc/KA0P+xIpRGI7SFN+eEmRd8GsPwQ4rQHIjNhl9MkWi3HYa3BOW1ZtHkEKEu7BfuyhdPEcXGudBNt5KzWSHOeJo6zambO0yxlWcsDA6uWab9rFVmEWCrd90c1H8y4DBAJoIQpA/EpSJm616UBZp2fdK3eVJXCi+809QOeAdKUdg1wo7eM06YZoGE/YI4TwjgDoAhEOrwygEC0+i6eh+0u9Ja1r7kPKHisNdJS2rqmCgChcwoDQAdeeI4zQIAJX6OcrhNFs3aWH20alM84GHmPH8cVjOUssZvjysjpGGl+aOugZB3OVFprtNBz5mb8Q+fcU2IPlU8SU5+hbUZY7Fjb1Lx663bZGC7jbHMZw7GhQO7P2wz6MptI5a4Rm1kiU40lBY4UXaaVfE4BquGFB19FMTYA69iNkCgztJI2PmJOdJE8v8Qu7deJdCMbyHVSAFogWrqaJvBs8pMSprfcf9jP0BUlbG1WDkuAkcx2AKTsUWMuUJNXPZODlfaHywXMGKOhJ9P9Qq9gL8ZD2itWYZ76t+E0xtOB6ZRmPR3TeRxK8OstmehIb+dk4hYd80gPxKs5qxCk/3s1Z42O4M2Z0PHidIkhNCwFSwN+Dyl4WyC0AhRsfYUO8mW+FGV1vmBTKvReQbDvEFruvvG++Ka5fbheTX8+Pz5ebra3/+NVtv10uQbXD/8A);lineShape=1;" vertex="1" parent="1">
                    <mxGeometry x="1250.2225360545171" y="132.22228938800322" width="48.007212415243885" height="84.40228772896137" as="geometry"/>
                </mxCell>
                <mxCell id="57" value="" style="shape=stencil(rVvZkhQ3EPyafVVU6dYzxv9BBIvZMGaJBV9/75I3NNPKms4Bh99gdnJaUl1ZqeqH9Obrx3dfHh+ifP328vzr459P7799fEg/PcT49Pnj48vTN/vXQ3r7kN58eH55/OXl+ffP71///+Xd/Ob812/Pf8xf+OsVN3qQNFFR/r580vXfT35+BXx6+gyAvANqGIkAWhhjB+RQOaDLDoihRAoodQdISJUCdN9D7yF2Aqgh73voNShbUg3SdkAOPRNACbLvoceQ2SnlkOMO0BDZplNougMkSCGAGMa+pNbXT5wB4m641kJlAA1p30Ozg2anZHbd7dBKyO0c0EdIsCQ7NyGAHhQAaS3yNqCitzY7BmK4XtYWLwDlT0grvi4ACZkYzjwn7oarY/nvbYCEuu+h9lAJwByh9x1gUU6W1FzEGYCdktk1wR4q9SUzU24IEAbQdYgXgD2TLMkOEZeUQyO+ZFtUB1CSZuzPA+xgQUtco8ZQGwIiiYcqIe4RZz8xyBOKRXBHAHONUpylLXsTO5R44wksCRTBmJ4AYodsJWsgIBE75LKc+Qggm84p9PRDAA3jhzadbdPNHSvZdOqYNSaA1IdklnauUYlrpLoK1BFAnC+VEJ0dmHsni2kIoBSEbdqONSOA2SFJaGDpHIS4RhxrxYesIWQP8ZJJD3mJcY1o9Ac2bZYhrmEABTuY7YkdYkUmYAUlkextgAKAuJ55tiQgiTM981NSRQDLS2YHSPdW2CPzJcVTMkAiecmcDxjZfAIx3HTv6vZATskCqLhTYpa2mJYfIidprBxxMFwnlra8pB0BieXW5JakNKZzXnY9ABiVzkawACA081m6x4JiQctKlrhENlbFOCtZAkmgU+pQEvYPM6aJHUp2e6g0pq3stoQA5q1W2KPLfIOV3b7C5ZBbC3uC495VaTwYAIuipWeypOp463wmMVxVDFE7hs4YWVwc8gKwYyVZY1a03dJmSsa95yHuicy8i246L4Z3ASitQAYAsp4HzXyTB+/HmltohDoYoO7HakF75wljP9aZFtgTKualbHmJnVJFXcNyYWenVDAZGyFSRqULsnsrACx7mx3glJK1AyQJTCoCe4i84UhIsBLXBCbp3I/V6iqNB0U2Y5WbJQEL0Q6ARjt2A0ADbuwjkz1YXip7Mo4XLeUs8xXYdF7ndhtQHSBRBcuScdp9KfKYtvoAUkvUFSFnFSjt2TsKDSCrcWUH6Fg887SK7nbQzgu7ndJuaW0rtZ0xAVxSpTpfdt6qhbaW1jQhIFMRwQgWsEpNvKWp7gmRamQW8pDuVWnZtZCvCQGU6LqiqEKVxBnBoOjSLDO7AZCMaVNm0QWH2mlxiJdu/kL4aB9qnp+A2VPhx/xYoZWm3Y95pex+WqhPqEvbhRaS6QBQPWkdGUigMy3/Db+eaDqtSHh4x51RWuEig6CrKd2qYB7VlTJOvg6GVSrzCNpVaTkW7HQupe3s6xG+zmqGK3tyZ+3A3oUqi67D4dK/rObk8HXiBIKKhaz2/7bD47kLPXddhPtwMvTXEx4kIyiKyUNog6zIsHQJFydfV/w6Xzv4jNKCKKg66h0Xq4pfp04AaVhXgT/zSFw7EzRlyWzXr7P7AMG0JKtX/N5YZdxF8LZOaI4UtKrtnWcx/HWmLggyBKHlTLDh/F+/nn0Gpr0mpiWlUk3HC8PIK7f471fy8+ouJBOlTupa60T7XmMGkDwyFcuMecDVH+96o9c3aAjGS3t4ZTaRM7MGggvt/uafd/Nyhm/27cj82O1UEmRCfc0OnHFjHC2g9koZf1+5lGj0HnQKI2tUNO54gzd9kAmurj+2joNVQ2uC4F7nyjdvAwpq8QZgUmJuawGHNovpdnm41F+5lKguTTTe7ia8HrBQYmW6OM9W3tRYj48t+4WrnqoIrmVPTKHtSwI4iAKsLyjDaS2RFj0vh878xeVQoOMzI3C9CK7ALSMxO0xFCnSKRtX+qXnBEzoddriq1gcJi3lrLVgBk66G9kxKhNuvlLgy2NBbLfGwVsEA+ISLrnAGgMQ6r4YYoCPnnldD7Fhdk5z5Nc0E7E+wTMXoZXVzYTkvGnYGaLCkwvfQXLltnL24a8vcqcA0XQOkAaEVtxbM3vMuiXsr5FbLhWyQzOIBFKlSqOY1R0xgD41Oz807eAAM2k1epy0uNEOWFH6qMrthB3rr4oSCeQxMDh24h3lhwDTghsc6g5YXFAR02qKXgmTSAMzSJbtbyMGXFFHHbkK7V3NmoD+Nax7GBOBOpCnV7iwggXG3O3MwxYmDPBnnhNcDdyYLLM9BPLRME1l2rewcXiOA1HHyzACU5zZ3yV6ppHu9iToA2FRvctOkrdGCMkvgQABlxhF7bAOwqa3kj7VRSezaXBwAjErfGGupVCuaF0ugNBeqWsyLJQAk2iHG7DatVFuI2U0WDP6EgnV6lknWhFZcktWkzro+1z9Ufr827wPcXBijcJPhwSiC0vu1K8M7AFjZNfeOfhSBxbSfbRM+y+On54QOVt6Yz7uzJD8BKDQJ3JgxFGrpG1OMwjtFPyfJdbwbk5hCU2V289vT0qwoihtrUSpClYjTcxPA6nRBFapy0bhcpi0OgDtTvXAbbAA6dBJRyDEAc4055OhClDKy5jhfpOK0pS24c5g8k7iGJUYYvDcA4xqWemGQbOYlNiFenB14ezxfdwD3LpRKt4FsZtJQ4ktd3d1lpUmgu5c4Jm8lp9TdlIrRUPrGRHVjXoMOnfTmVEShsmwfKCI0rsINd83Y+IT4UJzqNWdhVHrERc2/kySO5F4TKUsqvA3IqOU2Po80imOVnRb2UbG1NHdkVXS+6LXH9HRHtoeGgtR8qYntwY0i9MLfURo40Ne5exsAsvfgl5Vj4PTciNS9Vdzl070X3gYWuXuv1A0M6nsv7Q0UyewTarmBMWqfMHVzuLl4+4TdzYyB0sl8Jgckt4c7p4SisfB77OFea/oORHW7oItyvd+9bbuu5t7BdnwB557pOkqu95zjv7wzegdg/7i+ovrh6dOn1zdcj3/HV1rto9fXYdPbfwA=);lineShape=1;" vertex="1" parent="1">
                    <mxGeometry x="888.9246929375072" y="201.20940293275567" width="90.78729910982975" height="73.26277255075934" as="geometry"/>
                </mxCell>
                <mxCell id="58" value="" style="shape=stencil(nVrbcls3DPwavXIIkiDB5zT9j8zEqT117Yzj3v6+YDU8EpfSeto3W+KeQwILYAHqlD/9ePzy/eGU4o/3t9dfH/58+vr+eMo/nVJ6enl8eHt6979O+fMpf/r2+vbwy9vr7y9fz/9//zJWjr9+e/1jPOGvM67XEMtApfj38YnUfz/5+Qx4fnpZAS2ugBxaIoAWEgBi6JECyrola6EqB6xvsBKy0TNYXgHC36Ch6AJofdrtNsA3kFaAn6ETQJo2OQB1muE2QIL0FaAhkzNYD6mugBIKsZJbPQIgUyu51dsGiAyQNiuloOTQbvUuCEjkDG3j0gA0Aiihb1vKxHH+NZDPP2n5PqD2YIZWyuTQtc2vrxwXyRlqCQZW0hBJiNa0vaHSN6j7Ac7QJh1vA1po8AajbFUNFfzQKTU0z/g6YjqGStKMphBXK40kwAAR6e38VUK+4jtez2B5suseIOftDOQNKiEJAkTooXtGsxaS7rVsbLXQmR9qUIiHFjrjUtu2VGdauEe+CJkvByVnqG6T9Qweg4mQrwpSw0NKWAAJBpDaTAv3AJCMnfAs3Y8trVZyV7IA8kODH5xdkXGpY4gW3xLzg4W2FsUiwRiXWtDVrNloMnYuwaGz05GRz8suvMG3xJNAXq2ULBgPUch8qVIula0CpUIdVwomspSoWd3qULKSUEXmVgcJl+L0/W2AziI7AdKpldzqra0Am1F+E+BWl9VK0qhIdCMqACr1tNskwpaUll1p6AfJk/C3AQWztwhN9/51AUCk2tswFxstWDVUkAFBSLQVjP86s+DN5XHWviPUqJqMmCFzSIQQhyEOik7Jfmc5dDGJlhBfvgaAUM/GqWIvy5nYidPMczkv4m6ZCssTfXqNsDwSzsRgissJZ2TKh8tyIXYXpHykVcwJ32G5EcsIUszxhJG+HAI2dGJIQXXGew8/6urVTMNDkASZZv2IOdwlDeV7rbic8r3g0zN9OqjKNIvevfBoaEhCsRvBxwRlnK3LZXkmWSxOoXZFMfr0hIxkFIuoYCLVhRHL4EfBF3HvrAv7j8sVGeleZQIShU6h5dIV9boZpaJFNoXQqNj04lphThWEFWOXD2uEeG1lxx20Wl0riYbgqJdAzEyJ7NUatKbwtjxvws41DgUoas0higgl8qYo3G6sEpaEJHJhx4pb0S18+2yj7+llGIR9UG11y4UjM7NGJ2/pTUMlnlbF9OmuVN7SwkxoCGLee0HWGq5k0m5XXx6AvH9sEM6ZmrUeU6wD0KhiqxlnpCr8DBn7Rzc0kzIOsJV8owVlZ8g4sRmTLuKHemjYA6C0b6kZpWE1KlRrwr6lCQfINhgufL4oMzFeDWBol91xCmtCh6p6PO9qrlV4AEESsEIlwgjRigAaQIKOM6X09j6+CQJY5S+GSmFcMrA3HDniejbHrBTnIOFq1EanHTLT1hXgg8yXd2owgOKhx60Emy82bGkb77LH1Gmjd2JJIN2Y/gmL6YKpsh2PuDdvh97TQ5SZtXZUAi3yS4aEZvVHKCm7bhOrCGBab9x7wATTaACNm5UtkbHhtiX0tAMqESe23ayMVEmSgDVsLiufYFpHjTjMyu4yt6I4HEfOMK46QbUKLYpdp4a8Il8lAdQbTjLc96zf6YazOQ9RZW/oG73dD6xPjlvHZvwCyl8Brjbj96sdtcPlPvTeqevqiM4Tk9sV2pnO2ecAuETzTbJc6QAYPzjgg2trGIkNu/Et4Qgz8oayHzPR61fw233d9tSYqys2NRdf3gPIZlfW1HgIdXC1UfHgAANHNDqHHQBDQGZkUryyGr+KYID/8SuLjwD+x+VHHd+enp/Pvwm5/h5/BOIfnX9Akj//Aw==);lineShape=1;" vertex="1" parent="1">
                    <mxGeometry x="1154.7826398166553" y="237.55101483960823" width="78.36011978025226" height="35.338308865658746" as="geometry"/>
                </mxCell>
                <mxCell id="59" value="" style="shape=stencil(lVjZbhsxDPwavxISdT+n6X8EiNMYTePAca+/72wNORa1HiNvPji7IjkcktqEu/fnh7ftRt378bD/vv29ezw+b8KXjeru9Xl72B3xaRPuN+HuaX/Yfjvsf74+nr6/PSyWy6cf+1/LE/6ccEmKX0Dq/p5+0CY5///l68n+Zfd6Yd8kusE+RCnE3nupcQRU8UoAUVQHQPQSGwHkfuAzIEmMBNDEGwB+SdcBCh9Gp5NKIz5olBBGQO6PWAfkHsQOyE4yO1ITLSMgivfXAcFPbyg00cirrwOg+B63dUCWYABRYiGA2v8+A3AkAoja89oBNUggeQARWhoBeCcJK4jgxnJo2lO5CgARSrVvYIlLSUKefCCJSyiXaKOU6nUAmJNG8pVzDa4DguhI75xoieJvNx4pewnE6YwSHaOUihQS1lwltREQpJI3FDg9Zjo5ceQNRSWNPsRMfQCZ00gN0LEQXSpZ/OhDaP2Q6wCQzwDgNMl0RV5HLkEWPHEaVIujtkL/lfhQk6SxRNXRmq5F4ngknyigwQfTgCi726QBXhJR1gaXx+c73t+i5GjsPSmeBolpxt6x85SuWB/2SkjRam9+H/aVxbNZFfaUpbCvzcS/ETmCfRufH6lWwD6bVkgZB3+raWwSeDxNby5dnNbtsy3jQocF5NcMC4V2EPCtWnvH8jU1EC5DsHdmFuH23sb/3Nev2k984Of3lm+s2SA+boyP43zDOGjrV9l5ktX1G/WYLf8d53PtCnuhJ5z/Xk18KH+aFKO4ksjzvXOWEKGP9FdfMDocbxX85+xR32OAfO197RojTIXBA1ry3nqshU7XGMnqmIOgvSusA7IlKYZbFtSqtgtgOAisT3pRM34kOhFhOAgG0Hqg1wGl98WLpaWQI5U0DWmZzyvBOp15L8PMZXrTjaUlN9v8MOexiQg7jUlc4XKdp03txkqBSTeZgb/1VF4bx+eVgk1EiLpRjGVmIG/ApGt8uBCF9TUndq6dX1FFyVSEFdwbJ5A5ttsVaXkKEwMgEc0mgtF1KeExTNVJIZkLzo6mS4mQuGq1oyN2ADa7oHU7s9A6OnxB6EyzBYGV8BvNw42Jw/KWSAVBe21RN6pkPncXz4DUU7kOCL3/XegM03s/+RArvX6Z1Bv0ZeqNZXMUvui6UK2T2wolyFvIeVxvyBfdpBLiOTshwV6pvW3o0BySgdmei6Sb9lJHO8m0Wut5pl9PsLjJnm2l3lIUGWfxV6sUsGc1EOwFylLY5Dxh2ogqHcGi5dtyfpKvZC84lV8/fvaK9rY9PnzcBz/tXl5O18mX/9v7Y/x0unsO9/8A);lineShape=1;" vertex="1" parent="1">
                    <mxGeometry x="835.597509312603" y="172.5976861308526" width="25.726772231506857" height="28.81808049189283" as="geometry"/>
                </mxCell>
                <mxCell id="60" value="" style="shape=stencil(lVjZbttADPwavxLce/c5Tf8jQJzaqBsHjtPj70vVWFnkSlPkzZY55jWc5WoXHt4PT2/7nef36+X8ff/r+Hw97MKXnffH18P+crzKp1143IWHl/Nl/+1y/nh9vn1/e5osp08/zj+nf/h9w0ViN4E8/7k9cOTSvwdfb+an4+vCPJNvyjyR421zx5TM3zPFAACBUtWAQA0BSv+/GVDJxW2AJFi1Bx8oZgDI1LIGNCp+GxC8TTpkKgUAKsWkADFSAElPP5s2eHIAkLjXpAMyE4McUuo1mQGFWgPEEA86pJIoAQ85UiwKUD1F0LhciXWn6/xkFVDYNq7hKpVA3mtAhElLilmXtTEFMD5l4FJNFECVSqWsQyqNXN0GVKbMGiBlBR6k6tV0OpEHMy0Re03vVDGgdDLPAAcHqEqKOumYepCrAKl60+SLIjyAS00apwFeZtABQCbWnfaFCuCSAFKxAI88yM+6SpPwgLIKoCULqCgk4VKyISERaI18tgA0ogIozpaVwTwIwGprpQLoPQGMerde6M2QdB8Cw4kTQEgW0FAOdfDgMJekJtUCMiqrDFAeACiHTHnwgHRJAGbiJGk4camzfwGA9JbTYDhFIwpJRnTgUsYhNa18wtaGypopVAsIyIOMi/EgI4rIV4Z5kBFFjatdq5ce0Ew34lFm8AClIWmoGm0oa6WENjLmoUwyU4gbjeowo4yH+pOASFWHFD2mq+9FmQFSV0QmtmqcAjHYHWR5MXVNc2vWAUIdTaac+0ytAyRps5IFuIfWYLd72SYSmNHqrId7kFvbSRxWsgiSnvYfXSWZ2oYWJk9Fe1jwcX2vbF0lZhcFnkGyCZushV6oTLJQOU1XYYsDncuuK91c19jvFOvrugiX9lAKPFLkvmA8yLbsQV2F/kYss4c3ueisfqdIGd2CBsEXnwySnk5+cyzKEzByctEzjZOrWgEAN25MGR6LLg7S5/AJYYXM4bUy27ZN12N0eR140Yu8ai6rkQ4/QKnnrnB3c9Sw8VyAGwDblXtWmw1zz8YcrTxsr5/cW7FhXqMxR7rlrJLO1+MN82LN0c3W9+N0YQ4UzvedYxEMaNNwCuA7rZwpbMwLCOaTL5z+ay4f7u+2Xo6n0+3V2PJ3+y5MHt3eo4XHvw==);lineShape=1;" vertex="1" parent="1">
                    <mxGeometry x="831.7476790982178" y="172.94855148812167" width="30.27499316456442" height="27.831089768022366" as="geometry"/>
                </mxCell>
                <mxCell id="61" value="" style="shape=stencil(7VnLbhsxDPwaXwm9H+e0/Y8AcRqjaRw46evvS9XR2hp5x8ixQG7OZqSlSA451G78zcvD7fN248zL62H/bftrd/f6sPGfNs7tnh62h92r/tr4zxt/c78/bL8e9j+e7o5/P982ZPv1ff+z7fD7uM5LsG2RM3+OD0KS6P49+XLEP+6ezvBOLOCt1LSON+LTgPdVbGZ42N8XiZ7hjRnxWUqkeI94S/EO7EkSCsO/eW/BRymV4WtAvCd4KyEh3hD/uOm8QQqNb5rwmcTLi5v3J/Z7yQXtt8SfQVxEfDIMj/YnGt845VuVQs6bxYz2KF8ysV+zdzxv1IgEEt8pgaImNCGYdZJHi1LoMbm8YDpyNpLZG3Jn4LJAz0xyyFapIymLHpokxVxVSpJCoqxhftuvL6hGkiULFhYuC7x4khcaOChcNUokb/BW0hjpqlwlkfZeykj9UiiV/eL1ZcFSvS9zQYvX+Iace7JcXhC6xWepURk7ayfjknzqVpIaMSKfY5BKUiNZJHSIUomXUun1+awCRHKGHJFxSvJA+KDJXEaTLA9cnZpgoUeoSrjRq6Y/WMOXAnhWU6vmtge8IXmk+IL2GBLkWjHISxddwyeH5yXMUTyc13YVsFJTJ5VgqajQF9Q8poQY5tCKXc1JJEmt+DDu7+kBFG+g64sjTUoDBrRUVvKEsB7xLGBaRnB/w+zJSACVGcw/iyY74R0ngMGESITBbf8EeMsSOndNdkrQxBJU/RMAfyVeNgPekDrd4osEu5I/0F9ND/gaPiI+cMIXxBdO4IrxYs244SvgKz9vwXy7Yn+sgGci8N14fT3Yb8Ux1RiR8G2QIh5tjR0sqlRBaWMHF+mgxYS7qko75nQo4gjJVLeCCtQnLMpxCdIiJmI/1WX1oX1ypE1WQcT0jce6VQwtjKqg4A0qTANxq59acVOBbEHs/z7TmSxXvcFm3LKdieskHpqf4eWiVWeHNjEZeKL7skCnEjaDVGzIqn1ZR7AJ/aratxCTbMBBOZfedC8vsOjX7OikX7GHpESboKpQUL580pxGnOipUnZ4U6H8ZDGY8igss/bHTc7m4ybnf7vJ0TkyIp5V3oT+b+MymxOxwypfConX1P50cGVj5dQ5QuoMWrPHIZ7xPeNsr+3TkfhmlCCBXx4k1ERaf9ilT5r2L71RrdzUwVDc8O/Jh6ZXKH72D6u3AeuV4tkVlEfNrngW3/fezF/H64/TZ4D73ePj8SvC+f/xs4E+On5y8J//Ag==);lineShape=1;" vertex="1" parent="1">
                    <mxGeometry x="1146.4390869415652" y="208.57203869083992" width="35.028678649205176" height="30.2721775279972" as="geometry"/>
                </mxCell>
                <mxCell id="62" value="" style="shape=stencil(lVjZUhtBDPwav6o0ozmfSfIfVGGCKwRThlx/H01cs1jybhPezKKe1dFqaXYnNy8Pt8/7XeSX19Px2/7X4e71YSefdjEenh72p8Or/trJ553c3B9P+6+n44+nu/Pfz7fDcvz6fvw5Tvh9xiWKbYAi/zk/YOrx34MvZ/PHw9OFeaMcjXmhmLbNQyApxv7tyTpAqGYLqFQCAGRqYgAxk3QA0PO6AUiiLADQKdsYUqIEADFQsjHkRAUEHYWyLUJRQAMADToYQF2OWAc0CjboFigAgLBPa6skDADqgHWpa6UBNaRSsG/oQg28ITGVal3q0CUtU7cuNaZUAaBStm+oiSRvAzLPui6FW45YByRPjcLEIIbcqLLlUqAGCleEggUkbSlQh+GxjUEKMYihBuqWS7FjQKFg6xAjNQToM8QLEcggS0184UKEMtYL5WSDhtzrlZJLEkxqb5M3SxWIgYr17lOkAoD86b4XMpQkte+OqO/au06gBFg3/LEVa7DTRryu+UlQfjSf1dl3ZK/uWo4Gngq4SYh6BUAVzlSj86gCjVd7dvpIjDKaPEMbFGy1F5tR1VfkzzLD3hgRUEaTHzkZn6+EtP4nOJa1ANF2jHYkstfwvH1FHd+IfQfD89uUqAv/MaPzVX7e6TB2+Ud8CLwMiosC4xe4gjVcsD7H9QVBkX2j4u2hJFaq1y2JAvgoYGwobtnUFIGa6diobjDhrWgMJvuGsf8Cna6qErbLJEJZ0eGarJBKm9K9Nb5d2VKBo0MXBHFETXPXW19BlNluZ1l2jHVA8XeKyjMN6wDxal0rjEH3ru7EUaiDN6Q2xedid6xgs0vZb3ZDYIG+pDgvEQugwsKNutoBctHi64hIbIMYogZ8GkM1+iAKurnoFLxKU0Y3F11rXCEiJJM2mBubumKjNOnty821kqdybt3v2AJynkKyDkieTKP4QDZ0t3TKKnmuSxvaPbO+yEalCIJuk/2LPUMtLn77Css9Y52sXpXUQ7TBq/+2aEojcDz7/k+TuBvmbCetzGV7y9wlB5b36nQVYNAzV76HqU1bmbFUYKhDwS8hDNfq4L8LMBzh0a9EWE/inNf/Zy5eTLAzul750+Hd+2Pfod411x9vn7zuD4+P5y9ml//3n8j00fnzmnz+Cw==);lineShape=1;" vertex="1" parent="1">
                    <mxGeometry x="1146.9823647094754" y="222.58672482859208" width="25.195635668915656" height="22.015788441919767" as="geometry"/>
                </mxCell>
                <mxCell id="63" value="" style="shape=stencil(lVjZUtxADPyafVVpRnM+k+Q/qGIJWyFAAbn+PnI2Y1YauyneFqO2R0e3pDnI1cvd9dPxEPnl9fnx2/HX6eb17iCfDjGeHu6Oz6dX/XWQzwe5un18Pn59fvzxcHP+++l6sVx+fX/8ubzh9xkXKfICivzn/IAphX8PvpzN708PF+aJghjzSJn3zQv1YMwrpbhv3igWYx4Ccdq375STtc9UwHECU4/2+PqkAECkZE+kHvyPwDZgCpAINQTIVKsBpEChAYCGsFtAo1IBoFPIBpALBZBjjUltBlBkfHMboEVkj1S1isCRolCxUaqFCvpComYz3SIFBMjU7ZGa1mIGgDreNwCdqYA8aLGKre0u0GnRsFofeoKJWyrHJq4HaghQSGx5t04RATolF9Y1btv0FwrV5wExNNURxDXTdXi1CciRxNWSDA5uA/QLNg+lDZZva5L6YKNUEgmgqL7PVWvuVAGgJmJ7pJwh46pS1OYh8yj4baFUAllAwuXdKmXrtKYygihp9XcnZJ0aKI3eiG3iJFAFYqyAJB6QMKCxB0R0pD6U9AIgGOCipABEUQVU53Qc1bUH6NkDkPIFZmLntQzl2f1E9ABEiL5W8wpIkHJ9kg0FIGFSgK8NTAhNdeUJAOpbATL5gJRsKdfgAQXNGtV3RQXAI6kwZZ+HjMI6A+Ig4e6RqgcI9qFPHEU606cmt3AUdEUFlJlyuFq5TADkdB8j5AUAhlXLe/IBDX0LgYIPK5p/tjkakJT1cYILQMUc9dqX3tO+PHG0onL9MCB6BqUIR93WKNva0KaFGNSSb7xJ4wZ0pvFQlbWPCmRQzcS2mHKDbbF033hLHNWyDVCRsJku68CyPc80r8ZVx2tAuTzNAjpMI73XILrENWUQWvqSlz4dE1GmdYWJbjZmOK5L851ah+kGOKrtINuw9kIVAWSa7xucZ1Qk2KrxBc33NoJuOfrWineXFBemDJ2Ia5tdAXj/1kWrWieUhEg2dJVz1aejpqA1SAcky6BlwEc+sF/yaxh9b1td21DGi3kdjd+6IbOb1yscLHUHd11Ox29G1wIymuCF9CFSh+B3v6WA4c1Gsx/QJ4y0ldgWhmaeQVDLdHPyzlo2imC1l6EJO/dELqKBR51sV8W4dVpzDDPGUyeB4ySPqWiN/kjHjrm7MBEowDw24Lc7sQqa1DQrRNhxeJIheC3BfkEP48FeZCwZGVKLPdkVD9/evTlajrRrZGeO9Db4IuDR13bMndgyHD4+eDH6rrn+eLuDvT3d35+vcC//7+9s9dH5vlc+/wU=);lineShape=1;" vertex="1" parent="1">
                    <mxGeometry x="834.1176361571579" y="174.52124584328476" width="49.02374705206785" height="30.023909486733487" as="geometry"/>
                </mxCell>
                <mxCell id="64" value="" style="shape=stencil(lVjLctswDPwaXzEkSPBxTtP/yEyc2lM3zjju6+8L1UNGhKT15CbLXIEAFguQu/Dwfnh62+/YvV8v5+/738fn62EXvuyYj6+H/eV41addeNyFh5fzZf/tcv75+nz7/fY0rZyefpx/TV/4c8MJiZtA7P7eXjji+v/F19vy0/F1trxSLcNyJnbby73Y9WrPb69nTzkO672jKgCQSEYDPlEBgOAphdGDQD4AQCIeLQRHIW4DoqNoAJkCA0AkyQMgBsoFAAo5HqOqNvM2QDzx6LQkiiBKEimMgOSpAF5IbnntAOx00ryOPmQmD6iUFlvK6kMCgNK+1wDFkQMWdAOmFkqATufcvtcBmQrgkm5ARqcLUwJcKspWE6UIEzd9b+RSEorAaXUxj4kToYQsREp1ZGvCFlQDxsRN9QAA1TX295rWVALVqKoaowUVgYwAgZwBCGXA1qolKhbAIHE1NVGZAVA91EzJWUBFFgqVkRpe6QjqodZGtVlYBVjwzll+T90B8FtNlNGECnrFe/IjmVSNBbBPvfaj1xxbHLYSYbjBmN9VyGcLQC1IyZT8wgKQ79p75twHBPBWyTRKCeVB24FxmjE3XGPzLNOoySlAkiUT3JKnMIZV6eqRBV5YSFC+tUaXRQ19kJWSg/TOK0UNM12aWM98QHqv9RDZhtUhJatNJDqgYnrXRuZZiQY08dXWZWfkc3d8+BxA2vDSG0QlRmyNbce9BeVGlq0SNfKt80/G5DMtKPVBc4vedXQ6CxVccWYy1saKAKVY+a54OtHObrR16gDAh7zsWe7OxKQ6Y0xoXMGedBipY6qnSIPJVcdOo2RTHECYJNl5RuOKfBBeDKIF9qzYydkBoU1p64Bke5aOpg7oTGQqZohT+QaZ03pZDnEVbEkPNWbUVa8iOgWxzcO0SRBWLm0o7EXd58B1QLQAPWwKOlt2oZvpTABcmtrBogVlkGnvSUZ6+wBVIFkR8L1A1n1eHAfa0XF9P3a2z62aVpe7hSQRg86wmBkSjKazM4lGF8RyMUqqhoO+5qwUhXt7N2MkMWJCG4Z6nuAJxjdN+7gjQacLbgI1u1IBvSbYKQRr7uKywLXLgHV5+9z9zt3l+vBxlfRyPJ1uN1Hz/+3Vk766XVuFx38=);lineShape=1;" vertex="1" parent="1">
                    <mxGeometry x="837.9122035741084" y="180.71669826141397" width="22.129382701706163" height="20.136841367293528" as="geometry"/>
                </mxCell>
                <mxCell id="65" value="" style="shape=stencil(rVjbbtswDP2avBLUXXrutv8o0HQN1jVF2t3+fscw5Ea0fYIBe0tsHlkiDw8pHsLd29P96/Hg9e39cv52/HV6eH86hE8H708vT8fL6R2/DuHzIdw9ni/Hr5fzj5eH+f/r/WQ5/fp+/jmt8HvGRXF5Ann9Mz/Akzw/+TLbP59eruxdkOhGQJNcCaBJiQMgBPHkCz6LKyOgiG/7gOCljluKTnIhgCZRR0Dup9oExCTND4DkJJIz4HUZt5TwBeIlvC5hAGQn6vcBWaXUEZA4IEgzX6iSIwFkG+nipCkBVAljpEuUGvYB03oj+QrIQtxakuTxDDVKSgSA9UYu1SZK4jCtNwKaF0+4VKtEAwg0gZpaek9PCL3xuo7kq4mytbl+xMWtiDShBgB+zAcEjlEDABtplXDjC4Z8SCl2aJxhlQ+BHVpt4BLPaRDBZNyU0wyASDerGoGQrxZ7BuiSY+RDXI1UZg4IUsYtBTiaBK56CWOkobaRnUElj1/wXpQEDhnnRoArXXi2AXg9shUlphKZgQikUZdCr2F79nH8gKflBPYm31xP8W37bNfXLjp7Bza6qlRhkLxJjb0SniICOVp7xgm1tUp7dm/bO0nN2FdGUm/VxVE1gv0qXqzWTpwe7QPVIuzfFEL0QCzvnW2RohSeMkbgE01ixEuTsWf+nxLGNCPiyXnBz2a6HV6VoTnWnq6PoqzG/5HtP3XF+YhvYv5JvZ5+8Kfw/Ztao11h9vypNn9ZHUA+Oru+svxtvd29sif6Bv6EYuw952ew+2ENOfJFo/Fn4PkVx/V9J/j/sUevMfLBeZ5gyQqcy32JbUDuvcayo6V73iv1htJTThLONbU+DVyk0d/Yyh2lES+hq0xGtbS3F9uAZGmHW4wnh25Z6ghI2t2wDagr4Up9iT1ANXcWnpqtWWlH28hyvy33h+vGlAPMlqbWl8Wh9TBdN9fs/qtLui/9OyoW632bLVBgfGXteLUtFOhFAalXgAVQeBvYOpuXlNMbKuatimGX9KqWbXuNXSrr64Lti3BVS0yIV3cKHKsSQC52S5UPR3K0pQfiz2obLjV+rOU4VSNeSq33rlcEZ1I2DRbGL+BUbPyS0E2PUpb5vCbWfgtaZKDSJI3e3inwzcoGPKuKHivVDd/soWOUSHoYtCxGvyO/lLvVvAabZF2nw/3UVIhlbLUNsF2GL31asmmvtkuCfSZR0NVNsHQv79jrmM+4OTLirVQP9oEIhtouzC/3sL39O2sfSDJrl/WrQScruPB/svasyXCWcrCPxJ/ejlBgzwYc3tadyZ74J9hb2o39/Osg+LY9fnxMnR9Pz8/z0Pr6vZ1S49E84Q6f/wI=);lineShape=1;" vertex="1" parent="1">
                    <mxGeometry x="1140.5853983019806" y="214.34415304445963" width="23.248127096597273" height="30.62076024913881" as="geometry"/>
                </mxCell>
                <mxCell id="66" value="" style="shape=stencil(lVjbUhsxDP2avGp8l/VM6X8wQyiZUsIE6OXvKzf1JpZ3D8NbLtKuLB0dHXkXb14f7172u+Be307H7/tfh/u3x138sgvh8Py4Px3e9NMu3u7izcPxtP92Or4/35+/v9w1y/bpx/Fne8Lvs59k8r55Bffn/EshSf9++Hq2fzo8X9nXQo4H+0y5AntH2Rt7n7ftORHb57uwbV9qD/cqHmQfyDtz3ly27XOiIoN9JQfyk5jyGI932MGTNw6Bit92iInqmFGfqYCUBqFQRgchF4GDnjkMDiFQFuDgSMaiaVYdyKqvVMcqaJAeOTDxmKWYYVrbEceQkqMIgBoixTg6ZIogJD1iGs+QKoRqdBQMtDVvuNL/67o4JPwGoTQWLjPstpRsWovD7aBnGEMqkSrAUl7acXHQkBg0qJZphDc7SgB8JfV2WRw0JEQB3LO+OBSqAEvs+98LB4Qe5LqDZmmERmWq6NDRVlo8CUqrwnt8g0TIe1lzMvKYJBLgoERmSEAKeRCS9pdhYuFObetojbYO6oAO3UaTyVKFvLSMmgsXu5639ZA6+JcXCFVEGuSDtU+gzhNP6gEYHEBxNKUUZchNqCj9jVvPr9YeEYwnZwqQYTMHCiY/CaJU26Bae49QPcWf4GQrtpHVPgB+rLaP1Z4BPcp03tzlz4Y9i81/gvbV5J/hUJP+tCu8RYD/2pn2Cs8e2POUH6EC8JCn+grEp1ZztkczmTJP8SCVYGeN2iNVoZMo2nwG3I8GDwzz7zrDXuEhwueb8a14S/C8Fm+KZ6RAyE/9FdDQmOLB/fhZ+9bwpsChQ2r9AH4aSniwRi2oWAfUAiqhjAwUB7WvTmIzxZo4QA6K4REVNcMu0B3HaN8aMI2ynXvMfS3cOoMJSfc2NFiT2FGsGglN1jS1vso2/qBwZpFNXQ2vO4S+uC4Oy3hbBx9bNtW8VXBopSMe09q2SeCga1E0gl8ZCvVz6rLyagcJ6A3BMpImWsChxWo03VfRBJ/Wca2LQ/cDVpbGjyasYeDo4ATx3o5kLSNcTdPkoJsh0GhatGQWeIELfFM5Y9HaAo/Wa+kr1uLg8eJY7JxVnYzXQKPr8KVOVhSNqIhdiG3tdOb5HvZB29DGDDkoizhb0sYyv05z0PXGW7dne12BmaKpboMhODZVFVRrj6hLVYehX2UaFI9YnbwM9i17e9sCAdpU2ZjP1K+c1lvGTYtKght4C2g8QMY6WSYihVO/rWFjAVR3AVa5rGEXe6Sj1N5ZexjPdMvKvePW7T95i/uxvX64XBk/HJ6ezjfO1//bK2b96Xw9HW//Ag==);lineShape=1;" vertex="1" parent="1">
                    <mxGeometry x="907.9354948602027" y="16.173705880018588" width="18.81442486143942" height="31.120344162519928" as="geometry"/>
                </mxCell>
                <mxCell id="67" value="" style="shape=stencil(lZbdUttADIWfxrdnpNX+XlN4D2YIjYc0YUKg5e3R1mOIlkSd3vnv88pHR8c7yc3L9v55MwV6OR0PT5vf88NpO8mPKYR5v90c55MeTXI7yc3j4bj5eTy87h+W8+f7/mQ/+nV462/4s3CNUEKnAr0vV2JCan+v3C3Abt6fAxmlGCAJWnWAhsoGyIKaXSCJAUoEeyUltGyAqis4QG2IFmiMFh1AVbIltYLE14FCyFYlJgLRdSITJNolGtiRKRGq7ZzqQE4jooBtI2oFO4BUkAVK84EMsrrmBhIHKGMjUkV1VIphXCGqW5zO6W1pFggITklaQK4G0CKzs0KuaMkCGSE53lARrZlU6OB8dG+TXUFbGfyBoGFG6V8zykPjCLFcB87c/OkNWoPh8hI6MBbQofJa3UdysGtbX3FZJh36YUg1GJySeqzYkr6i53KrBeXbjFYnBjQa6wBofHozmhCHoVZZHTN1QP4HkDima09Dx0whrm7+BBKyE0yc1rQ+i43ofHRBtW4tDHHaEMYwzrym7cXn1ar2AxKvKXLteWuLSODg1ZNsYgRfUc0TWz831xQcR4GYkZweBxmBBHEmRz0x/Bm0AY6garpBofHfpgdfO47HebdbNizn98cdil5adjdy+wE=);lineShape=1;" vertex="1" parent="1">
                    <mxGeometry x="1016.8632159955196" y="264.4554666719773" width="2.5146227402378827" height="2.522336761604606" as="geometry"/>
                </mxCell>
                <mxCell id="68" value="" style="shape=stencil(lZbdUttADIWfxrdnpNX+XlN4D2YIjYc0YUKg5e3R1mOIlkSd3vnv88pHR8c7yc3L9v55MwV6OR0PT5vf88NpO8mPKYR5v90c55MeTXI7yc3j4bj5eTy87h+W8+f7/mQ/+nV462/4s3CNUEKnAr0vV2JCan+v3C3Abt6fAxmlGCAJWnWAhsoGyIKaXSCJAUoEeyUltGyAqis4QG2IFmiMFh1AVbIltYLE14FCyFYlJgLRdSITJNolGtiRKRGq7ZzqQE4jooBtI2oFO4BUkAVK84EMsrrmBhIHKGMjUkV1VIphXCGqW5zO6W1pFggITklaQK4G0CKzs0KuaMkCGSE53lARrZlU6OB8dG+TXUFbGfyBoGFG6V8zykPjCLFcB87c/OkNWoPh8hI6MBbQofJa3UdysGtbX3FZJh36YUg1GJySeqzYkr6i53KrBeXbjFYnBjQa6wBofHozmhCHoVZZHTN1QP4HkDima09Dx0whrm7+BBKyE0yc1rQ+i43ofHRBtW4tDHHaEMYwzrym7cXn1ar2AxKvKXLteWuLSODg1ZNsYgRfUc0TWz831xQcR4GYkZweBxmBBHEmRz0x/Bm0AY6garpBofHfpgdfO47HebdbNizn98cdil5adjdy+wE=);lineShape=1;" vertex="1" parent="1">
                    <mxGeometry x="1308.8632770306758" y="257.25545446494607" width="2.5146227402378827" height="2.522336761604606" as="geometry"/>
                </mxCell>
                <mxCell id="69" value="" style="shape=stencil(lZbdUttADIWfxrdnpNX+XlN4D2YIjYc0YUKg5e3R1mOIlkSd3vnv88pHR8c7yc3L9v55MwV6OR0PT5vf88NpO8mPKYR5v90c55MeTXI7yc3j4bj5eTy87h+W8+f7/mQ/+nV462/4s3CNUEKnAr0vV2JCan+v3C3Abt6fAxmlGCAJWnWAhsoGyIKaXSCJAUoEeyUltGyAqis4QG2IFmiMFh1AVbIltYLE14FCyFYlJgLRdSITJNolGtiRKRGq7ZzqQE4jooBtI2oFO4BUkAVK84EMsrrmBhIHKGMjUkV1VIphXCGqW5zO6W1pFggITklaQK4G0CKzs0KuaMkCGSE53lARrZlU6OB8dG+TXUFbGfyBoGFG6V8zykPjCLFcB87c/OkNWoPh8hI6MBbQofJa3UdysGtbX3FZJh36YUg1GJySeqzYkr6i53KrBeXbjFYnBjQa6wBofHozmhCHoVZZHTN1QP4HkDima09Dx0whrm7+BBKyE0yc1rQ+i43ofHRBtW4tDHHaEMYwzrym7cXn1ar2AxKvKXLteWuLSODg1ZNsYgRfUc0TWz831xQcR4GYkZweBxmBBHEmRz0x/Bm0AY6garpBofHfpgdfO47HebdbNizn98cdil5adjdy+wE=);lineShape=1;" vertex="1" parent="1">
                    <mxGeometry x="1470.4632526166133" y="263.65547887900857" width="2.5146227402378827" height="2.522336761604606" as="geometry"/>
                </mxCell>
                <mxCell id="70" value="" style="shape=stencil(7Z3Jri03ckW/RtODZE+Oy/Z/CKhXJaHKeoKkcvP3ZkA49567d95FPRgGPKjZa3KfTJLBYDQ7gt+VP/36w/c/f/kuX7/+9svXv335zx///NsP35V/+S7nH3/64csvP/62//Rd+dfvyp/+8vWXL3/95es/fvrz73//+ft4Mv7071//I37hv37HlflIV6Dy9d+//8tsj/n7v/zb74C///jTK2A81lLAygiY4yOgP66CgFEVkAYCWlNAaQgoWQGtI+CyN8wEgP4Y8obxSAwoRQGVxrCXqSlg0rS2R54fAfORadD10Qww6A3FFm49MgHyYzQF4BvSo3+U1nU9Ms3S9ShJAWN+DsjzMT+K90pPYbkHbFkaCpggrbk9P+ANkB8Vdlyuj9QVQDsu50f7KHyrPCoBrufvvQDoDWmvq0xrfVQYdBrP/fUGaI8L9kPaSqUpoIFopPqcxDfAVjMVAFn10gY0AmxBkIUbOIb1WEWfrzCEacu2dzR80NANvSbqyf7UQC/Pk1jsFbr0+U6b7bG6Pk/fX57r8/L8or35VCZvz6/n4XW/YE+BeXk+w/OXff9+HubzerSkzxeQh+vm+wuM93pcS59v+D3XtOf59228h9+v9jwcINfzmH99HuTheu6m1+dxPv35yuO97Hn+Hn+ev8eeLzyfLj+gH/bz2Z5Hefb1yjw/zZ7H7y/2+zze6etFh4bpQ5bnfYzafumL9M8w+STrYxtQ9j0d5H/cySfI29Zm9vsXzU8y02M+LeF7QDHTY1vzdAr3R14KSDClaWt8GUNHHZeTmuJxzpP5VJ5r+mJ6kCm+l212BSRYhr1uOkuF5W6Z6VEeia1SMZS3RYe2e7Kts208Eu386EUBJHvbdtfDKeNm3oBuYyj0SeUpaq+fBNO6/Q89z/LT/P8MkJZNKzld9ek8vC4cv8EBZNIFIClg0DrUp+S8SOsFRtrNLFXU2gG4FNBo0HvhDDDok/YQbceRmglZMiVAmm8D6lQAmXYbIO71BtBZuwEqS4398WKnMyuy8rblXwB4XOWbWSJftmTTS2+68DNAGgrAhUvmOG4ADTo9PYhXL401X3EADTqZFbP9HnrDZdLanw73Z4DqAFq4yxz4/jQlPjtQ3DXNdGQti4t0jItsQPFPgkGHcWLTioBpDnxHvbQBwwfNoRrd0/2p2j4DVD92yXSYalFO9oADILFO1ksB+LgOMz+90M8A4nTOC4UvAB9V5RinTxLjZDTccVs0xM8bBf2kDWgfpXUkdPx9A43rKSyfKoGPY+iLj6ystnd/k99PT6BLAWj+VN3TffCgu4YvNmDQGTd1T28A+dv1Uts7APCGmjWaenpDfR6Br2MgQNfw655WiuLVpfmLDSDha+lmpcn2bltHfNxAnd3uVm0dFkpra5q/GBfGzVtX82cDyHTYADmn946jdEQbas1sQIcNtN8gXtbIz4P4M4AossEeygZcBpj0SU3jE1sv0aG4F66ZIiOt0Yrp1ooH+5Yl1Xz1mQL5TFrF/BkND8V2aZB3cD6vTjVDR0fxrkPDMhtAY9h7WlzLfQIlmKWtNZYdWeRl1b1MSwEddtxWZN3eQEqgpmek5wWwWLeKVTkm+3FLo88bgBnDpbGZDSAjsUyNd20AJZ7KW37wBdDpk4Z6ihsw6YwbareOxWMYth8W5yTG0/h/tZdoHfpzXV8ApPki1Ss2X2KHoz8n8QWAY+hPz/PFSMT4UtdzegNw4bYDI6newtLaNeqwARguakYbKM89+CkgKYB2XHnTc2+AyiyA9tQRLwDMPjdzBxoaJxugPIOGunUDkgEo67mtSskxbsAhvqTS2tDhCBaAeCjsixY7RSf7ogFIBuDAoJg/8y1O/SnA6BsnQDYAB9XEHTjPUvExcOix2DpQGLtUVZXzEDm5BZAScMBRlooL32HQUwGTZakmA3AIWIWvPe2bzwCqvQ+RxKqx+8n+dHmLfb7qJQbooCv6QBsgxskGYNz7TdRelDHZ3uG8DgWgIhvqsW8AmdI3pK/Mscppb8h87E411icTdTZAlXHmwOC6OaeJUVKWhk+36YAR3aWO3wbQGbft1mRvIPOnWhZ4AyoMegN0WtNTtX0G8EGTaNRLE3gbQDtuA8Ru3TbfYnfgMgD6QEndsg2gVG0AlgLQLUtmrC9Uxhsg4dOxOPpj6eZt3RNLLADuoYB4b4CcouH4HT5J/LiO2rve+dOUpQmAeey4H5J5u4V3XFLdOtj2rhbcjMgJjeFSlyZiM7wfNCaQ8JyOLTrsDQzQyElGI3EDqr2BtHfopa7TilGH62nhvQD6QVV+U/SnemymctThUktgtJNuvWw/UC6rXupwDCY2xyz5FmWAbqCBkfVYaQ9TsHg3UzOTZ0nDRUyMig1kAGKExJ6eCsAonCuyhYnUDVBy9oXhomoUkslB5prNDD2cQNmM9SNA+eKHT7Kk/LwwyFyL0vD3tJIpXavFjJnzV5vGl0L4aMd1y5ZN3qLD9vRAX7RO5akNTjfXZXHviuZPSzcZP0p+tawW2T5QyPxpTa2ZyNIQYGravzc8druNoefn2t8DqtJlG9Ob+1B1/z6qW8Aw7b0nmvIP+wgUuzXWHkRjNI3dv8fa7wFDXcvKWZph9RPvWcZbQKitj2Mobznxe4DZSxGBhTGET/Vx0FEKA7M0TVpLwTD2dlWFWFA43hqhzI+zVBKXBlTlCbxXtnwGkHUIBgds0ffI5Btgom59DzS+ATpu0QhwfZSlzKGWDZAwRa5ot06rxckZXZo5dU8HSRnEexq/NTFHdy6lSaaBh+K6NFaZGqrKlTQPlAqacCurmkkZQ4/BkvkoGuktu3UPKBo+XRj8iWoj8fBx2ZaFBQda6qtqnVnHUNFqRipAxR1cwo9L0Hh+mqYfG27mZalv9huCcz3k+cPvS1KASapBAhcFiSbMfl6YixkLR9ZU0zOhPbKMFJVQwQev/uO2v5DIv8xAuk6/P/X3qTArXVY6cvEGWHrwJ8wFvBfqvC8ApShjguRQ5g1sJmdD1v8a5nYiszt4qyIQb8VRn+14idJvHXdQWaJSEmfetlKUIaeJGdBlPmFIKe3KSxV7VNjR8bc0JJ47myFTiRZhJDCgud3CAPGnSkH7MWqSRbU0Ngf9DYMto6nZw7KQghycTzNpT9P6UV1UjrfthRPedS0Y95xWcbLteNpAboZUPqLm0jN/O64U99wAydfXwYb/UuGrA4OMy+rZwtshy8hci8rcwHvAN7+B9NIdANWMFYEGgBSZxQzrxFKhZWWglVk+t+tAorGscPEPANK3fFLIks3SYT+o8E2M6M23cNwrgBSZ8bnqxGrWe/E+zJJtIAo9LcvtVVaVyyqWQwmwtArhpXLFSXg7BrgYIKZePdi2lmnYupUSB+tS06FyJjrGcH0jQA72DSBVuSxKH+cDOfOW9o1Bs5s6bAzozC/lQu11wHDB0oherai9o9mIASjHOs0LiOAszdLU9PsGHA52XYfOg55qR1fuTBM9XJoCiPS/AWqcDP6kob5M5RyrB1Uqc/g3QCzjyhz+aRHuDUDToWu84HAoRreeooBBorFnXURjITNjA4TJWpnJugEaWV18ZBlHs11stxqDcgPwyGrqJUaxBH1S07qcCFhzVFIDHxnJU8FLSgqgvFiEYuWTCu9p60HUmAs1kx7srWIdc5BPlgIwYG3ndGuYTR9LQ+IbQPGA4KJPBVDmbQxVZAEANTNc+A5vqM/A6+sYYIsOI/2fBp1vABREGEm1RmPjZFwapmhMEO52TgcAprUvtYxbQ2nt80aWKFbXjWEfC0dj6NpqoHE0sxsVvDXMHm5AtTfQjtuAy6aVrPteNU/cuBa7VyWxbQARIrtxZRsXq25ArgqgHderKYGONl+vmjJtA8Pc3Ro8tYn7YQN0P/Ap2m1Pd67W6Jbg74mzuEXJhD1j7DcAkguopzFozSOT/gMgn8QktgBIdevAM+4GwP70zSctdDgCYBW6qDVslt6V56cAoxCQ3eoLF/qcNlBRxy84aQdZuhRA7vHNGDJGdH0dgmjB0qpVlQVtjQ2QdOPg9iG9GKmzYnK8F40JBAuBZUmZrP200s5JO+w4rSfn0rleLF/B2fQNEJvv3aj7FGBVZAfdKmG7eRRvBeSTmvEar8MnKcmZi8J8HSa3NerWxmVy6jr2g3H48dgtWuh5YNj7GTcTHyj1ZqUpyByWgH0SZe+6lwpdmO/u1dpWXKzIqmq+YO7xoLX2lBsydGuXEGRzNhLFQ4k9TSvtzL2D1jBO2uiYLevNaAqVj92m5/TgRHk3Ds642DjpOkvbdCAfqFsp6fsO+aPuwGLL2Apu2+F8GKruW8IgQrg0FiND7T10P9TCqnLoKVqZntWHsq3KwYSz+qhycGm67rho/EWz1DWMHS2tDrIkyeDMxklTfzr6R5HmazfpZoovdSPivHeM/nRPZwUQ26o3W4eE7PRQZE0BFNwM3WpvoOxxqHsZNNOz4gQywMFpEn5QXhg+dSMxc6veno2JwLndDRBVGe2QGSCDjn7I9ElJ1yFYVwwQvZQL66XLppWL8zZA+Y0cAu6WSE0TC5+3rpZCnsS+aFvGm6mYHdgAOXYTlzu1qZHE90bcnwG0rysKa7MOWROXrU1V9p3Z8sZQ4SxTs7YbFRVGmyp33H20WUgw40aIIM/HnXNhnPX2ef594URc6Ga0qW4Gb4J4Xtl7dK7F81WfP3y/sv1Ovz/1eV7fpPN5mJ9s88nyn3U+D+trv594P9r3E+/tbn7IOb+bf/JF7tb39HzW5w/7S+cTu3nd7RdeL3/+UBpjz/P82/NEcb/dv4f10vn8P9+Ph+f/1/vxG/cL2XO3+/Gg/7/1ebEiTusrATwupI3nJZ3PLcusB2ZDpzfOawmwYwAy7AEJVmCEs0212A9t4a3/ZRgoJNBLUzspswVhZJttZBGHqS3No2wzjq766MYwShOV+gYIizYtjjFd2kYxH1wzq7zPhb32pHbfFjyMYmVjZDdch25d1aPHPwc4tb6Ii6q6NbbOXMvciwpr5ks8Ik0otR5snnVrnlS4OCFifZcC0HGqWs0QHi+7+RKZ3gBMajfdcRuA3mJTXmI55BXbjdeOcYF2M2hynLrxf97bdX8GkNh3tBzn0J1QMApfAxUVrlKV2JDjGnEymdbBUayhur5yTXkAjFtJBOv3lrcvwUEyT7tdHte4f02E7uR8a6yXulGS1mnhhCDRuXFpyNLHMcRSsnhrOJ6dkG7N9QZf3tCbZS4rB5ot1jf4msCb+P3AQEJv1pllnpgt2qKW62l61UMx+kQciCpSKXlUxnJknXNB2hAtcW7Uwo+HBlC92kWECVtBdrsA75TqrNbqK2EvpGC2WF7xkOrU+x0zaw3jO0xmPvaiezq6j7HpcNP085vy7EGePKRrrUcbBpotqjv5IsKelWE0C8e+s3VrzazuHZC4i0O22uTEnL6slSKR+ueV1szlYkVWblqIHITvpoXIIZPvTaFZ+MQnHlw+2YvepBM0EhKNctOI60DB0FZfBan0N8yWgsHybmXug/24G7LN4VAsN12vDkQVBRzpC+J8D67ovBnDdeL/SHOMwfEz13ydG9P5OpzpbQrg+uObT+ps6Nosde7b7o5fL8x3KHY9xJl8JtxKDlM4FaZz4CoORbFb5+nYVYL1OA1a+dKDVWU1JnBnvXTHosUUW9VirsYdmJ1s0zje5f50a9gsxqkwrXHK2bzd1rCCLZxXqx/AM65rB4gT0X1Y0ow7FXWLEreK5cQ3VPrKloCT9SsmFm/KAbjw46bg4PAGL2ngziA3RRPM3hxGX2jcG+ym8KNixc5NaUlFJXBTvFJRzQxLObeKXON3g+11HahyKimnL+4SgQ0U/ohJK+24KFOSaS3cqahofVlj6vD0/mYZ497Temy0jInGaWG7xjGy2fRQbBdaM+/Nvl8A2AzC7jGoTBaYXc3QDaDA4LS7eirfLHVTSTh5HYzpdag0n92KTJkVEvWWNoZDIy4tlB3Yk2oOzUnVgef0HGqRVb7WbHpgsPMGGmrN1M7NxOz2k8od+qM6WMbA1fLT2uzUdmq/orPEqnJarqweihuXJjdr4Tcsq/jnZlM3rUsKi/cy8S6nFgHaeYGvgY0CfhlDxkD5sibple+uWpcWflQO5mzAsE8iRbbsDuLoWkD9i66bFgFExlyXhh5r5a5Ql3L6KluV3itvA+iOmGVNoQ/l9TetGgbWKt6IxkDz559Nat4A/2xS44D/Z01qbhqLTDZ/7Crbw364aTzFDcbjfLCDnZJf07r51cbugN20Fp1I+JMuO4GwX8tUu7VybncaByZ6kpFoTKUOR9czBogii75q3CbNk8GnVm9SDsDlYjed25hKH9MqTCcuIgrjxDrokYeyLo1758KtOa0ZROZ0wsrGl54Y917F+sE2jN0vu7ArZaSQxLXjcjc6N26z2hXuOLOMsMudIJYxxAsPeGnMm7ODa2k/6MOSLQ3jXDzepZv54k5hywmUOP9GcE9o0y8LpfF1g8t6EGUMc62huR/uHr+sew+7GPt5yThwMCba60r0hte3WZybf79ZxJdNwqZMn44tMFe161rYfbFm4nz56arqp072Razolms9l92wnC4MkYROlA2cWYLs6qJUkRMcrojoRI7qz6X+VxrsOHtZyzr1Q9OyDWbJRYhEyIeZm8BZXCgfWrRZcWhubIVYBWAQKGkMTYsSMzdFnHZ38Ba+Q9hTPO1ysa1m9dtRY8jN/uXSheDhcUsqaR9dDn3vrbatcIOcmZQyHtfe0qAvY41OXOkxzbPg5mPDa25ZWkezxo4NWRDDyCWV28yPy1JKh3pV40M2vq8pso0fRaPxdQI9aby6s63mxRmd7+h8b970BmBHoeWby8Lo+G82htNFW8vapjT0jqpVOAw+Qav3Ix98j5yZDIOjNtVa5R2ogdXuSo2brmkMln2fXBcX8T67EYripNVa5R3Ih7c3QuFte9l6lFyni7b0qke2nePeLLtzioKSfk3i6ZKqZHc4c31Q3C4mwsc5qLi/zGimpO79ys2xkN5YrY/v4PhcNT94cGuwm5vq2F6qdkXC4PxNsdjWgR8cAHFTufV8sfjcqMiHrJfGhYLDdrhi0O6GRL1kHZvj1OOF01tA82kd1HngO2sjMGV9uOhgr1YWf7gs7GYDcQueuEGzKYDyBrGnjbhHoaqb21gz33roF5MWNLDirlQZdD2pymqn6OEKWrFbB5PeAmAddQ7Xt2q/m3nSrfpJ83RNolTOxc2NtB+S0a65mrImu//4eLNvtjcQm/3m7uCERmLsByPYE923Xlr4M7m3XrVc4EwnvaS3db+11/hUL9kYDro1GYCYTaG97ZNIVRbrjRHXe8OgyzLRyJhiLeY0HTj/ZeqOm+w0FbtZaXLm+r0+6w3AVZjFmnnPgkZi6UojOt8tr7eA8ilaml7aFtfp0Ruaao3J/K/S1D2O1ti0cNUKTthT3IBhb8BPqsq4nNyrvlgaYHLD2eKVQh05zqXqCRQAHrSkY/4AwAaNO65qfCkAPK2qlzryjoo342NWULFOwe8ktW8AkHg7gGMCxXzR2TDjcDNLDc+4WIdkALA1AlAVQE5TsbZak6P2pZrWaCx81nX6nfD4GUAd8IrF3sUaCk6ukSx23+usmJPdAGmPPCtLq+UCJ9O5ilWSns6HZvVUBeN8xTidk+uei11MGscuA3QDsQ9U+k1R5elQtCIyMnSLxe7nxaaDJ2UXErs3IFutKsrSsObF3P27DI17b+uejMQytaw/CnTZXtLIyWTxXjbogWUIN1GHwdb9pdfcbAAaukm36Aagp5itFHtwFK7Ybd1MwalVt+jgspxqOy6CORyg1erwjvZSNUbNBmCXHuOwjYYJi5Zu+lpj36BstXkVx9Duun9j7N5uJRgFFZkH+w/hotZMvLlDbes34SLsFmZ30R7atreuidQIF/EnqZphGtHNGDg/3ezYHRcG1ZpZZOPQ0y7rKdoXD9qCCJHWoQ20dD9EUSXvacnibwC16thaQ/s4TUzKRzpBxsBVBR7G7qxbi7Hk4g18TvtVDAdTetq0osNxW9xKgKyxyr7YQzFKWl8o3sWDzGyc5HVzUQIdu9kuNBpsJEaXJNmiDWMz2S0BbvsSnBfPA/EnaeQko2jkaU3V2+kN6uJPbAuWjTW6MjJ/srVme7+K/NNplTcw1ylPjcKthgZWiIYDQJG98z/+OEDW4fxJ85sGXeyCr8V1C8UKHVbDLi7RAdoAGA1N6g4EgD7J4t5Bi+M3dAfAFo3m4LYOJN6u+RZXVpes6n4xb2YDZE8vvrpqA3w/YIzMSCrrEEm0SzcWsxeLtX1ZlWWpaIxscRlzsdYE6xCmMOrCqph/KNYHYHFz+2IdgVbB6o5iPdLXIepgnQZWxqqCPQaxBDYAIyfFNhBfXRUrXQzApoO/gcqj9hadPmg2HcTbXQXN0K1bJTC4CvqieWj9yOJC6dzUbj0IXy5qOsSOozPOKCSr4bGbpubj9rFLC5esKnkNjP4k6wMQpG8YQ7Q0NQDZ3lZzvxaWjwytploLRc8ubliH8JUWSaeL2wJnzQGtheabpabXwq1wmZwuvN7YfJnFfDCLZyxuDGqEnLWQT2AVeeffr/Y8f78JEMVjrBwvngcBvXuezn7jHy0Of94+z99jzxPF5O77aYNZfWM8D/J/t15kuRi3KZ7n7/fn4US2wtr3MphPnm82P5T/vMzw4mi1kV2iDInOGfv+yQa2yf9kc9kcKS4WrVqNup/HW1iVSLwm9twdZmYONDOnFY1wa1irRN3PU2AxJfMDOyrclK0POOe3k2U9Dy5Raso4DO+ATuGh4aZVeQzWnmEDMMxxmdPF931tudZ1KygX2TpsHczYfdSrD3WIHtkVxosrNDx6tPjyxYiAyUpfnExOFgxanEfK1mB0YSVqMat0MjUu6BtVAfiGZsQ1jtcW68YTTVgOidipAKTsepq0o2X9XubyAiAroVit4okgMm5ILjhLw26c5Kuky7Bp5aqrDXCyEZEgy9SzOQA0hmm8/QOdyXp4zUPkxepYzm9QGj73Ji9WdTw5AVisTDYATL5LNq2kl+4Bh09ywGFanUZDwnc3S4eUiq8DRo/uVhpzMGfA/sPP3//2w+9/+cuPf//7r7/98vVvX17//y9ff/ny11++/uOnP7/9068/fP/zl/23/wE=);lineShape=1;" vertex="1" parent="1">
                    <mxGeometry x="388.80065388329876" y="-50.188846308106235" width="835.1776709508399" height="381.77731741446894" as="geometry"/>
                </mxCell>
                <mxCell id="71" value="" style="shape=stencil(nVfJchpBDP2auaq09Hp2nP9wlXGgQsCFyfb3ERmPgzQzoshtaPRau556kIe37dPrZmB8O5+OXzc/d8/n7SCfBubdYbs57c76NcjjIA8vx9Pmy+n4/fA8/n59ukhevr4df1xu+DXimCGlC4rx93iSoJe/B59H+f3uYOW5GXliaBIAEhQ2ACbIkYYOWAxAMDRJElRrUkIQXAckAbEmpQq1rgMyA1mTcgGMAB1KNYBC0GkdUBqQWECB2tcBtUDOBlAZcgDoHYgMoGseeB1AiIBoERIiVEVyKjLkoDZ6hWQToSeSA0ACdhoatCDVHYFsmNTIGiSiZSi2H67isIwgXxyqogRe1wpUvRPvSpcBaZY6vSICzJpUE/F+sgwgaA4gwEHPqYbunKZYQwaxGlqHHLRQbdBtbbQWamgC5DTUUIP+XdMMEBWTjgH0JmHUcxkae6ejsGohZNdyOvsikzo0V0s6joPSuJS/A6TpijWT2E6mXqZ5u+Z0cj40kEgDTWm6aqAUZboudFyPAAyFPCAiLS0+P5iUlSJABpy1aInmN/vi07j1SMO9ACWtan2ofarfZVqcJa7KFLdl4i1TXj9Iq4alwVoIjuUwZDlGz6OZw12ACNBRu3JW4EOe+OZj2ZAwSATSjTxzGCP0pXpjXZpxbryOoQ+ohIuMzmhnfUg87McXQQnYWQeJjSVOB8sVDZycOEfD1E+6mJY1zvkueWVIvMMc0v728pG31P0eHAeTZ2vFjVwpOdn741L4j8X/hrx+/HtlvOz2+/GRcv2/f5Xo0fiikcc/);lineShape=1;" vertex="1" parent="1">
                    <mxGeometry x="713.1230458117716" y="-448.07060736253743" width="7.815770432808677" height="17.540873032010722" as="geometry"/>
                </mxCell>
                <mxCell id="72" value="" style="shape=stencil(lVnZchs3EPwavqJmcONZcf7DVZYiVhTJJcux/fcehIXlone3Gb5R1DSBuXoOnMLDt+fPXx9PXr59vL/9/fjj/OXj+RT+OHl/fn1+fD9/2KdT+HQKD09v749/vb99f/1y+fvr5y7ZP/3z9m//hZ8XnLoYO8jLr8sXQVz1/33z50X+5fy6kg/Ot1lenZZj+bT5fe9Ej+WLS/D7wTVyn+aSzvLZeTmWV1M4z4DqIjlAo5NZgyguVAJIrtYZYCZKBFBdKAhgPuhOSzPAO0+uZF5Q2QAyATQXEl6pELeFuDlBhqH3Ac1JQT9konS0OADHcU9H+z0IPQte4ofkXZl1MDMUYtaUnc7B6vPQah9QXZtDw/uRT7uArE5mpS1YErFS9hjeFr+V+CGbTfwMUJeJpw0AJ5hSgd6ozRmaXIlU5QjZMFL8yKYaUJ78fkouC9zHM3mz6OyzTAPbwq6hfVhuxuQEHGAMTBS2xGpz1KmlBonrUJzOHtDiKskcy5M4m9TCVFn2i/PzCWakwvilDM5dlZFEdOhOmgnJsj+QVLNClWcrGYMFooOpWAFgyUxyswNmHZLQTLArAan2WGQnRJdnP2RxifG8heasQ04jm454XuYTitBsC0uhWQBp0Ow+wDgS0sHKJ7GShTd0ADW6wgAJla7GkQRwddMANKX5YDxfZqVbpC1A5zwAZA6wejvr0AoFmNWLRwCrhtXqd9tciYSGGdGDlZILJKfNJn4m1hZoaLSKRNaEFujWsFYZQNmVGtaqfgKxkgFyRQDzgwFqQkDmACgPbanx+92hiBNBRLz3iMa1RiUszUlsdDMVBKT7HOFpF7Djak97sZ1g8pRcDYBJ7SlXGgDY2ADK4ztF9ENh8b3w1goQSLfXAZsMaoS+u9IBAdRxdUxf64RgJ7Qx66xzlMdS2KTcDUDWO69UZaM0PwELhNAhdD9HWZXrR1QEsI6pK7GJbzZVGqBEBNygDYy+Gxl0NyDi3Go1yBMrWQ0KQBtl2O2oysGwceWFwzoKVjJDs3GmjcH52q4vzj9qBrBU253YlJix/TYzNTaiyIZdIx0rYxz1YB3gbIQwo8yEX8voHPcBaYT/AvC8sbR8ma9UCt0H2AgBzFRuLkHAczmPQnnUr/tZaZtNC/G0V7SSudIzHZaRZDVCVOJpv9lexUR5xoYUYNfIo9VmDtzLRNrQ2MwBU03fybGppmFj2eccPnMkSLlGubKPhjDwJtrP9I3eHHyq1HGWQBGidbj+aCkQcemgbOJQ7GY85T0bJKH3tshijFEGAw35xQL7HCa4lLnJeUlAngVRXjYYV32VySd0WB4d6f+Ub3Q0yRGbQ13WA0cKlFkBXWbxIwvpXHi6CwggNSxtfimnR2UEl418050CckXgjBrbcNICSLRP2qZNXwOz1G9YCqPS1i3EDd+FW2yU5jLSF3KsKqTRna4ArOfuqQiATLt6rU79BkCU1k10G4DRiwbcOd4oI50O5+AzV7IEbZgO0VOCLNiG9ecDYqOMK81QqU0jDqxWIwqRDyMsV5FdSBgpBoXJs+SUsZRfyTMHLHu/lTx7aZBB/6sqzt5vBLd0Js9WMYKPYiHQJd1mPjJ5NuQJ7iWNiliPIMim/ZmR+EtGtKz2z6zblLGdXsmzVwPB3XAQ2vMrPmL0Z1iWkHc+296Wtw/XN+Kn88vL5Yl5/X98U7avLu/R4dNv);lineShape=1;" vertex="1" parent="1">
                    <mxGeometry x="521.9147821880215" y="-522.194439350277" width="67.71383156882757" height="38.00933122828906" as="geometry"/>
                </mxCell>
                <mxCell id="73" value="" style="shape=stencil(rZfbbtswDIafxreERB153XXvUaDpEixLijQ7vf3oeXIj2v7bArtLbH6WePgpagh3L/uH593A7uV6OX/d/Tw8XvdD+DQwH0773eVw1V9DuB/C3dP5svtyOX8/PU7/nx9Gy/HXt/OP8Qu/Jo4pphFi93t64Cj7vw8+T+bHw+nGPFORzryQl21z78j1n/eeBHzfBxIDFOIAgErFdQAH8mkb4EhcOyA48rwN6OuYe6BQBk7ra+N0TJSA01GdDh2QAnHcBpIn3zudHQkCavveDFRyBeQ5kTOJjpSA08VT6n2ojpIDQKHQR6kmCmBLVUu131IVYgRoHvotCZOv24A4W90SyYHSkNryOgOZPMiDAlItgDItQnGxQgJ6UKBECwhyWlrlzEChBLbknYq6rz51y2e8xAIoIHMK5F5y+iQABelrFgsUnLmaLCCgbSjwrzhvASAIjaJ4C1SUubIoJk0+ypx2RrZhfWNLLlsgAo2uAAUnTrfkLQAlV6yotVwzBuoCCCis1faZUaOoWmtL0y2Awir2RFEg4mrNC41WDFin5+75bo0WXN9iD96xuWGNloWCYO/TamYLZFR9svBhjsNmO+4zdxOH/0TomWPPiFmG60Ba9NfUVLUOeGITWG4DxfpJmtshNR+MergDDRUdeHqVVp2ZgIZyoNyvUPDcl3RO7OOqa2awQhRK/Qq6ZgTVFLkdCPPMlNokuD6V6XTR97KoigCJ42pP0uhgWHWWNj4EhiOQz3buYx0UQWl4tlOZFyjSurCPcJqOC01DBxyFPkIBase1wXx2t/XBDXMXjTna+6Lj+abU933dt/rY2nt//DvYTp0tNgen5/nS9WoeYCDFmntUZ3b4xy1OJ/n6IXMz3M3dZV0lxNY8IBV+7H76prn+eL0KPx2Ox+kmffveXp310XTtDvd/AA==);lineShape=1;" vertex="1" parent="1">
                    <mxGeometry x="585.4337499264611" y="-511.7627445158878" width="40.56509951519865" height="31.16800900994963" as="geometry"/>
                </mxCell>
                <mxCell id="74" value="" style="shape=stencil(lVjZctswDPwav2JAghee0/Q/MhOn9jSNM47T4+8L1aViQvJ68qYoC3FxLUBv5O5t9/C63UR+Ox0P37e/9o+n3Ua+bGLcv+y2x/3JnjZyv5G7p8Nx++14eH95PP/9+jAhp6cfh5/TF36f7VQppckq8p/zGyGJ/158PeOf9y+X+EIlDvhCQQA+USkDvlEOAB8p6IAPoTNcNWhKcTwgJFIFBplyHg2UuAKDQHE0iIkY+FAtJCOlqFRBkCpT5jEJmRQ4XRLJSClFysAg105gNtBOct2ASccTslECTifpjOfCMEogD1KojVEqlkpwggVR22BQMwkyEKpjWBtTA3kIjXh02oqlgigFoeAMjCQ4oVEcq9v6gxkc4GOkuJKCLyTD/8/jFXwYuzkwQ0JMNfkDGmgephQ8HlUF+9YxfIDf59EBbVQwPng80i/2AdJKBdQckySPx/ydPJrANpgwFo8vIJ5hEf/Sm+IKvrYFnwZ6jFi9v7CJSXgRT9BhkZLDW74gH6keX8E8ixRdfrW/uRIfXdRngfgiHt9gvtysud2QS4VACsR9/F4qCvx+XDiAFgRjW3wCGphMs3cXeCTq3Gf1RQFVUBDs1wPD4+9n18AFjuLP4mc5mPHWokjRo1e4Zg6gmVR6gc0GglvS5vSY4mpjCvWYZXTMWY1wTNo247qgmGqBE2ybKaMMlbmu1g2sC8c0ZOnKsb7fFC8sqUBht23G7Tdpnj3rBuqlWmy1Bq1fk1+tp2JBa6N2xrNB6ONnffuQPltmdSlQ7aZScwaxe7W+vnOvnI91H5WSrftt9DnDtGn28iKYTyUdv8/4emN02eEDuq40L6dYrScxlM/gbftJng/Gp4W/iL/6/cMWEvz95vko6MtpGLnbWR/Q6+LFi3lgKzB2wB0Q+wS96oC7zMH9YwrQqNc3Cu6z9+mbeHv4uLw/7Z+fz3f/y//7y769Ov9QIPd/AQ==);lineShape=1;" vertex="1" parent="1">
                    <mxGeometry x="575.5492865403144" y="-506.2075011841637" width="46.262195941204936" height="33.36983362754768" as="geometry"/>
                </mxCell>
                <mxCell id="75" value="" style="shape=stencil(7VrLbhxHDPyavRJN9vvsOP9hwHIkRJEMWXn9fdgRejNdPVuCjwF8W63I7earWOTMJX74dv/p693FwrfXl+df7/58+Px6f4k/Xcwenu7vXh5e/dMlfrzED1+eX+5+eXn+/enz299fPw3J8em35z/GL/z1pqdNehhaFv5++8akt3+/+PlN/vHh6SBvQXJc5LP0SuRV6irfJAYiHyXYIq8qgR2QJJVVIUlmJxSxvCo0KZEoNMnrlfyShVwpBil9VeiSiFOjSdNFIeYZlnOFLLZeKflPMIUmYfVSDhLybYXkXm+rQp2RP1dI08SpUJJ0dkKVmhaFaqLptoLfuINCk0rikJPo6taWaKTdRKurQpdCbChBdI1D99QgNhSTvNrQixQSOHdiAoUmidhQMgau9xn7WwqaUcGYDX5CQgV6pSR1O+Edo2NAhcpsiFIVFRqpuLLBjCt0doKJrW7V4BXEjFDJ2516p8lUt8h1FoiA+T2sJumau+QtENWogm6hzqzk2nT7QSESo3NG2PCCaOxKhjXqJVcZMNVZkceiJoFzKA2AAl6EDO+z1BXvHZgY3o92AApKO4o3nLqBayKpoR1xJheaS+peX/t0chQgBaF58oSrglLo0yppTb6YZihvUYe0Xskq5w4VUcDZCu2KWdoaB7cqkGxNGQOngSqM9F5xplA2M3rmKh9nhzmVrxGbqE40P5VvDkpr1K4Yci7v1KiAPAO97siN8o1kUa/YGkwiSSJHE4U0FSP3H40mgv+ZvQNA1/tXSmIOTeAKR1KZg64IfeC3Rk7wdo85apSTDEIBJ0TpzGanXcCgrx3+PCkyOskVWJ3VqxOvCk7CGWNoyG9dIbLOVhCNXEFJ4jldBazQKxicY4VuBCDzsUHyNpewuDl6KsqzVhtmmzzIJwIVYcL5QZ6VzpbYI41IUws4YSjvywGJrcuzuU0n0B7kI7m/Tj53kFcSYMPpYsiTKohn8iReSdomz9pfntE/yLOW740lonxhjHZ64xhfxme3wTzRVpORgbh85P7Z85/kT9xwMVH+YbjoGPKM4GAnHvI03zD/EyWBAZnBqEeSn9d5/SDP5rqz+m203hHf4nv4s7UZFl89aUtG8Mo2PHyvHk/kSX5+t7wb0LYAEAOcLOpWAawnjfXDVgKMg5cqeasB1ldr3kDRbWD8z3DEHKhCstoJY4W0NjqJd52z1YEQsTi4QoMBkM6wQ361uXEKq0hJC6eYio2M171PnwB0fO3VIo7UfiAnWxbx94l/Ssd1TqSTYu4IjGXOILfWdkg8AiVCKWCAnWllYsFYn64njCmIr4BxQVv5wG5z0XiYXdmc4heIMKco7R4jSDBOd5oWnmXQz5wDV+JWLxPY8/mwqWwrnbDDVuUdXHGzXtsc126uZqA0Ew1cdgoEG91OSV1uEtdk7XFG5tbWDtGlzJH2x771x771f79vbbgw6o2OaU5K4lYQ1GgHphX6vOQas8GQOTfu1rQZ3RKlts7Eyrag7Yy6GW6l6zUfz7Gy48JilPk7q0eA70rHEW9ydXuCx+Db8R4ahFvF9kCjB64nxELJoY94EZgMx5mxzISHzZEu+33IAKO1zaI9HzLatpriU6FWhL6xj2MKGfcujT4c8POBOhS6JtBtD8HXFkPeQJ5NJc7foV/ZXEzckk9IV9kAoBtdtQmCt/wDWWf8ycY2VRkfO7dlpdFNohbckL/z+xXprdHm7PJAMIySW8/oiL9P1xZtewhCsfF7XwB5X94//Pe2yZeHx8e3l1WO/8e3U/yrtzdb4sd/AA==);lineShape=1;" vertex="1" parent="1">
                    <mxGeometry x="656.578010747844" y="-515.982611666713" width="18.9838413986281" height="77.11680303556045" as="geometry"/>
                </mxCell>
                <mxCell id="76" value="" style="shape=stencil(lVhJchsxDHyNriiuIHl2kn+4ynKsimO7bGf7fTBRKAktTat809KYIbZGg5t88/Zw+7LdpPD2/vr8bftrd/f+sMmfNintnh62r7t3+7TJnzf55v75dfv19fnH093++8vtglw+fX/+uTzh994uqtSxWKXw5/8vUZL+++XL3uBx93RqUKQVb9CkDWIQRaszSCrL1zWDISU4fE5SyAuaBI8vQUJdxxfpzeO7aFnHZ8nZ4WsTbev4JN0HSJWeP8vw529FNK/jVXpy+B6lsoxFzFhvkokDsUv1JxpJIomQpSCqN6hSOnG5zecdDCyLxIdiNeadHjrDdtGgdqxrO1KOJKpjFs2p06RMW5fcMayV5LmrBF94lrhOwrocwFdeqxKJ0+Zi93lQOxJpBYt68k7XMavrsoFiLdUog9TSKBJ9HkqZ77wcpTGfd2h/pe3Zi2T/BmOQSo7UmhTvg7VgIm+w0ii++BbKI3nQIMMnLhqJkDfUNBvyUHyUU4txhs+bNRQpbgthij5ttLZTlwRJkMYYo86/DyGlVWF44NQ0SXlt6AxIGaVIwyviE39+8eePtA0WPAxBml/DV5+vIJ3wo+F7ADzjU4snEHCQyPHAjjYymb9GXeVj+NLxPGxEKc5M85eQhPVfxPgwJjV8goakw2DBR8BTjdMwPmm+cM3fBppIlBCK4TP2V2fxrEhAV/uxnPUvy2+d0/qIb7xfGp6nMH+tXzD+g/dLwfzWK88PgA+cTxrWG81XnY874qmorsgngcohw/ez/uXn+RDe+B/klvUX6UebL933e6IT1TRA8/VTKD/XjDO+0XxpQj6MgWr2FnCgWsgSU39DEngcaUhN/VWgCL5GmPoDn3OlKnyckajJhES6Zgw8kom5xsouBNy1TOqwVWKYSPZx1U51+6IXPROZXIsk1Sa61YfJBCHrNcsczOIRaJhM/nXfzHZIxqa2e4CEtTAwzbtsN7A/DaqHrN+gP09Sc7mjFXX46FwSKUou81pJRwxc803JZ7bS4erRE5+xOPJbpRx5Xqo6RecKHkZObXzpleAJwLLIcnbmbx7zCStrPkjYHOnM7JOhD/xi8eH3Mg1ufpSL0ox0YaSa2dTPODXHZNk1PKiWcU3lpwR4eq9R5l54xCeuErAF6NZ0vtUMSl2GB+oalCYWFY7+UpVsBY/xb1yVoioK88pizUCRhqRwnQ8kYQZUyH74evK6gX043obe7x4f95epp//j7an9tL95zZ//Ag==);lineShape=1;" vertex="1" parent="1">
                    <mxGeometry x="691.8260238876851" y="-519.6388598810415" width="35.664455097148675" height="33.72137433731905" as="geometry"/>
                </mxCell>
                <mxCell id="77" value="" style="shape=stencil(pVhbbhsxDDyNfwk9KEr6Ttt7BIjTGE3jwElfty9VQxuTXo8T9G+95mj5HJLa5JuXh9vn7SaFl9fD/tv21+7u9WGTP21S2j09bA+7V33a5M+bfHO/P2y/HvY/nu6Ov59vh+R4+r7/OU74fcTlRpwGKoU/xzexUCz/3nw5Ah53TxCQEqUEATEbQI6U0Rcq1WABjQr6glDrBsCVYgSAQr0aQBHiDgEhGoAINjpTs0bXQiUAQKLSDKDladU6YHHiBPRADbk1EFu3dqEIVEqNxNoQQ6CAEJoJ1q+9UQU6xU7JfqIvjlsHqNudm4Q6A0CmYN1UK3WgUiexJkglAXFY8uAklaSBMFCwBrAmBrBYg+qKQesTGLxEaCnPQgJqQc939V8poTSa2r4lBWWgf6Nsa7PMkK/HSytN7PmzVtdTLs8cnvKa5qj0tc6Kk0cpzYl6cvIJpEPJnrziDPh6+rDPh0QBnF/1fKuPOgDIK4uIZS6mBtJHC5bZ5j8J8I/KOyoVWPG9EztihCSk8rU5eahP9/o0SiAfhnx38k2gvCN2NQjEV+WL9b/WS8AKheoBGURYI1DYAwpSqXmKGABkc50mnqqEkqh60u2QpLURVfFORUHWnLRFoG0GkMSQ90kRQfdW+eaTDnG02pvYyQfsH1fEMl9cilgSJ19wSrimgXuS5lzqTr7jIhDvH0b6d0+iDZLuyZzxBhDkUP2Am23mnHDRAF/FkBXP5hStAPiB5iM8agzzbjyrsSsx/hhAO0Es3qfABO00bJmrzta83sl0crPyOmWD87VTluDkETFqJ25Wf8aDSvJJynh41U4pTh4ltY6iWZz+cHQN/vwGM2Lpu0t8l+l63T8U3eCkLIMWCB/eMZkBe9nnW2bYuXWjspzLi4aXBm97fimQpHWyd6uAFDgqasDcqKs7GVoFxqjnaIvndHRxGLU82nFNDt53PMR43K2zphaVOgacUbvyABqIdE10ZVl5svelRdQ1Y40D6sZjBLcAXZlQu9Rl2q26fGXH4nneyQ1CQts3+wlHrUJrigKc0dduQdjP4dfuWdjPLJHhIqcAN5lGXKDjUsOmhpaUIJWK3w1GDeJrk3YGgJEWn61Keh0ZvWwb7wVUX6LXVKpnPHzF6Dpn3fe6ddlQ3hs43ak/lhr/f8l3BtCHtzvF+93j4/FK8vR/fwepr473l/nzXw==);lineShape=1;" vertex="1" parent="1">
                    <mxGeometry x="730.7540135277477" y="-515.9416490922667" width="30.795742524698653" height="26.018335940005272" as="geometry"/>
                </mxCell>
                <mxCell id="78" value="" style="shape=stencil(nVfZchpBDPyafVVpNPez4/yHq4wDFWJcGOf4+2hDDTAa6MV5Wxb1jo5uSTP5h/f109tqEn4/7HffV782z4f15L9MIpvX9Wq/OejT5B8n//Cy26++7Xcfr8/H329Ps+X89GP3c/7C7yPORSp5Rgn/Ob5hKuXfi69H++3mtbdP0tkncgztg+/snZB3EOC5B2TiCAHSA0SoJghwvUtSKXsI4NIBfG6fuA5IlFIHCAG7dHKgAaLGANIqseXkVAamDOrmhZypWyGfbwOCfq+PIUeKABCVOKEDFAeDTo6iAWSKoNJZKPRcrUIMXFIHSu0Byi5QuBIo9FmqlRyIQQHZuFSaoK4D4uBSaYq6DsiUigUEBKhUgwV4wCVNYhgAAoKuSmY3nAA0XVUuAyCASuvfecwScqk29l8AKsiSAqoBVBIUQyWfLCAAxakDzBaQkUuJ2FsAagLV2zYzAyoAOHJ9pR1z8/I6mYptTPMRiH3a+uoQNSi1CkIGyUV0gmp0OEHQCYGiSZNyA2t0FERGWdIJJRaAuKEaddECUGPSyiW2gAWNjpITRNc0tD6NAbGv2EGtbyJin9bVW0BBY/RMzst2jJaHTyN0CpohpCOiAPrFU1+5GEIBhB0yld4lpQtasXxqIj4BhATkSVew0tdaRzVaBlyx5Din4UZe2yS/WDdQa9JVoe+u8z4DJDeMoBBhX2I7HxY2MrXvv7+w8jGlfqwv7JTcVqM7l1a28S5sxdw63H1b96ACvNRzo9fZPIFisR3/3PayG7UdnBGgF28vDNx65Q2mmb2WYeKTHfsL889ua9hcdZLjJ7zRqgdrj4J1vtXxvly6YHWLSzXf7sJ0PxP+4/a4YK8P56vqy2a7Pd50L/+3V1t9dbwW+8e/);lineShape=1;" vertex="1" parent="1">
                    <mxGeometry x="781.434026375719" y="-545.3618985708224" width="7.131867430745842" height="63.524183128751474" as="geometry"/>
                </mxCell>
                <mxCell id="79" value="" style="shape=stencil(rVfZbhsxDPyafSUkURef0/Q/AsSpjbpx4Dg9/r7cuuuYdDSLAn1brzlLkTM8NPHd6/bhZTOl8Ho6Hr5ufuweT9uJP00p7Z63m+PupE8T309893Q4br4cD2/Pj+ffLw+z5fz07fB9/sLPMy5QkxmUwq/lRWh/Xnw+m+93z1fmmXo35o0aj81joBKNfVQA+H4slOx5UqGWxoAUqWQD4EKMAELBAnKhGsYAblSKART1ICBHlTobQM2UgIdSqSSb1Ug9jgG1UmwW0CmWMaAVipa3nmAMPVMOFpBJ6hggibolrlcKCCA3HjQNQEsKKDceBKRVAc1mqTcS7EHckWRhZgiwaZW4CH5QD1pe1oUwVVAQs4tqAYU6jrpbuUqjiolotkb1zQpzTq7vPkcAZg+AYhKK2QMYAfoNEVoQiLlO3aW1EncMcMRlYkD1B4BEEalPAVaugnvxHLQriE6MeYhWGloQfxM9JM7yMNcoVmthD2grNRr9kVZKzhGnQQuOwRdQgM31oxpNJDivXn3ab5E2xDdLrdGA1KdpckF0qvhIrlnqm5UuwBZwlYf/hUg3Cpdleo+mEDcfdl6Zc+yZ6GDOzZPUcR1hnnRWZ6fwAluTbgPNApquQIBr3Teyba9V+zHaaLpXU5FlixrtTC6tWWC3jBc5X5YsVRPwoHsfO0AkgXtltSdKiRKwD0sbumivUAAHCpTdHpqpABLC4v1ij8d08J01pmW9GdgH9/0AR6jauxkNG8xNB2uUYLTBSrRQhsEGqzeGgtbcuJUeDs6wrO+X1MDVVpm1nTEs4h6YV3bmqGX94/Vo1Vwf3m9iT7v9/nyRu/7f39z01fnWx/e/AQ==);lineShape=1;" vertex="1" parent="1">
                    <mxGeometry x="751.8344420198509" y="-514.9641815447092" width="83.06503925599418" height="7.439640307455193" as="geometry"/>
                </mxCell>
                <mxCell id="80" value="" style="shape=stencil(7VrLchw3DPyavbL4fpwd5z9cZTlSRZFcspLYf59mNhwNmzO9cU45+CavAZIggEYDnEt49+X+w+e7i7dfXl+ef7378+Hj6/0l/HTx/uHp/u7l4RV/XcL7S3j36fnl7peX59+fPl7//flDl+x//fb8R1/h61XPmRK7krffrj/kZkL6+5efr/KPD0+zvJ3kSzKpfod8tSYGJZ/n89RivFw/hUm+BZPl+tHN8sW4rORDZvkWlfw/p93k67DoRN7R+s14eX7rWT6Xc3lramL5Jta3Js/nd9Yaa5VCcrxBlQfiC20mCQdY4xeDrQgIa5xjB0QR0LBuDjg4uHgpPwd0yzcu1DqWd3J932Z5b5IIILskWB0hfhbQZZb3JrZzeW88JXyUCR84AXIaN3AoH02e/ZuiTMjM54neFCFfhneGfHCmiftvpsz3gxtrChCBWLPDXDBOKQS2GCYphADAzidy0mBXOCN1AjsAPqX8CJHjgABkzTeahkHH8n6BFGeqiCCEBG2AIzZ1omTinMPwoldHyibPqBjqOOSxAjBhPlIsA1iPFbDeDHMpG6sUmomUN8h7YUNYgCLnESjHCigdcxzlqnfwo5JuCsVYEXkhjMDcFKIM7ZCMpyNZWf1CYfRNSaIX/NrmHZKV8BVxS+TpPH45VggcrQAkK4yOaZi4BV8brjxWKOxpWBVERkesl3kHReqSG37d2SAV/KiRu3ywIpY6qM/h3ZcQRne/UgLBKlFHkF95hj0UniqiNRUGgeJkJU91RM6mUIbvjxUak80KeiiuFdHviP0GyZYzSgHt4E0ToQFQoXIIPq7oDjKYqgmMlkfKDMbFmyocBxSiWMISVdgAN0UqQE1SJDCWOCcQAl4qAO7n0ECWK1zCJTZK0WSCCO8amaaiYgQRrXVBPtRVBQIVd0K8BCVLGN0ctwpgHmoHdFoUfC5K6tkSczfsoFADVJnIqsujrh4rlIXLILoE3Pfuab4lcAMrHNe7m8AKqgK99VubQhmF+FShsYKyYdeh7YJJxXffYnZ1J0z6TDWzQtVWE2ECX1EVpXeBlRVUoYZC9IuCtoHIRj+Sir7GaOybrCi9M12vVcBGV1hQ4EYwUfvfY0N72lZWUHSmG70kRNRGhyUhVIPeFqYL/i47ssYzob6Dwpk2qMVOIWijm2WFG55uy7UmNbY5zFHF+lpj5opguuE5NqKN2cDpNS0p5284YklqZXV39ZJyWR8pLEmt2Mb3K+TlWr0coPVxDV2rHVadVTk3H8np5rLXUSpaRfa7zTMK9Cqn2Ebj0t7nlIrPoI4SMKVBr8/4DLE+tJtZ4D2YcFhbcDXHqXytaMySoolxTBl2kyXVs4NXVpqFe1nk8lIgih2d1xk3ph1KHmB4xr4pp/u9KYXAvWJNcu6QHd8SfK+iFT0KtU03Bo5pge83LnvWZ1UyOpimdijMmEqTKZoKj0IQLE51o5kzDl2LbP0Wx+GiFcykwEQUHbDicOifCfnSNvo+VrB8rTHJQWJEeM+3FL3EpViYrkd01GqHZXCHHdTjQQzc+mGJJMI7Om4IYJUcejW2Aa5UdCaU8byw60ZVnUZnSNQYSdvUDpGfQBB8irgGP/jUbrKhHqHCMkYoQRttOafR5KsE8kuf1cFThAbYEYNxlA0yFHg0qKmxX0Agbi3z2dSYdoia/njUGyInTs+lwwjmHTlRJBH/TWM1tOCKYPXnIoJ7OZxxbQxwN5v182fhwAjyPC4xTqZBt47l4+jOh3zTjyd+DNx2IwdV050dc5vNBdsE7JjI8GsO0lU1unkg4g7B1FA9LfCSJQOI3L/lMqYux6nM02hQEsUlt1eJPcGQD+hUm5sbMXsi/+OB/scD/ST/f3ugJ8hFO6ZmBct91izHeXZ0NbsJfZTn4QG9/iLHck9+44sfy8NzsA/1hY0dtHUHQOoB3R68Murz8BdL+UY8U4PT30l1AgeWV8TDcTzclA/L+vo87C9tr+NB6o373PqSf+kvtzzX6Hj4D1+Y3ZDHH2+fs316eHy8fg23/3/+/A0/XT+dC+//Ag==);lineShape=1;" vertex="1" parent="1">
                    <mxGeometry x="923.7328862587542" y="-519.467368956537" width="132.91006762570487" height="28.070969557010812" as="geometry"/>
                </mxCell>
                <mxCell id="81" value="" style="shape=stencil(lVhdcxshDPw1ftUAAgHPafo/MhOn9tSNM47Tj39fXW/wGXG3nbw5jtaAdrXs3Y4f3g9Pb/tdcO/Xy/n7/tfx+XrY8ZddCMfXw/5yvOqnHT/u+OHlfNl/u5w/Xp/nv9+epsrp04/zz+kXfs+4msmXCRXcn/mbQCL/vvg615+Or3f1hamGrj5Scdv1mUm4q8/EYbtehLLv6itF8PspU+337wN5BHDkXA9IcEfRU5YeUMnHbQBH8qlvKVMq2wBtSTIclNaFdcDtiA2ga0ZwBp8p5541R5IAINotReUN6EK7nmIHSJFCBQBP0gPENyluAUq/JdFTIQBT6FdQMRZ0hmTbmisFwMPU1toBdDwK4CHoGfotldz6tiUN149bdcRA3lztoSvDgdYmhl7eVUcQSEMqJTOhukkAyMprtoAIpJEDOQMobWi3AN5bQMJb4p7pWskBLemh8wBIyMeU1wFQANMSrbEqoIIuSRiYVkAGzqdnGFZAA6TeKskCIgOAUAiWhwrElxKJswC4QqJitpSbLWxtqUYLYNSlYu1e5wG1dbItbwEZqFV4ZQUBNqN3YgwDAEmjNBe6PwMQX3aDvLVLgAcdoCIDDwigah2YRjzoCiIWUEGX9AxseKjEuEuhWgB0PhXfsAKStzLt+/DjnYNOJq65yr1toCUUwJ8BBGk83QC3IVwHjH3ldnVvZYdoRu52A6wCqo1wRe0eaEnskUskB4jWeTM5QIWBgoOlWXMDcgBtUO9Jav4oEw8JdLIQcJc46xfpljDXGWtucpfdPDJVSv3vxxvlG3yZbMgM3UUFYe4RzbcOaVRP3DM8nQknaAPQaIa2xMmmT02L6HqOsXnJMsoUUFMHl89tLLauc99PfoL5OcfmVcuDGxK1zhT3LcJBslQbVR0Uqc64iYWuRdf1era5EztjjdYlXEuJ6/ViVe1aOFmvV8HY/iC+psDoTH1Gvz8kSA9T891NsQDQk/Dk++ZJuClwq557gvGD85LMlvqIXOKTbxb+X68fltcYL8fTaX4Lcv9/+9pDv5pfmfDjXw==);lineShape=1;" vertex="1" parent="1">
                    <mxGeometry x="835.3360538501738" y="-578.2446686808416" width="8.909340727794643" height="43.52850355044825" as="geometry"/>
                </mxCell>
                <mxCell id="82" value="" style="shape=stencil(rVfLbttADPwaXQnucl88p+l/BIhTG3XtwHHa5u9DV1Dq5VoTFOhNjyFFcoZcapK7l+3D82aK/HI+Hb9vfu0ez9tJvkwx7g7bzWl3tqtJ7ie5ezqeNt9Ox9fD43z//HBBXq5+HH9ePPye7VQp8MUq8tv8JFNtfx58nfH73eEK3zJp7fBBSdK6QWVK2hmIUA3rBllJpTNIQi2uG6RKtTfImUpdN5BMMXcGpZKCL0QhbZ1BY4og6WARl85AAwVZNyikPQvaKOs6nin3KWsmRgGR9KxpoogyptQnrEIlg5JSLR6fEMnE1eMzwBeKg38F8VSK4vNFkqgDXyYhEE8j7kWthUqB/h2+wiaoJIMekP9C4uLXT+ofqsc31DLL24+uZyZmJKCs/gNorgRK2eMjIJgH/40SaAAeCKuUQEE/srsiWGBDytCQAvwHYkdYogQIiEP8RgkgWIZ4ZKnw7SFKJQ14UM88CNpGAIjfBlwa8gX6qVTU1zOic2moZ1laaA0fvB4EDojs4m//Fc/UxoEF+BoGULOKgXxDoxA7g1rgBIpK2R2SaVkVbisoeIpzWE6F2xJKngOxGQF6zAJIPckWJGriqv7YC6YikINGvw0FqFLDt75IDKfcpUk8XsAxbCJw5yovOr+Nz15GeEpbk7i5zhSA6qxJhnwz8t98G9vcQ/kaYdnhK/Jvp1bPV1y2zdtdwMNcF7i92ge0DyhhAamfo7bpgL3vX9fvz/F28XfXf9rt9/OvwvV7/29gj+b/Crl/Bw==);lineShape=1;" vertex="1" parent="1">
                    <mxGeometry x="869.1979767194416" y="-561.4269011385452" width="14.228317275753398" height="17.47940055043432" as="geometry"/>
                </mxCell>
                <mxCell id="83" value="" style="shape=stencil(lVjJbuMwDP2aXAlt1HLudP6jQNNJMJmkSNNZ/n5oGFIsyn5Bb4nNZ3Hno3b+6ePw8r7fOfNxu15+7v8cX2+Hnf+2c+54Puyvx5v82vnnnX96u1z3P66Xz/Pr/P/9ZZKcfv26/J6+8HfGMWU7gZz5Nz9wlOYH32fx0/HcicfSiRfyvC0eycRO3HrihOSDks8UDJLPvbzzVcFV+UTTq6W86A/l2XfynqF7EmXu5IMjA/yTyfXeD5lsRvKx158DGaBPIZN7+UIO6CPhUQZES8VtA8TfvvcQZyrAo96QVYBIDELsE8XUAzwFvw0IXL/XAIYMAEzf67MopPpkPesMsQpzrIm1DpA8zQMggDySKmStEoPESImSG4wGmZEtpTy4FaUqk1OBk8gAL2VJ5dDnkoPFVkztDQ0g9YoATgPEb7AcQq2uBogw0oUp9G7NhiI6Qb7XG50DOdDxSqGsOirXprYFKAoQYYkKIPWBK4kKPkEFrmTKyAZpY30ByScY5JIo4IwGFFCiZRgkEwDUg0S6JA2IGGCCBhjkJel8UXvJodTwNTcXcbAovX1tW4tIWxRpqWB1ApN9UA8K8CBbeYgDHriTxgMgIBtayS8B6IRMPmhAAQNF4qqTL1DEgJS0WxnYYI30XnVEhLxn6gLKTdJcUUEIb1E6ZWLsJu5b3/QJlN8ycIaSy2Bmja1v4YetbPJuOALn6wjw6ASvJ/XkhwdFWnQgGFn9VUAuug1kV2tka46qmku5kq51QNQkPUmdo9Ee6gBpg7dAmisaK/IQGRIgmZqqSIVXIk6WGrdYsI2AmHfQFEuoMSqIZGunawAHTxASF9UJYgNifVZPCOFkqFny0F3lhAhySUhhMtpoB3LJt6m5oOuIMXnxiYq0rTvI+kLAtb4aIFQl15tlq+AGaGx5a0dRnCwK0wQnyNuRVgIT2jRYWICmqBCB3mJZshAxdpqaSNDQEu1qHi+WRLQxOT1yZQlFnd7qvPYR1qbV81PWzAT0N5R6/cXDiFmZuocsLgESlFdL9H2L3ZDXpAe6f5jl+IbE6JUb3wAYvT/bOkW3fNmLG8h1bN327+Jo3bGV5t/F0WRyerjice9HZbB40aYiZcKoDDKVdZiwI2UP7D2Dw8R6G8dJ8OVLuAfi8uN+3/d2PJ3m68Lle30/KI/mu0X//B8=);lineShape=1;" vertex="1" parent="1">
                    <mxGeometry x="892.4721362227574" y="-565.5226213808539" width="25.078115048938344" height="26.707984933975467" as="geometry"/>
                </mxCell>
                <mxCell id="84" value="" style="shape=stencil(lVhJchsxDHyNriiC4Hp2nH+4ynKsimO5ZGf7fTBROBlgZtrlmxY0F6AbbPIgN6+Pdy/HQwyvb5fz1+PP0/3b40E+HWI8PT8eL6c3/XSQ24PcPJwvxy+X8/fn++v3l7spcvr07fxjGuHXFdcLdZ5QMfy+/pIphL8/fL7GP52eF/EtUusmvlDs+/GlUbXxnTjtx+dOOZl4Zqq8D0jzeDMgUQczSKMiFqBrBABdcbeAKMQCAEI1WECDSY2BcjEA0TSjJQWqDlBJEEAoWUBiahUANEsOUGAdRHnQLJHeKVym4phXqIG05kxSLfV0hgy4p0RwXC0wS1XGigegamXAklqgYitdEwWwpJYpuRnq2NU2QP+2aW1MGQEycbQATTQA1E7NLqk1KCDNUrDU6EwJzFDyCqB0BFlSIohNa09Dg9tcqtTtprWvCWhL0gf7Z0AdjXAbEH1ae4eNLyaqdgYOAXYBretqD//ythmv1HSdNVMEddPZm09qhOMH21i1ahGkKFBy64kUI9qvk3NnKIXotdbnLrhNCgri4xOIz/7k0fgM6lWGShbxDYzfiNnvN4P8NH8yaz4TWI/y0eVTVQbGXx2cygeUn7bKT4bj19E6F3xmZBUGWxbxFew3jVN7Ed+Q5gfbl+ODLsSr/M9H3A7/W/H5yVCPcdXkCtjv3D0W9c1Qv3GlR7QeXumdh1Pa0SO7/QZsvLb0hc771XoCPDXKUOuyP4B8Vu+hdL8RHZQfjJ9soBOAQIMjWmH2AKR4NX3ZtfQ4msye5/KaCZATORHbpjKZAyCCEn2XUweDWFo6hZVfQSexOix3zrQE7biaNLbEUAtVUeMqfgY1aZBJOoOtw2QD0aZnDzc70w7t+OSlLZfUVAlyRKpdm9aC1SMrgPptZA9U/9UC9CqG7lG8EmgSKgggw7gubjloSXrzcy1GJdWRBVHy2Upr10EC0ibj7LgOUUHhJK9s4Hwr2S5c8TaQdQ+IGpU4W/JRQgot3isn2JVULM1teVzctm1FpmbXE4bCt+OL5xG2yWrUnXYClH9vJMXFQxvVvW8M4wljL96/WECb0FdXD4Z3/cW1YSYpJQDQCVyBBd5JNd49iMhoBXvxjnC4/2oBMrv4jNZThy1bEBTt94NPWO/H64f/72UPp6en63Pb8n//vqY/Xd/m5PYP);lineShape=1;" vertex="1" parent="1">
                    <mxGeometry x="928.0888271395083" y="-559.8406166406685" width="17.754537125561455" height="25.52168204169743" as="geometry"/>
                </mxCell>
                <mxCell id="85" value="" style="shape=stencil(lVfZbhsxDPwavxKUqPM5Tf8jQJzaqBsHjnv9fbldKF1y11P4TV4PJYrHDLWTh/fD09t+F/n9ejl/3f88Pl8PO/m0i/H4ethfjldd7eRxJw8v58v+y+X8/fV5/v32NCGn1bfzj2mHX7Nd75TKZBX59/wlEvPfD59n/On4usQzhWDwlYLcxjcmbgYfhEq9bVCFUrIGjVq+bVAyVXtCzBSBQa5UozGQSLncNkidejcGiSmBICUhqdagUQIuSaVi75ALSQIGekI2BkVglIQpW5cqj7htGmheu41S1UxHYJCHA8OgRaqgNGIiFmtQKYOwamkGa9ADJXBCpuLwH5nczhtxXOFRjIa7C3wDIQqjLhf4DPBM0jwepYBH637gG+w17eXk8REkgH2ndW0lsH+gVjw+Af+F4gofYL5cxU144H/x1DLhERdR6x4voB76qn40PgHhq/j4IzLVasweXxBZU3H3VQ8B0SnRrvAJxme9P+KUQqF4fEfES9neNzBDdYqeqKeGBAUUNgiigAQwlRVBRHAB9daSriYMEQR7RlS8AFZXUrdirAXXQXzCUKEFHhFQHO29wCNpTSQrfwJogHvxOju46UPnEcToQSXAlpxqTAQZDhoQJ0oR9kDQinEDUYE51qBGe4IqMZS9PJp2ofVomtC+T7ZMcx6dvc272QtBUuoDjZyU2e2lpY+h6tYIle0dRLcAl9YhrVgt02JB2qFjYLQuaSoRudTgB5wQR3tvs6NOxvaEDJtNhxO2bMRwHlK8kwMes/k2XseP5vARZLkLZe8PIzVLVFZ4dF8tMu8/xBfq6R5/qpc/hq08cS37eIK2mcTO749qetIWW9Nh0Pc2U/BqPgskKMF6QHX4Asju7rfcf/G6+PdwfDmeTvO7c/m/f2jqp/mRKo9/AA==);lineShape=1;" vertex="1" parent="1">
                    <mxGeometry x="973.786016020967" y="-588.5620693071287" width="11.980090321545049" height="41.105998752777396" as="geometry"/>
                </mxCell>
                <mxCell id="86" value="" style="shape=stencil(lVbLbttADPwaXYld7pPnNP2PAHFqo64dOG6b/H2pCnJMyhojN1nmiNyZ4ZJDenjbPr1uBg5v59Px5+bv7vm8HdK3gXl32G5Ou7M+DelxSA8vx9Pmx+n4+/A8/X59GiPHp1/HP+MX3idcopRHEIeP6UWgXP+/+D6F73eHq/BYiYuJj23+wk0AV0psANyplnVAatRthiRUZR1QAjV7hCxUQEm1UA0GUCO1tA7oTNmW1DJkSTqFZAA9Um8Q0CxLmrN2ABBPa8+UUElCzZ6h1znnGkC6BSitdwDNAER5Q4cWL5wUYnyGZIWTRgVYY6TVAYQYKD0KZwExhPnVbUQj7j5FRzRVqtECtMoIAaFagCqHvFEWp85z164BivWGRGwm7SDn704Z8VpIrNRdi0QZKmUHSHPONR2CsysTI/c1arLoUaRDpxJ8hoQAQnFxBqi0LGgt+NrQllvoUIDSV26+kjqjFlI3uya9e9HkhV07smsnWTYEBrArSeaZsSZ1YQ8QdOivAtQ61ZXE8LKs2V/4TWYabgKyeJaq3lUAkJR1q3Tp0K5cfAflhs2UfQdpTtSjl/66rAKBChA6ep0jHuzBjzjdTQS0T6BkB1Ysd+KjrT/qnQRaYdFrMVLE8e6+oAo8FIithXQ3A5MqzNxd5KUAv+7GP8PJGalYbgK0M3sqlVtgNZ73s89wNJS/uNTeDdeHz/35ZbffT+v39f9+39ZX066eHv8B);lineShape=1;" vertex="1" parent="1">
                    <mxGeometry x="945.4123217268934" y="-572.5877062688844" width="22.84004988431161" height="5.587143632820926" as="geometry"/>
                </mxCell>
                <mxCell id="87" value="" style="shape=stencil(lVrZchw3DPyafWXxAK9nx/kPV1mOVFEslyzn+PuA2SI1bOz0xm97NDkkiAYa4FzSh++Pn749XKL//vb68vvDX0+f3x4v6ZdLjE9fHx9en9700yV9vKQPX15eH357ffnx9fP1+7dPAzk+/fHy55jh7+s4cb2NQdH/c/0hRJf6f7/8esU/P33d8DnteHEhMryXHV9cT+f45Erf8d0Jxce44WN0Vc7x69+FL64Uhof5U3DRn+ODq2HHF+cbw8ey4SU4H87x3rXdPpJdrwxf/IbP3lWKl7zjs0t0PRnm7y4Te3q0f9ET5/bZ11MqnT86v+NrcInsV/1nP6+aXSDzi6u7/9fmGvEH9a59v43zq012LHx2leBDmO67BugUZAPK11a3AV19lp1Ac2WnQBdKAT2Dvu+5FxcYJys6RddDJgNSmme0BjSXyB5Sd97jgEzcQlkVKg5gPM5hznfYNDuHXDHy9vXM256kgXanfo+UytU7D77UXSNLUtdP+xNacUI23fQJMCC6RqJ1E0M39VbiS60avsn0rpsDukdvVTOwc1Aj9t2XNMJ4NkDmFg8hLBKKqiPE3UojRhKzqvfLvgcNwp0NaBglc3TCrNRwD6IMIWm8dxdhgMYlPkB2PkikvqQD8r4HJS01a8dUpak2kFSlAyBqJD37TK0EyTwqgbhZ/f4Ejf+NPaFimNGExPjQM0YNzah0DzIdYQkqXSSJGsoHOLiQJ2nPGAexVSWkkCW1gozrlKEtoe9VV1jcaxgzsiskKNU0FebyCxpiND5AmIw0lxSP69GcTeyT01Q473gmgaWg1wXXCXFSQw2faHoeincPRzwE69/gQdVFYh91yLzTLHgagUMyA1YZcNtFDQfKLDNORJvsHq0kY6FINwxxQj2IUCZhfB8eTU5Yk+pOej0SKqiQYElokZOmxFz4NmXrCb5FxLMwlzDbDD3GPNS1gHhWhKSpgw74zPFmfsbIhCJe8ZUWpdms5w7em/XQokXMejKdX8z8iZ5vaohnRb7Ft1mm/s/1tHv7zYgXOj/EB8XzIjCb9XN/g5pr4Kn9q+GLUHtWsx4mGC1fGi3pbvKR7hf5rtKM+g+uv1M5mjBBDv/n9rf8ovjcDZ6uJ5v9VqLK1D8L4vl5iYk/wvPFT+GjWb/Qsiya9a+20cl6PKjWQu0vRuXGO/k3Gs1KRe5k30GyMv4Gk4BDmC5+JlEg4jaaMIYi2B+QaeEw8jkwhicwK5n4ARRsi3naRbMSdIn8U4mL8zNBVkyFywXNkOhQ9kwXPy0BoE1K16MlRtrtWahkbRUZwAO01khQeqrDBVbnRUwxgUtKrfMgJqrGpbVqwc5z6JQDoycHqjjyJTWsq9Sqni1pqYxDvc3yzOgZQGCPs4twNqCD8uDt8+BNdTu0E29L9N2VJM70fDag7NxRtkYSrW/0Ynh66qaDq/xObIBpyObCG1AFFa9GBBbhe57d1DVAqKTrCXNI4ZpLKdf2g6vxHqehyqp6Dqz7KVNEryDg+RP87JuvATws1YxhbyySWKn6GVVWayXQJanVoXPYV5v5dmZos0946HMzrZAD3kCNXj0rpjPmwn6nmmuz3fHeP+DpKq2Gx+ERjKPjhsJsgvWsRskO1wH83iqYpoxShGngIObSJNGbK804EL+VIiwKmDbayHq8a7IHPs2qhXi3YFVXO+8r3eAn3fC8WDwEAIb3pq/faD95WW/hE1WpHq/CM69yTObJ/IJIuQ+XAOty9gQPmlZ4n9RjFSiee+iMPIdcy/whmC4OzyERr1Ui7/9HnF9/YXjTdg6NXsWaLkLg154yn36QeKwKFzN/cInyqyTEs9AuyBfFM76bADTwdL/QpRh41tfGEDrwJB8LXp2P/dKr/G7mZ13ePE/ngGf3HBmvX8ddPbFPNq/KBKrgLT5Se2bM3CFS9fHzrwbdw+uH9/eQvjw9P19fYzr+j+8t6U/Xd57Sx38B);lineShape=1;" vertex="1" parent="1">
                    <mxGeometry x="915.440824933924" y="-526.6841917240363" width="220.82518318696384" height="69.88428237167273" as="geometry"/>
                </mxCell>
                <mxCell id="88" value="" style="shape=stencil(tVjLbhsxDPwaXwlJ1IvnNP2PAHEao2kcOO7r70vV0HpFrSfooTdnw9kVHzMaacd3788Pb/tdcO/n0/Hr/ufh8fy840+7EA6vz/vT4ay/dny/47un42n/5XT8/vp4+fvtoUW2X9+OP9obfl1wUilJQwX3+/LEU+a/Dz5f4l8Or+v4SNXGVwfiHUke4gOlcju+Firj+5kiWE9lSn6Ij5TB+0slTkN87g+24wMVN8RXiiA+Z0pjvt6TD7cBSajEERApCAAEygZQqIISxUShjC3QHtfbAC69pQsg9a5vA1zv0dI0RxxvA7SppkqcyIEcNEU2XxASkINWXcY+axkcWFKhPK4oOfIgPtoMUiIGfQ69R8vcaYnAoCpNTPzSxu0eUB55k6Uzb3tQyY9DUSJFD4hsealMSiBfneJsiBMogAUF14VnAaSe0zZApWJsca14rjPFMQfxcEx1ZIx4CUP1SsmqoyQoRyoXMlZJCtS7IhNAkwaCVF1XkxWggMYpIHsLqPgLdRQkEUg1BcgECPgLEiwgol3EUckWgEZDAclZQMU5+CkHQRvJrPPOkQNbpyJ4/gTe26RMSYCsy8KXFaCg6asTg6Tr1E0AWwADmWmqMjXCARVoOUzzLais+u+ZELhznC0gAyVrrS4T4INhmgEg6TauM0dB0o0QdaoSZtBMOY8ZNJM64iXVaTQyGI0mTNNoFFylMPFBgPSVhS5rABq+RYb+F0A3CD9PK5ilFCcRyL0z25tctE6peXxQJbVqwXQ6QBFQrxGMFZCuz9veoVoDWjM8lfjQvcgC4A/cnuGPNsaD2WO7n6hbQnzznStLPHaTy06wdnsgYWe3BnWT6JQRyI89ThE6+mRPSVGg8RFrxXSqGHVY0xsbpn4+gAZoRdP4BY5dNLcB1bZYF4kMro61jHqkHh+pReR+ElwADu4LaTJKPndZ3gaUfsZZANyptK0WcdJU7Bg8OTOn8P0lW2ImaGHU8pu5ZthlpTmbhOHRtordpRzMV5XNnPJcL8B2fO1b2Coe3XZUqxMajw5Vi+qs4tH6dYRtvogEV9d7jUfuq/nFYuIjqo/YAXXwuLOyvFdABZRpHzCUIYfji72eCkB3m3011zXEQBfbQcUOaEIFrfP6E3r/v17HfRivP653f0+Hl5fL1eH6//auUB9d7hn5/g8=);lineShape=1;" vertex="1" parent="1">
                    <mxGeometry x="1191.7927606271046" y="-528.596723156355" width="39.60415421846574" height="73.23033157357713" as="geometry"/>
                </mxCell>
                <mxCell id="89" value="" style="shape=stencil(lVhJchsxDHyNrihuAMmz4/zDVZZjVRTLJSvb74OJQkoENe34NtKgh1gaGzfx7u354XW7Ce7tdDx83f7cPZ6eN/HTJoTdy/P2uDvp0ybeb+Ld0+G4/XI8fH95PP9+fVgkl6dvhx/LF36dcYlCWUDB/T7/4Si6v398Povvdy9X4pWqDOKBRNbFfaWQB3mhkNbl9XWtg3xt+t2Uj0LRD/I+UKnrgCTtdQdkCsBgzlRHBwXfdLwJkEIljYBMEdicC8U4AGKgGtcBRZrGHVAooaAFiqPRKVIFKlUhNoBKMQBAJT/yghNlYIN3jtxoBNfmuLUjjJskUUE6ZeLxBKmUPACkxuUGyJEyUsmRjOzLmQpIh8LEYQAUD/Mnq8Zj/ugnPPBrDsSjSqXAyAnbE6onn0FClEbODogkwEvsbRyUXh7QNWqkeQQoNUDglP6SLKACt0YN03jCFR/XEC5PRwCrl8pULCADv0a2OimAQagVwJPVAYRaAcmopLFERjNJtgBGNgi5agGonSggewtwoLpqHNKYo5rmFalUKPAEQNyo5GaVMEDYAv6debsHOfJhcisInAJsQhRYKxeAydEKk1oBbiJfQo1XuSkWgGqlxsE03iWBEFuL9dJ/5OhsNeSGkDgLQH5d+O0tQHDKSbCAiJPaluPOx9UqMCW1oMjxVL9LK1VrRqcpqT3g94cBqbTK2AEJtkXmFtcOCHBOlNA6f2+LtZXb24Bqy0bJsDBlbmzugEQOcGnp/GPgioMNQsc+U+912vDASzqepFElnWdQYdJGbqY4dYPHE1OdZrKMZjK2Gcc4RWuf8TqAYRyWWXd0q46uaCNY5qORSwnbUKYTLgPLbWokG+mYYE4vM9nI1qANApzAXeMOiG0xup1xOrKZNeidzj5Rwyc4V6oC2Y5YeCNgu/pl2FCm+SrBGtMP7+pQBgVDG6gxt21EK+LerKENvyJudh8P08y1QnLZ0dGW4doUeBEX+HWORhwtk87eADg4dHrbzxxM32DnEBVHLLMb2zsTgi3qfexZES/OiMM29rGrlHfF9eFya/O02+/Plz7X7+0tj/51viGK938A);lineShape=1;" vertex="1" parent="1">
                    <mxGeometry x="1263.8306680696069" y="-510.9693473587281" width="22.73350921280644" height="54.51512683455621" as="geometry"/>
                </mxCell>
                <mxCell id="90" value="" style="shape=stencil(lVdJcttADHwNr6jZl7Pj/MNVliNVFMkly0n8e2NCkxIwYVO6yXRjsHQDgxn8w9v26XUzOPN2Ph1/bv7sns/bwX8bnNsdtpvT7sy/Bv84+IeX42nz43R8PzyPf78+NWT79ev4u53wd7QzlFMzcuZj/FAMmfDvy/cRv98drvCOYhb4XCmmZbynaiW+UInL+Eipanysy/gyRXsVjwXxWEvWaYNSgEEkk3RECRhwSbWHRMkAg0ReeXDkgQfvKUdhkPgIUNTgyEjWIueQAQuGqqQhVAogh2TIyZA8G4CQUiUnPTgmDhCdMyVZJS509EAZXBPJgzVU7LJBDWS8zIEccFAreak9bh1QI8ZHjXeABMZnGY8lj+JnIUuW3cTiEr4qVeDWMXN+s1CnaXCjA/4AdN0nYB1ZzEBWFHtMcUeBDVTu4rjNA5yD7TxE0Ai1UE06B4c8lCni2cBSQEkXPePnGBfxarxQRrrmgKQsApxGLWPJGo87zMFXxS99U4BOGe+ywhvcB0Gfv4JP+nx0gzRZe53vStsEVU80e//Tl2licNGBTBiP3oaXl3hTHGYgSwes6a9hvFhSmUHrGlyjoAziKsn3GYRp9MwGBY5fvm+CpI3naQVJ842WpY58hI3Gd2aQPIQw+Vy6ldVmEQOcj5G3I+khBZgDbxZW7YNYrLy7FDlcCncD4MF1ZS08b0BIbf9S6vaUQNIsBJV0TXB36XfINjJB0t2S2tQIUuiW4KsWv23LvuwOt23xbcYCfPdK4ITRpcabWdF4dKcZLeyaKQBRdNsmM+ZAQY3u5YovZdMR5qaMlvByuFQDr+QOz5q2+HzVA4kMPF/lW8IKv65vSjDgO74KtwTQZ6cHfmV6iL/vVbqO5x+XJ/DLbr8fX9DX/9dPZv40Prf94yc=);lineShape=1;" vertex="1" parent="1">
                    <mxGeometry x="1312.5883827248854" y="-503.5431502952995" width="79.98792982538362" height="6.655707990428482" as="geometry"/>
                </mxCell>
                <mxCell id="91" value="" style="shape=stencil(rVdbbhsxDDzN/hKSqOd3mt4jQJzaqGsHjvu6fSks5JpMNIsC/VvLHPE5JLXww9v+6XW3BPd2vZy/7n4enq/7hT8tIRxO+93lcJWvhR8Xfng5X3ZfLufvp+f19+tTl+xf384/+g2/Vpyj5joouN/jwK0Hn1fx4+F0J14pJCWeqLa5uM9UWMn7SDnMAXJf1ApCIA80sKekHQiFCvCAG/miAJyIASBmG6IYqAAfkrioNSQJap4DcqBQNaAQI0AjbgqQmTLwoUiasgbcrvg4z364OAAlUqsAkK2GUqGGFkahDYDoDAwAjUKwgAqiJICo81Al0BECss5DZUog0wIwTtdECTndqBmThFEeEMg5G6bmyWObmrapRUjp7kTUgEyp4DAZDZUSjms0GhpkkPztmwWg6hMDrNNSLSgRlYruM61gk+og2A1wa1UzQPIaEGBjeg+oEiVU3wIw5SqtCptkSF0jJQxoxqRAdSNxOtPCUWjSu04mGhwgRC8+YxJvlre3TlfcZ5rxocBa+oijbsRhqkJnrjGcEN0JA0hUMEdNqqW+GwbYchXWbrRj3cru4vC/EFI8bI1i4IUQoGgVvZeBTEh5WlozbK8ySU3jkOpIeFab4d7HFqhw2Qa8maRp1Pxs30japCyjF3RL2WiKNinLTAG5lp3JaUokHkNjtpUZWovOCACy97HWEMUk4INslklrYB7FMtlcvVksJZMgqo6Kvl9OIjDIWXv6Jg3skds033yDjc/ZzduXDXu8bgBeVhNoj0mx50HXmbwmjnewJNzw7kYDyGQR10TOG9HxuqJ5LO0TcdZ9JYzqmOXWPpIqDH2x4mga/OMTbFNcPv6+9l4Ox+P6WLz/374O5Wh9WfLjHw==);lineShape=1;" vertex="1" parent="1">
                    <mxGeometry x="1298.234978032665" y="-478.96492627929115" width="66.71738577060842" height="5.517418791110913" as="geometry"/>
                </mxCell>
                <mxCell id="92" value="" style="shape=stencil(lVjbUlsxDPyavGps+f5M2/9ghlAypYQJ9Pb31WnGh0j22TRvIWhjS1pJa+3C3dvT/et+x+7t/XT8tv91eHh/2oVPO+bDy9P+dHiXT7vweRfuHo+n/dfT8cfLw/nv1/vFcvn0/fhz+YXfZ5yjXBcQuz/9C5f/ffHlbP58eLkwj+SbMmdyadu8UkzKPFKq2+beU3PKPlNqwD5TLMq+9ftN7Zfbam89U/AAUCmzBiSqbhsQMjkDaJQiCGgkZyIaKIMrJaakfeZCBaQsO2pZAYKnAqKUW8/pCkiUwQlF0mBOaMQMaMHUDC+YYgCASiFqQCIGYW0SJX2lWDrT54DVxRXQYFhboaoznSSsgBpNYuI1AGdaAC1ogFwSnOCdFK+unyReF3hENEc0qshrSYSpUCZGXgs3tNc5UgGpbmtQVkChADJXJU+6qIsjD+JaI1VNpsI90nN+1x6TFZD6mXMA9wusgEoF0FViUnVBVEwmyWvQ7BOvUI0Km5tuG7VQAlGKgbw+oTlY1KFYp6UIMxgOQaKkyddir6l5Ny59eqyATA2EVfp90M11qSkM4DIA8EQxPlwU4eYMcsMRIHPsqQ5OVMC+BeAtALUyAZTB64wSMQPEW68UUCIGJbC0T1CjS1iHEzxOtY8DAGmBGTc8ipLMtMEHD7qxANLoNErcoAWWsGK6poFLCYfVllyDE2UBsAUgxcRsR9BSDzgPYch0Q+STTBvV9x81mm46wttRfc0Jb2fQtTB5O+WuJWJWozDVvl/gkkxXijpbAKSrtzPoWkHcDCjEJnEZ1qhIYaPiRH+ghi8C3wLW3jafo2wzXXFYZVJnXaM1w0yLFnDmhACvJGrDiOPqoOorAzVKgfQWuWO6QIlwyIl6MS/Fsk7WLdVnBJA8WwJSroGc5lLOWK+nPjQvlCsin7wITDfOHspEEdN5UN9I4H+w/1LfoxMEoMMqT4iGTpDEGUDsP7HlNGu2JoYjSMLKOnHJdbJsPeWM07H2Z/+cGqX36hWQ8ZaC7ZNDxC8DQMlWG0fXa3BecSL/NUD6SERvcGcXD4GvrQVYc4kr3LWIi8UAInyDL0sAs3hwFFAzrv2Jvs7dDH2Qdm86nw+wCcjvmZr2rsvArQVT1CeU/jzd2F+ZbU6iiKaJHbnyrgTmzg4rB3ukvGqzMa+AQs7uuhwUGGIejHnGv+6MeQJcmJhHUGCTywTAg4mrDOPubdwRyyZpQitSuepgDi9jVphYmjqrxzHhb1zvXjWXDx+b5MfD8/N5EX35f7t5lq/OW+vw+S8=);lineShape=1;" vertex="1" parent="1">
                    <mxGeometry x="1336.6380037663594" y="-534.9660269934564" width="120.42365599495088" height="111.62346846919422" as="geometry"/>
                </mxCell>
                <mxCell id="93" value="" style="shape=stencil(lVrbclwnEPwavVLAcH12nP9wleVYFcdyycrt79NE5uyh2e0tv8kyLWAuPT3DebB33z9/+Pb4EP3315fn3x//fvr4+vnBfnmI8enr58eXp1f89GDvH+zdp+eXx99env/8+vHt398+jJXjpz+e/xp/4Z83XO8utYGK/t+333hX0/+/+PVt/Zenr+f1xQVb1geX1frgwvr3o2vx9vpWXazLenOtifXRlXV9dlGcp1aX/bK+uNbF+uh8X9Y3V/Pt9aW4uv794OdvrgOC62TQ6KqwUK6ulxWQNCA7n1dAmUa7DjAX1zuH5nIQgOjSemlEURBeAyBTVCCMhBtwpBxXgI4jXDqscTECSZs1hhWQXFZW2jIHoecFAJ5uhQFJHKkkFzdAUYAyA+EEUNlc+mal7JrwdA2upA2g8i1tZs0yoSvusAF+ZMh1QHdGwVecF0cCZfjEgB+Gvg5IW/CVGb/XAWWG2gnQRXi37jx5uroi/ND9tPoBaM4EL/XoIlkJvlc72OTRE6Arpj+I+mBuMJ/IhwFYacaCDG8AyEoG4hGOG8VnvbSZ9nTdjmSuC/ZuuMPKrZacqfBurm8AZaVqnKJ2UNstEsiBASqWQGS2etqKDI0cuAIBUER4pzTddACqM7GDbVUav1EkgMihGmdNsveQCWuKWpdmHRXNM6CKWAqZ6T75yVTXAZGPBIDaAQde/ZYQ70qbMCthfRYHQq6sNk2HGLoeqq7Xbb1wGi5MXgbAlEmbK8aAKnYYlYCujHQSOyAZiSYBKMJGOACxHoLdK+kTnFUGFHGHkZ50hyzvAAKwxoCiOOmw+gEo0wy3RDRV0KQVZfOT2A9AlaEKXiXZDUBVFTRtl27ScaOoUyx1KXKbcfpk75I6EooTtSa6V4KV8mpW6GTFqygmnnZA8CnHJddXK0EnJxUaOPHKAdDJQSnKut0B2kaYtUSmSejkoPKhsgQtJv0wyhW1fEXyEoKZqL402WGBp0mow27qSKPmrzsMnSzMCq6nNhc6uQkSGJ0C7QAeUVQZmVtbmBlyqyA2AsAPGkDCpOVp6OuAbXYAYZ2FH1CxKB8g6FQF3etDa1pn+ElbEwAlHsSRhlhbLw1RqvyAWKLWGNI9C6ocXL1SZb/T6aIPXUOj52mGWxlH+dB1fUBOlzUfepWdbt3qQz9E6S0ACfUxyFJdYuCSBYAya90UZe+yxuFIfdtBlazqmQQAkLMoz9IBgK6UQGdFFryXBQKIXH4WEfZDKRXauHUd1xY1CIASNsNqQN4ARdmpcdEawaGqXLviOjnKaeyJrum4HP99AkTV9vWphM8AnUJhu7RqjgGgMci4gxoW+TlLOltJyZMwQ+3sBz2OoonA8LSiAT/nMOdYUjTgZw6fo1VbKW0ANTcZftispIZFw9M8Yr6bo1wiDma4Ga5bbHSl4n4aEHgu2JvUiRCqpE9QhBQLQJ0bEbieg6API4HfkwxX65vnTEpXM2ZXiAHF+LG5RGb1Mr5j4oRoXbbUV1Rcm3/iVg9eaYcip3ahbUfK93agaVEzLY49D7AgXRWTQSfamg9VNymxMvVBfsvRSWRPV5O0YY3ZuAYpjpNxRUEOmvAD2ttKgDtzwcx+KKYfODynaLnz9pWZBHKTg/UhNlbqy0XuMEYbq6ez1rp1P9KRtLdmITQ8QdMu6+426896bNc8szeoLYo7IPptvUMCPatL9214Ul1TWhf63xggx97BFZolFnkkhEbdZlJKYeWNl1KWO+RNnQCQVH2Im5WSfBwA3dNT1hiEC0/HzE+KKd2jSmpS0rHndUBgOQNAUkqXB0ZYr2LPuGDBakppeFZ8WK/cHLap3Z1pERN38rJatTm8PQ/t1Qwb23cGqFIS0vZi1OWgMnTewboMiriNQq3JZzLznM1W5yGvA7Z3ZgCCegCyDVDkcClv8tD0s3HemkQAlAbYCcaSHrZGpmEA1EcOtW47mNyhRdYAACiztsrZZlHScOv8qGtBPpNdxmEHwEuSxJEogcYzlUq4NOc2B6BpgOfxVaxSi6FY0QMKAOqpb0i1ygD58BWmTc4A3S6RUhpEqz8r8oEB6kONYvydVtQyHVKNXvviMVi8NRVM27cjat6V05XvX5RZL68fByDJly+whqdLx1m/bmkAyrioP0GAiKZ6OCqY+krITxFyNOtNDk1waQrvUGROQ9BSB4cSoz4FyZ1npyHKh+mSmMjCUTFujjRoDq8nS1tvr6/ctqY1yS6gbZ2MSR+MnplCe5ajq+t74lGDl8Wq1/lV1mW9SoQxGom8Xn2K07gh1poE6wt/BKrmSb0zG3nZVPXtCdtLBTOmfnweVRIug/bLevU+cZnIndYL+5/maxeACtC+0YSXz6x9S0kv++BxYTaoGnD/9Fe+d9fjh8snxZ+evnx5+yL5/P/8CTJ+9fb5sr3/Dw==);lineShape=1;" vertex="1" parent="1">
                    <mxGeometry x="1461.610515840071" y="-531.7708501767997" width="40.959653424887165" height="138.2142685012077" as="geometry"/>
                </mxCell>
                <mxCell id="94" value="" style="shape=stencil(7VvJbh03EPwaXQmSzfXsOP9hwHIsxLEM2c7y9ylGmNGb6nn1IiCHHHyT5SlxSHZXVy9zZ2++fnz35f4ux6/fnh5/vf/j4f23j3f2013OD58/3j89fMNPd/b2zt58eHy6/+Xp8fvn98///vJuPbl++u3x9/UX/nzGxVDbAuX41/aLlP/5xc/Pj396+HzxeA650OMxXn+8hBz5r7frj7fQOj3e0vXHZ2j58HgKWTyeLKTjn88hdvF8D6kenrdtO+dnk4KNw/Ml1Cmer6Edn28hmnh+hnF8/x6aeB+z0I+nP0MWf996iPN4njGMIQAzzKM1pCzfqOSQ7AiAhVQBsDCOW0g1dHFnpYZINoFbLBIwaYURinqlFgptesprBqCT2UV9Si2M4ynBsm6sUI+bXpYqvNhvGqaqPA2ATK+EP6HuAX+PAF0fawl2dLY8QtUrkPHBvKsw73VKDjDVsXbmF4sbg5wDRpgOYOIeKti3MqAIj6vwr8KALjZdcXFH47O0ecg5AKceGVCEabQcrDBgiptubXvjHbDv6hTQ8QJHXgKzFXFxvW2mtgNKKCLuDMfcVuU9DDA1rYA1hWnMuIWmHdA3HjkHWGjHwGwjmAqGzd30lOFkji3SXwCq2PScG1dfAKZaYW48twdEOJDawwy9OIA6VoTEyoCsAdOtYHrTczKgCvZOcZdEF4imj2l2BnRhrguQGKAC9TqmzABFfevmaNdJaiUAiMkASHrTJTqAoI1lfeWVgOj2IK1vsHYAIKtjbWebVk5dWMGtexBsDBaIxoCmTGPf4r+07zFZkgEQxbGOHjKx8ZTWOirH3cUzwoOGsT8AoKhv5JMVkjDvkRwbT2kafSe6S3JVMWu4yD6kYOqQqdEBhAP1uoW0S4Dag7EOXQAdd/keABC21KNLmHYfPJcC48SWVIoC7VBczFLm3QqnlLYz1TkAHtcY0NUKaZOplw6kAHHjiEsXFaYBSeaDXBcOVDvnA4u9xaZrC9YYoNQ6ZKU5Mla2VAtfHHJBpdarOe2gs29IY46i4BHBSwBUosoiyRgAI0CTQREAjnFdClcASBoXTWQ4JRKuNUmPwz3Y8ZXqjWPFTR9dFL+RptE484M53rBWypoq5Iq6OBey4INK/sDjSDrAy7sigcR1q1ZlyAJgUimnbzxyLWuqx2MFF6qMw/NSm1tt5BqAXBR8Lotvxi7atYsCkI+v1EuIOlUcRwdCEJMrZFYzL2Hy2j1QiQ+BWOXHMI14PKWBDFzx0mDzhvpQKQrMm1JF6JuhAJUrIUMbn6fK0TXdJy4wjbFx4XlhY7J5QzYOVToZfHFLmOoSFimymbdjuFovOjoQtLJKqFe8Oe4BalwVNlaQPfrDxM2o+ungqhoSBJUDGYx5MEAWXHd32QFdOpAZZ68ryRHGZ05KAyBXcB43d7lyrYo9j6yBRE3lcbkx3c8pA3uu2yG+1LF1m2JV4v0S4pgAKIkByqmzK6CuWocQGwBQdWal2MK+AaB0FwBlrmuF4i5Cv1J2V61EX3YpyrKNG/fgzPXGKU1nrl049TKm4QDKmJrjmaFv2hUFpk4VsxNML6WOqwB3cUqSrVdyLtc04MS89bEyfc9bpkFqfepiPADdr6ABZTiA2kPdij2XLirYeDmQu2nV2Dl10aIBngRUGF17cIAbzHdi3vriWmJA/08Bk6UxgpwiY4ssZwBQog9Bjo+1S4WFMMpRsUuqRKAmtY7IrjzOGveCp84tITbYRasWTHGznAv9o8r9EEyRVrCtmHIOsM1dLjScYu9S3U0n2Qla6TPddLwlXClkDV1gqnuZ+0JLK0lWXU4zmk4gChdnRtl047WEmhQWEgjTCTXVvIY+VuQ0pBJXvVPlxy5r6nsl7xqARxeazstczw+pYlbZa2Lx3U2mKC3zTa90V6fs5NNIqFV3d1UlaIUofXqVEqnsAKrUx+rLDrJZGzk+tKrN2zlQK1Ktw5YoKOLclGnAvKn8s15SvVLlRK4OWbw/qXnVLWJcS6gp48Bv1CxCdQEFPFKEaeC/zRX6JMDFOHChYm8ASCSCbWXZIbqmYtFlaV/4Nn0Pmdl7zQOpQp85QJJ6aXGrr5Qr5qscslb/WHNrpEkBrYxhm8X1pmQNeHJAudHMWsVK32rSVbVRGKDiA1yeKuVLfeg2DUlpACR7O9YAQDVRFpNSQ67LKNpdfABA1YBXuywzQLVeu0s4TM/ndT9f2OUUFoIsN7O6VJUjcoxbm74xCNMYoOLDyDxjaEPOF0HsJGcasldbT9qWyviG636ZrglAEtqr+pxzj/sXLqrMG8LZT84oEoCW527wlHtAttBfN5szWMKtBEFY649hnh3xY5jHA/6Hwzy9uWNV99DZgwCQE3qu9rikgLo448bOiuziHkBMPE+qZwAXV9I8RZdFAfA9zwA26UFI26iKYHsF6VrcZeorsljZ3DCzmVYnmevYAKg2JCQZie/V9dDTDskBFDGt0YLIAOVAEN9UzQFA9fHLYJ9eAF064ZGnJANEcRVaAJSW9gPZliS5roEOkgKaW4ubp8jagYob8cg6ayou83tpGFwDUK/p1iR92RTbDjCZ+a3Re9p0lmIDAMo4cpQl3bXC8ZWS1g7YAzfYhm4Hly3P2wH9VimR5H3aR5TOAYlTxaSramtu7EgzySS3muvrJF1VM+NaS4qSl2DMtIchizm+YdFkhMuuWlSlkMaR08c3RX8vlbfld8PTMtp98SElgBv9u/FRDKc++uOwzDFBT8xF9mItkCLHgyTbB5GzMD3U5cabkhz8j8xxUbbqIpc9NZtE7hpE2QNw+lp/GxV5RFt/LxO5WqMnLSNX2nX+EXl6VdeOIhtwlPb+yi8zbz6OH14+Av3w8OnT8zekl//PH43iV88fnNrbvwE=);lineShape=1;" vertex="1" parent="1">
                    <mxGeometry x="625.420211896711" y="-305.5189302252927" width="95.86807995459822" height="114.84286451043408" as="geometry"/>
                </mxCell>
                <mxCell id="95" value="" style="shape=stencil(lVrZchs3EPwavqJwH8+O8x+ushypolguWbn+Po3QgBYNbrP8JpEY7gLT09Mzg0v48P3x07eHi7ff315ffn/4++nz2+Ml/HLx/unr48Pr0xv+uoSPl/Dhy8vrw2+vL39+/Xz9/9unvrL/9cfLX/0X/rnalWyK71be/nv9JJjS/v/g1+v656evx/XeBLusTyan8/W5mdCW9cWEKNZn48KyvplYxHpv0rreeePsuUGqJpNBMtEJg2hcWg2aNIht7HAYePyEFwbRpPUJ2PSPU7hpEJrJqxNClKcUEp9qtMZmYWBNXZ8Qk6nCbz6buvo5OQkM4Czm1aAYJ17JW1NWA/g+iie4asrqhwzsiVNy+Ho9peJME5522HRdDZJJInrwhLSeUrUmC2gAanl9Qg3GilfyiAfHBnccFxIbNIUl+GF7gjolYPPH7x0MsgJfNW51XPXGiz1EZ+KK1tJMUgZ4pRVLcJwVjovF2A0aVYAPJGAJrVXuAeGSCK1RohW8ZFdoZDto4bZBNnHdAz5pgmZAlcStCUEr0IoXIOZLdpzbbQMc4gqNiJBSTwgbL+HcVH4ANim/lbGrMwO3wjuEAcezPeT1Cb6aVsWxNvY08oPKuSBGyqHeyT0AGmTQeURloMYxDbZVWXSPB7ySDCD4YXUcmCqoALKbQZRPCHmc+jTIxosnBM/Q8FMb3KbKLaaDBh+0kV3hDS4sAho4RGI+cKGSSz2hUAD5gd/bBpFzHCLOi1dyjg0Q04oEtkMCGhVYZ06e6+EFFdEbsSLlqXAbqJnrkfGUfDN5DYU8c/DZeso9aci5k/cplG/BmuI8K4vDCq2nNEbYEnqVyRAqpqw7aFYKK78pgIb8LLaAPZOPm64yoDHi6rSWJKwhcMtmoEQJ0oavm4GAHRiPQhMGSaXbwMHfoow04L5tx6oUAAQCBX9tMvMAyZQ9K3hceLrEG2pSgbtUZu3SpCiBsqNyDOEjDRIXrFBiUcC7Tt11KAMUWoF+Qis0gRXH2hxnnu5KcUpAP70SOLKKeOjIoarbyfoNBnUlAeA3qU3PIngaRAmNjv5100HTDF6JShkErfSDN5akG/ygPU2yB/k5itTT65AVfCAeVYMWz6eE9FVUcttUPQyiwFKxQyAcVEwTm4aB92yg9gASIJoBPXtBlZ016JWiNMArUccExb5SYjAgaEAcqpjuIU970OUYHOcLGyTlaYj+uhmoxlhktMJAOi4ykfXaXdB9mW46HKtSYjCI9IRZGJwZkHTomVtvulFlosVV2SoTxIMiMviB5BUMZAbyWylTRh/oDEvVs4HKQDCw2xOchnfYYlrBO7etlEmSW3uIrqLYR31Kdqvfgo4HO2jrgNasoOE2Eph8fmbAm3ayaIWnmZecPKWfNoA4oRZLjzhlEG9Qpaqjob9yYQPVAGm7H6YgOku7XEdXY8UrtTq4+pBFnSo4rB0/eMjsVQmmxrQBOa46gjCgvmlMsg2KTVQqc6usElsZrbCpsPwofG8b5JH4D900VapDMJGGu9Ov6yqRdGiS3TRgg9AHXlA9Rwgmu7q6063GdyaDIqumujeLvdTSJY9RyTTIxmuFRaONXgSpqinxHpqW96mxJIMrFTGh8qOgBrqKKkYLJ+qmB0AIl7AZVIGlkLaO4HvUnjW7yvaIqOYzkYsaBKGczzTutOKYVIfPxVHCHBwhu2OWy9c2Zd1ZL2rrhBTVpOTWb48odUYjx871SU4GHZ9Qjx6xYdQCNGytQxicrLdb70oN7ex4+lyvm7iWcZ2r7PvMRDPXR6mhPaMalNrUZGkj+TwGECe9Osqdd5JC5ZkmIluVJc5xnyuG0X48CwEamIQmy3RXOWb6OE419zzvATVxEz7rip+0py5xe3OPDOZw4LZB3DSPk6oqVK6UcAxKX4BPqTHmsp5OJFaG3TOKsbfehAu6feiYi5yXFJ+2Qa6bAuJ2IrSbQdKd93BjrCSHb2moiYO6lfPAwiP7fhNCFT6Vrx2EKHMzFBF1ZaPVeyhcvMUsr3/kzAOHfiFEt3GJJcEyqqnU7z3QXYssaal7mmYyTZJAqtuQRTfsU2I1nHWZDo1E7UMIOaXz+nycpCcEtYrpxm3c0mQBCq72pCS9RGsnAUrnUSoeQI3aVl0v6LEGga82OUAEt+ZtJKAUQG8WOjZQJADqJZlX72SgvA2wsizFQFuZLsm4cfXnzMDRbY4qr0O5WcVPgygL1j41XUO0WHlK2DR1A8GF6q4FEhQXe1ZKk/d5+4zpJEmgd4RInDTZOfDb9Q+IE6WGg9/EiZY/+Jr8EO5EnN8alFmyd5/abY1ieavGcQ0NV6omK6iXNLfTFW7exktVX6rZZz/6xmXhe3JhVEGn7UySAbpvnViNWTmaLZuI1oVnyRxrd9dT6rGypiobJKwsIrE+8u+r8y9bS8/Jmg3rqf/s5Hy/r8+0XtU8fT2FgByK9fcneS6JqGzNiyDzcj9/6hbqscfP3lC+ux5/vF+H/vL0/Hy9TX38nq9P46Pr1evw8T8=);lineShape=1;" vertex="1" parent="1">
                    <mxGeometry x="849.2676793837009" y="-559.0241927568036" width="35.65254739084139" height="32.018815443907215" as="geometry"/>
                </mxCell>
            </root>
        </mxGraphModel>
    </diagram>
</mxfile>